%TF.GenerationSoftware,KiCad,Pcbnew,6.0.1-79c1e3a40b~116~ubuntu21.10.1*%
%TF.CreationDate,2022-03-03T18:49:24-07:00*%
%TF.ProjectId,MotorSpeedController,4d6f746f-7253-4706-9565-64436f6e7472,rev?*%
%TF.SameCoordinates,Original*%
%TF.FileFunction,Legend,Bot*%
%TF.FilePolarity,Positive*%
%FSLAX46Y46*%
G04 Gerber Fmt 4.6, Leading zero omitted, Abs format (unit mm)*
G04 Created by KiCad (PCBNEW 6.0.1-79c1e3a40b~116~ubuntu21.10.1) date 2022-03-03 18:49:24*
%MOMM*%
%LPD*%
G01*
G04 APERTURE LIST*
%ADD10C,0.150000*%
%ADD11C,0.120000*%
G04 APERTURE END LIST*
D10*
%TO.C,C3*%
X117197166Y-82716642D02*
X117244785Y-82764261D01*
X117387642Y-82811880D01*
X117482880Y-82811880D01*
X117625738Y-82764261D01*
X117720976Y-82669023D01*
X117768595Y-82573785D01*
X117816214Y-82383309D01*
X117816214Y-82240452D01*
X117768595Y-82049976D01*
X117720976Y-81954738D01*
X117625738Y-81859500D01*
X117482880Y-81811880D01*
X117387642Y-81811880D01*
X117244785Y-81859500D01*
X117197166Y-81907119D01*
X116863833Y-81811880D02*
X116244785Y-81811880D01*
X116578119Y-82192833D01*
X116435261Y-82192833D01*
X116340023Y-82240452D01*
X116292404Y-82288071D01*
X116244785Y-82383309D01*
X116244785Y-82621404D01*
X116292404Y-82716642D01*
X116340023Y-82764261D01*
X116435261Y-82811880D01*
X116720976Y-82811880D01*
X116816214Y-82764261D01*
X116863833Y-82716642D01*
%TO.C,C5*%
X114466666Y-82937642D02*
X114514285Y-82985261D01*
X114657142Y-83032880D01*
X114752380Y-83032880D01*
X114895238Y-82985261D01*
X114990476Y-82890023D01*
X115038095Y-82794785D01*
X115085714Y-82604309D01*
X115085714Y-82461452D01*
X115038095Y-82270976D01*
X114990476Y-82175738D01*
X114895238Y-82080500D01*
X114752380Y-82032880D01*
X114657142Y-82032880D01*
X114514285Y-82080500D01*
X114466666Y-82128119D01*
X113561904Y-82032880D02*
X114038095Y-82032880D01*
X114085714Y-82509071D01*
X114038095Y-82461452D01*
X113942857Y-82413833D01*
X113704761Y-82413833D01*
X113609523Y-82461452D01*
X113561904Y-82509071D01*
X113514285Y-82604309D01*
X113514285Y-82842404D01*
X113561904Y-82937642D01*
X113609523Y-82985261D01*
X113704761Y-83032880D01*
X113942857Y-83032880D01*
X114038095Y-82985261D01*
X114085714Y-82937642D01*
%TO.C,U2*%
X113561880Y-87757095D02*
X114371404Y-87757095D01*
X114466642Y-87804714D01*
X114514261Y-87852333D01*
X114561880Y-87947571D01*
X114561880Y-88138047D01*
X114514261Y-88233285D01*
X114466642Y-88280904D01*
X114371404Y-88328523D01*
X113561880Y-88328523D01*
X113657119Y-88757095D02*
X113609500Y-88804714D01*
X113561880Y-88899952D01*
X113561880Y-89138047D01*
X113609500Y-89233285D01*
X113657119Y-89280904D01*
X113752357Y-89328523D01*
X113847595Y-89328523D01*
X113990452Y-89280904D01*
X114561880Y-88709476D01*
X114561880Y-89328523D01*
D11*
%TO.C,C3*%
X117248721Y-84520500D02*
X117574279Y-84520500D01*
X117248721Y-83500500D02*
X117574279Y-83500500D01*
%TO.C,C5*%
X114462779Y-83500500D02*
X114137221Y-83500500D01*
X114462779Y-84520500D02*
X114137221Y-84520500D01*
%TO.C,U2*%
X117955000Y-90765000D02*
X117955000Y-87035000D01*
X111445000Y-87035000D02*
X110645000Y-87835000D01*
X110645000Y-87835000D02*
X110645000Y-90765000D01*
X117955000Y-87035000D02*
X111445000Y-87035000D01*
X110645000Y-90765000D02*
X117955000Y-90765000D01*
%TD*%
M02*
