%TF.GenerationSoftware,KiCad,Pcbnew,6.0.1-79c1e3a40b~116~ubuntu21.10.1*%
%TF.CreationDate,2022-03-03T18:49:24-07:00*%
%TF.ProjectId,MotorSpeedController,4d6f746f-7253-4706-9565-64436f6e7472,rev?*%
%TF.SameCoordinates,Original*%
%TF.FileFunction,Soldermask,Top*%
%TF.FilePolarity,Negative*%
%FSLAX46Y46*%
G04 Gerber Fmt 4.6, Leading zero omitted, Abs format (unit mm)*
G04 Created by KiCad (PCBNEW 6.0.1-79c1e3a40b~116~ubuntu21.10.1) date 2022-03-03 18:49:24*
%MOMM*%
%LPD*%
G01*
G04 APERTURE LIST*
G04 Aperture macros list*
%AMRoundRect*
0 Rectangle with rounded corners*
0 $1 Rounding radius*
0 $2 $3 $4 $5 $6 $7 $8 $9 X,Y pos of 4 corners*
0 Add a 4 corners polygon primitive as box body*
4,1,4,$2,$3,$4,$5,$6,$7,$8,$9,$2,$3,0*
0 Add four circle primitives for the rounded corners*
1,1,$1+$1,$2,$3*
1,1,$1+$1,$4,$5*
1,1,$1+$1,$6,$7*
1,1,$1+$1,$8,$9*
0 Add four rect primitives between the rounded corners*
20,1,$1+$1,$2,$3,$4,$5,0*
20,1,$1+$1,$4,$5,$6,$7,0*
20,1,$1+$1,$6,$7,$8,$9,0*
20,1,$1+$1,$8,$9,$2,$3,0*%
G04 Aperture macros list end*
%ADD10RoundRect,0.218750X0.256250X-0.218750X0.256250X0.218750X-0.256250X0.218750X-0.256250X-0.218750X0*%
%ADD11RoundRect,0.218750X-0.256250X0.218750X-0.256250X-0.218750X0.256250X-0.218750X0.256250X0.218750X0*%
%ADD12RoundRect,0.212500X0.212500X-0.400000X0.212500X0.400000X-0.212500X0.400000X-0.212500X-0.400000X0*%
%ADD13RoundRect,0.218750X-0.218750X-0.256250X0.218750X-0.256250X0.218750X0.256250X-0.218750X0.256250X0*%
%ADD14R,1.600000X0.550000*%
%ADD15R,0.550000X1.600000*%
%ADD16R,1.200000X1.400000*%
%ADD17C,0.800000*%
%ADD18C,5.000000*%
%ADD19R,1.700000X1.700000*%
%ADD20O,1.700000X1.700000*%
%ADD21RoundRect,0.218750X0.218750X0.256250X-0.218750X0.256250X-0.218750X-0.256250X0.218750X-0.256250X0*%
%ADD22RoundRect,0.250000X1.025000X-0.600000X1.025000X0.600000X-1.025000X0.600000X-1.025000X-0.600000X0*%
%ADD23R,2.200000X1.200000*%
%ADD24R,6.400000X5.800000*%
G04 APERTURE END LIST*
D10*
%TO.C,C1*%
X120269000Y-90068500D03*
X120269000Y-88493500D03*
%TD*%
D11*
%TO.C,C2*%
X103886000Y-88874500D03*
X103886000Y-90449500D03*
%TD*%
D12*
%TO.C,D1*%
X122525000Y-90162500D03*
X122525000Y-88537500D03*
%TD*%
%TO.C,D2*%
X117030500Y-82092500D03*
X117030500Y-80467500D03*
%TD*%
D11*
%TO.C,R1*%
X113855500Y-80810000D03*
X113855500Y-82385000D03*
%TD*%
D13*
%TO.C,R2*%
X120243500Y-86868000D03*
X121818500Y-86868000D03*
%TD*%
D10*
%TO.C,R3*%
X115443000Y-82385000D03*
X115443000Y-80810000D03*
%TD*%
D14*
%TO.C,U1*%
X109923000Y-85655500D03*
X109923000Y-86455500D03*
X109923000Y-87255500D03*
X109923000Y-88055500D03*
X109923000Y-88855500D03*
X109923000Y-89655500D03*
X109923000Y-90455500D03*
X109923000Y-91255500D03*
D15*
X111373000Y-92705500D03*
X112173000Y-92705500D03*
X112973000Y-92705500D03*
X113773000Y-92705500D03*
X114573000Y-92705500D03*
X115373000Y-92705500D03*
X116173000Y-92705500D03*
X116973000Y-92705500D03*
D14*
X118423000Y-91255500D03*
X118423000Y-90455500D03*
X118423000Y-89655500D03*
X118423000Y-88855500D03*
X118423000Y-88055500D03*
X118423000Y-87255500D03*
X118423000Y-86455500D03*
X118423000Y-85655500D03*
D15*
X116973000Y-84205500D03*
X116173000Y-84205500D03*
X115373000Y-84205500D03*
X114573000Y-84205500D03*
X113773000Y-84205500D03*
X112973000Y-84205500D03*
X112173000Y-84205500D03*
X111373000Y-84205500D03*
%TD*%
D16*
%TO.C,Y1*%
X107276000Y-91016000D03*
X107276000Y-88816000D03*
X105576000Y-88816000D03*
X105576000Y-91016000D03*
%TD*%
D17*
%TO.C,H2*%
X115890990Y-69309010D03*
X114300000Y-73150000D03*
X112709010Y-69309010D03*
D18*
X114300000Y-70900000D03*
D17*
X116550000Y-70900000D03*
X115890990Y-72490990D03*
X112709010Y-72490990D03*
X112050000Y-70900000D03*
X114300000Y-68650000D03*
%TD*%
%TO.C,H3*%
X127635000Y-97900000D03*
X128294010Y-96309010D03*
X132135000Y-97900000D03*
X131475990Y-99490990D03*
X129885000Y-100150000D03*
X131475990Y-96309010D03*
X129885000Y-95650000D03*
X128294010Y-99490990D03*
D18*
X129885000Y-97900000D03*
%TD*%
D19*
%TO.C,J1*%
X125095000Y-93662500D03*
D20*
X125095000Y-91122500D03*
X125095000Y-88582500D03*
X125095000Y-86042500D03*
X125095000Y-83502500D03*
X125095000Y-80962500D03*
X125095000Y-78422500D03*
X125095000Y-75882500D03*
%TD*%
D21*
%TO.C,C4*%
X107277000Y-92773500D03*
X105702000Y-92773500D03*
%TD*%
D17*
%TO.C,H1*%
X98411000Y-100150000D03*
X96820010Y-96309010D03*
X96820010Y-99490990D03*
X100661000Y-97900000D03*
X98411000Y-95650000D03*
D18*
X98411000Y-97900000D03*
D17*
X96161000Y-97900000D03*
X100001990Y-96309010D03*
X100001990Y-99490990D03*
%TD*%
D13*
%TO.C,C6*%
X121704000Y-102743000D03*
X123279000Y-102743000D03*
%TD*%
%TO.C,C7*%
X121704000Y-104394000D03*
X123279000Y-104394000D03*
%TD*%
%TO.C,C9*%
X121767500Y-100139500D03*
X123342500Y-100139500D03*
%TD*%
D22*
%TO.C,D3*%
X105219500Y-103049500D03*
X105219500Y-98499500D03*
%TD*%
D19*
%TO.C,J2*%
X119189500Y-97599500D03*
D20*
X116649500Y-97599500D03*
X114109500Y-97599500D03*
X111569500Y-97599500D03*
X109029500Y-97599500D03*
%TD*%
D23*
%TO.C,U3*%
X119071500Y-106039000D03*
D24*
X112771500Y-103759000D03*
D23*
X119071500Y-101479000D03*
%TD*%
D13*
%TO.C,C8*%
X121704000Y-106045000D03*
X123279000Y-106045000D03*
%TD*%
M02*
