%TF.GenerationSoftware,KiCad,Pcbnew,(5.1.6)-1*%
%TF.CreationDate,2021-01-30T09:31:10-07:00*%
%TF.ProjectId,MotorSpeedController,4d6f746f-7253-4706-9565-64436f6e7472,rev?*%
%TF.SameCoordinates,Original*%
%TF.FileFunction,Copper,L1,Top*%
%TF.FilePolarity,Positive*%
%FSLAX46Y46*%
G04 Gerber Fmt 4.6, Leading zero omitted, Abs format (unit mm)*
G04 Created by KiCad (PCBNEW (5.1.6)-1) date 2021-01-30 09:31:10*
%MOMM*%
%LPD*%
G01*
G04 APERTURE LIST*
%TA.AperFunction,SMDPad,CuDef*%
%ADD10R,1.200000X1.400000*%
%TD*%
%TA.AperFunction,ComponentPad*%
%ADD11O,1.700000X1.700000*%
%TD*%
%TA.AperFunction,ComponentPad*%
%ADD12R,1.700000X1.700000*%
%TD*%
%TA.AperFunction,SMDPad,CuDef*%
%ADD13R,6.400000X5.800000*%
%TD*%
%TA.AperFunction,SMDPad,CuDef*%
%ADD14R,2.200000X1.200000*%
%TD*%
%TA.AperFunction,ComponentPad*%
%ADD15C,0.800000*%
%TD*%
%TA.AperFunction,ComponentPad*%
%ADD16C,5.000000*%
%TD*%
%TA.AperFunction,SMDPad,CuDef*%
%ADD17R,0.550000X1.600000*%
%TD*%
%TA.AperFunction,SMDPad,CuDef*%
%ADD18R,1.600000X0.550000*%
%TD*%
%TA.AperFunction,ViaPad*%
%ADD19C,0.685800*%
%TD*%
%TA.AperFunction,Conductor*%
%ADD20C,0.254000*%
%TD*%
%TA.AperFunction,Conductor*%
%ADD21C,0.508000*%
%TD*%
%TA.AperFunction,Conductor*%
%ADD22C,1.016000*%
%TD*%
G04 APERTURE END LIST*
D10*
%TO.P,Y1,4*%
%TO.N,GND*%
X105576000Y-91016000D03*
%TO.P,Y1,3*%
%TO.N,/XTAL1*%
X105576000Y-88816000D03*
%TO.P,Y1,2*%
%TO.N,GND*%
X107276000Y-88816000D03*
%TO.P,Y1,1*%
%TO.N,/XTAL2*%
X107276000Y-91016000D03*
%TD*%
D11*
%TO.P,J1,8*%
%TO.N,+12V*%
X125095000Y-75882500D03*
%TO.P,J1,7*%
%TO.N,GND*%
X125095000Y-78422500D03*
%TO.P,J1,6*%
X125095000Y-80962500D03*
%TO.P,J1,5*%
%TO.N,~RST*%
X125095000Y-83502500D03*
%TO.P,J1,4*%
%TO.N,SCK*%
X125095000Y-86042500D03*
%TO.P,J1,3*%
%TO.N,MISO*%
X125095000Y-88582500D03*
%TO.P,J1,2*%
%TO.N,MOSI*%
X125095000Y-91122500D03*
D12*
%TO.P,J1,1*%
%TO.N,SS*%
X125095000Y-93662500D03*
%TD*%
%TO.P,D3,2*%
%TO.N,GND*%
%TA.AperFunction,SMDPad,CuDef*%
G36*
G01*
X106244500Y-99349500D02*
X104194500Y-99349500D01*
G75*
G02*
X103944500Y-99099500I0J250000D01*
G01*
X103944500Y-97899500D01*
G75*
G02*
X104194500Y-97649500I250000J0D01*
G01*
X106244500Y-97649500D01*
G75*
G02*
X106494500Y-97899500I0J-250000D01*
G01*
X106494500Y-99099500D01*
G75*
G02*
X106244500Y-99349500I-250000J0D01*
G01*
G37*
%TD.AperFunction*%
%TO.P,D3,1*%
%TO.N,+12V*%
%TA.AperFunction,SMDPad,CuDef*%
G36*
G01*
X106244500Y-103899500D02*
X104194500Y-103899500D01*
G75*
G02*
X103944500Y-103649500I0J250000D01*
G01*
X103944500Y-102449500D01*
G75*
G02*
X104194500Y-102199500I250000J0D01*
G01*
X106244500Y-102199500D01*
G75*
G02*
X106494500Y-102449500I0J-250000D01*
G01*
X106494500Y-103649500D01*
G75*
G02*
X106244500Y-103899500I-250000J0D01*
G01*
G37*
%TD.AperFunction*%
%TD*%
D13*
%TO.P,U3,2*%
%TO.N,GND*%
X112771500Y-103759000D03*
D14*
%TO.P,U3,3*%
%TO.N,+5V*%
X119071500Y-101479000D03*
%TO.P,U3,1*%
%TO.N,+12V*%
X119071500Y-106039000D03*
%TD*%
D11*
%TO.P,J2,5*%
%TO.N,GND*%
X109029500Y-97599500D03*
%TO.P,J2,4*%
%TO.N,BRAKE*%
X111569500Y-97599500D03*
%TO.P,J2,3*%
%TO.N,DIR*%
X114109500Y-97599500D03*
%TO.P,J2,2*%
%TO.N,PWM*%
X116649500Y-97599500D03*
D12*
%TO.P,J2,1*%
%TO.N,+12V*%
X119189500Y-97599500D03*
%TD*%
%TO.P,C9,2*%
%TO.N,GND*%
%TA.AperFunction,SMDPad,CuDef*%
G36*
G01*
X122905000Y-100395750D02*
X122905000Y-99883250D01*
G75*
G02*
X123123750Y-99664500I218750J0D01*
G01*
X123561250Y-99664500D01*
G75*
G02*
X123780000Y-99883250I0J-218750D01*
G01*
X123780000Y-100395750D01*
G75*
G02*
X123561250Y-100614500I-218750J0D01*
G01*
X123123750Y-100614500D01*
G75*
G02*
X122905000Y-100395750I0J218750D01*
G01*
G37*
%TD.AperFunction*%
%TO.P,C9,1*%
%TO.N,+5V*%
%TA.AperFunction,SMDPad,CuDef*%
G36*
G01*
X121330000Y-100395750D02*
X121330000Y-99883250D01*
G75*
G02*
X121548750Y-99664500I218750J0D01*
G01*
X121986250Y-99664500D01*
G75*
G02*
X122205000Y-99883250I0J-218750D01*
G01*
X122205000Y-100395750D01*
G75*
G02*
X121986250Y-100614500I-218750J0D01*
G01*
X121548750Y-100614500D01*
G75*
G02*
X121330000Y-100395750I0J218750D01*
G01*
G37*
%TD.AperFunction*%
%TD*%
%TO.P,C8,2*%
%TO.N,GND*%
%TA.AperFunction,SMDPad,CuDef*%
G36*
G01*
X122841500Y-106301250D02*
X122841500Y-105788750D01*
G75*
G02*
X123060250Y-105570000I218750J0D01*
G01*
X123497750Y-105570000D01*
G75*
G02*
X123716500Y-105788750I0J-218750D01*
G01*
X123716500Y-106301250D01*
G75*
G02*
X123497750Y-106520000I-218750J0D01*
G01*
X123060250Y-106520000D01*
G75*
G02*
X122841500Y-106301250I0J218750D01*
G01*
G37*
%TD.AperFunction*%
%TO.P,C8,1*%
%TO.N,+12V*%
%TA.AperFunction,SMDPad,CuDef*%
G36*
G01*
X121266500Y-106301250D02*
X121266500Y-105788750D01*
G75*
G02*
X121485250Y-105570000I218750J0D01*
G01*
X121922750Y-105570000D01*
G75*
G02*
X122141500Y-105788750I0J-218750D01*
G01*
X122141500Y-106301250D01*
G75*
G02*
X121922750Y-106520000I-218750J0D01*
G01*
X121485250Y-106520000D01*
G75*
G02*
X121266500Y-106301250I0J218750D01*
G01*
G37*
%TD.AperFunction*%
%TD*%
%TO.P,C7,2*%
%TO.N,GND*%
%TA.AperFunction,SMDPad,CuDef*%
G36*
G01*
X122841500Y-104650250D02*
X122841500Y-104137750D01*
G75*
G02*
X123060250Y-103919000I218750J0D01*
G01*
X123497750Y-103919000D01*
G75*
G02*
X123716500Y-104137750I0J-218750D01*
G01*
X123716500Y-104650250D01*
G75*
G02*
X123497750Y-104869000I-218750J0D01*
G01*
X123060250Y-104869000D01*
G75*
G02*
X122841500Y-104650250I0J218750D01*
G01*
G37*
%TD.AperFunction*%
%TO.P,C7,1*%
%TO.N,+12V*%
%TA.AperFunction,SMDPad,CuDef*%
G36*
G01*
X121266500Y-104650250D02*
X121266500Y-104137750D01*
G75*
G02*
X121485250Y-103919000I218750J0D01*
G01*
X121922750Y-103919000D01*
G75*
G02*
X122141500Y-104137750I0J-218750D01*
G01*
X122141500Y-104650250D01*
G75*
G02*
X121922750Y-104869000I-218750J0D01*
G01*
X121485250Y-104869000D01*
G75*
G02*
X121266500Y-104650250I0J218750D01*
G01*
G37*
%TD.AperFunction*%
%TD*%
%TO.P,C6,2*%
%TO.N,GND*%
%TA.AperFunction,SMDPad,CuDef*%
G36*
G01*
X122841500Y-102999250D02*
X122841500Y-102486750D01*
G75*
G02*
X123060250Y-102268000I218750J0D01*
G01*
X123497750Y-102268000D01*
G75*
G02*
X123716500Y-102486750I0J-218750D01*
G01*
X123716500Y-102999250D01*
G75*
G02*
X123497750Y-103218000I-218750J0D01*
G01*
X123060250Y-103218000D01*
G75*
G02*
X122841500Y-102999250I0J218750D01*
G01*
G37*
%TD.AperFunction*%
%TO.P,C6,1*%
%TO.N,+12V*%
%TA.AperFunction,SMDPad,CuDef*%
G36*
G01*
X121266500Y-102999250D02*
X121266500Y-102486750D01*
G75*
G02*
X121485250Y-102268000I218750J0D01*
G01*
X121922750Y-102268000D01*
G75*
G02*
X122141500Y-102486750I0J-218750D01*
G01*
X122141500Y-102999250D01*
G75*
G02*
X121922750Y-103218000I-218750J0D01*
G01*
X121485250Y-103218000D01*
G75*
G02*
X121266500Y-102999250I0J218750D01*
G01*
G37*
%TD.AperFunction*%
%TD*%
D15*
%TO.P,H3,1*%
%TO.N,GND*%
X131475990Y-96309010D03*
X129885000Y-95650000D03*
X128294010Y-96309010D03*
X127635000Y-97900000D03*
X128294010Y-99490990D03*
X129885000Y-100150000D03*
X131475990Y-99490990D03*
X132135000Y-97900000D03*
D16*
X129885000Y-97900000D03*
%TD*%
D15*
%TO.P,H2,1*%
%TO.N,GND*%
X115890990Y-69309010D03*
X114300000Y-68650000D03*
X112709010Y-69309010D03*
X112050000Y-70900000D03*
X112709010Y-72490990D03*
X114300000Y-73150000D03*
X115890990Y-72490990D03*
X116550000Y-70900000D03*
D16*
X114300000Y-70900000D03*
%TD*%
D15*
%TO.P,H1,1*%
%TO.N,GND*%
X100001990Y-96309010D03*
X98411000Y-95650000D03*
X96820010Y-96309010D03*
X96161000Y-97900000D03*
X96820010Y-99490990D03*
X98411000Y-100150000D03*
X100001990Y-99490990D03*
X100661000Y-97900000D03*
D16*
X98411000Y-97900000D03*
%TD*%
D17*
%TO.P,U1,32*%
%TO.N,INT0*%
X111373000Y-84205500D03*
%TO.P,U1,31*%
%TO.N,N/C*%
X112173000Y-84205500D03*
%TO.P,U1,30*%
X112973000Y-84205500D03*
%TO.P,U1,29*%
%TO.N,~RST*%
X113773000Y-84205500D03*
%TO.P,U1,28*%
%TO.N,N/C*%
X114573000Y-84205500D03*
%TO.P,U1,27*%
X115373000Y-84205500D03*
%TO.P,U1,26*%
X116173000Y-84205500D03*
%TO.P,U1,25*%
X116973000Y-84205500D03*
D18*
%TO.P,U1,24*%
X118423000Y-85655500D03*
%TO.P,U1,23*%
%TO.N,Net-(R2-Pad1)*%
X118423000Y-86455500D03*
%TO.P,U1,22*%
%TO.N,N/C*%
X118423000Y-87255500D03*
%TO.P,U1,21*%
%TO.N,GND*%
X118423000Y-88055500D03*
%TO.P,U1,20*%
%TO.N,N/C*%
X118423000Y-88855500D03*
%TO.P,U1,19*%
X118423000Y-89655500D03*
%TO.P,U1,18*%
%TO.N,+5V*%
X118423000Y-90455500D03*
%TO.P,U1,17*%
%TO.N,SCK*%
X118423000Y-91255500D03*
D17*
%TO.P,U1,16*%
%TO.N,MISO*%
X116973000Y-92705500D03*
%TO.P,U1,15*%
%TO.N,MOSI*%
X116173000Y-92705500D03*
%TO.P,U1,14*%
%TO.N,SS*%
X115373000Y-92705500D03*
%TO.P,U1,13*%
%TO.N,PWM*%
X114573000Y-92705500D03*
%TO.P,U1,12*%
%TO.N,DIR*%
X113773000Y-92705500D03*
%TO.P,U1,11*%
%TO.N,BRAKE*%
X112973000Y-92705500D03*
%TO.P,U1,10*%
%TO.N,N/C*%
X112173000Y-92705500D03*
%TO.P,U1,9*%
X111373000Y-92705500D03*
D18*
%TO.P,U1,8*%
%TO.N,/XTAL2*%
X109923000Y-91255500D03*
%TO.P,U1,7*%
%TO.N,/XTAL1*%
X109923000Y-90455500D03*
%TO.P,U1,6*%
%TO.N,+5V*%
X109923000Y-89655500D03*
%TO.P,U1,5*%
%TO.N,GND*%
X109923000Y-88855500D03*
%TO.P,U1,4*%
%TO.N,+5V*%
X109923000Y-88055500D03*
%TO.P,U1,3*%
%TO.N,GND*%
X109923000Y-87255500D03*
%TO.P,U1,2*%
%TO.N,N/C*%
X109923000Y-86455500D03*
%TO.P,U1,1*%
%TO.N,INT1*%
X109923000Y-85655500D03*
%TD*%
%TO.P,R3,2*%
%TO.N,Net-(D2-Pad2)*%
%TA.AperFunction,SMDPad,CuDef*%
G36*
G01*
X115699250Y-81247500D02*
X115186750Y-81247500D01*
G75*
G02*
X114968000Y-81028750I0J218750D01*
G01*
X114968000Y-80591250D01*
G75*
G02*
X115186750Y-80372500I218750J0D01*
G01*
X115699250Y-80372500D01*
G75*
G02*
X115918000Y-80591250I0J-218750D01*
G01*
X115918000Y-81028750D01*
G75*
G02*
X115699250Y-81247500I-218750J0D01*
G01*
G37*
%TD.AperFunction*%
%TO.P,R3,1*%
%TO.N,Net-(R3-Pad1)*%
%TA.AperFunction,SMDPad,CuDef*%
G36*
G01*
X115699250Y-82822500D02*
X115186750Y-82822500D01*
G75*
G02*
X114968000Y-82603750I0J218750D01*
G01*
X114968000Y-82166250D01*
G75*
G02*
X115186750Y-81947500I218750J0D01*
G01*
X115699250Y-81947500D01*
G75*
G02*
X115918000Y-82166250I0J-218750D01*
G01*
X115918000Y-82603750D01*
G75*
G02*
X115699250Y-82822500I-218750J0D01*
G01*
G37*
%TD.AperFunction*%
%TD*%
%TO.P,R2,2*%
%TO.N,Net-(D1-Pad2)*%
%TA.AperFunction,SMDPad,CuDef*%
G36*
G01*
X121381000Y-87124250D02*
X121381000Y-86611750D01*
G75*
G02*
X121599750Y-86393000I218750J0D01*
G01*
X122037250Y-86393000D01*
G75*
G02*
X122256000Y-86611750I0J-218750D01*
G01*
X122256000Y-87124250D01*
G75*
G02*
X122037250Y-87343000I-218750J0D01*
G01*
X121599750Y-87343000D01*
G75*
G02*
X121381000Y-87124250I0J218750D01*
G01*
G37*
%TD.AperFunction*%
%TO.P,R2,1*%
%TO.N,Net-(R2-Pad1)*%
%TA.AperFunction,SMDPad,CuDef*%
G36*
G01*
X119806000Y-87124250D02*
X119806000Y-86611750D01*
G75*
G02*
X120024750Y-86393000I218750J0D01*
G01*
X120462250Y-86393000D01*
G75*
G02*
X120681000Y-86611750I0J-218750D01*
G01*
X120681000Y-87124250D01*
G75*
G02*
X120462250Y-87343000I-218750J0D01*
G01*
X120024750Y-87343000D01*
G75*
G02*
X119806000Y-87124250I0J218750D01*
G01*
G37*
%TD.AperFunction*%
%TD*%
%TO.P,R1,2*%
%TO.N,~RST*%
%TA.AperFunction,SMDPad,CuDef*%
G36*
G01*
X113599250Y-81947500D02*
X114111750Y-81947500D01*
G75*
G02*
X114330500Y-82166250I0J-218750D01*
G01*
X114330500Y-82603750D01*
G75*
G02*
X114111750Y-82822500I-218750J0D01*
G01*
X113599250Y-82822500D01*
G75*
G02*
X113380500Y-82603750I0J218750D01*
G01*
X113380500Y-82166250D01*
G75*
G02*
X113599250Y-81947500I218750J0D01*
G01*
G37*
%TD.AperFunction*%
%TO.P,R1,1*%
%TO.N,+5V*%
%TA.AperFunction,SMDPad,CuDef*%
G36*
G01*
X113599250Y-80372500D02*
X114111750Y-80372500D01*
G75*
G02*
X114330500Y-80591250I0J-218750D01*
G01*
X114330500Y-81028750D01*
G75*
G02*
X114111750Y-81247500I-218750J0D01*
G01*
X113599250Y-81247500D01*
G75*
G02*
X113380500Y-81028750I0J218750D01*
G01*
X113380500Y-80591250D01*
G75*
G02*
X113599250Y-80372500I218750J0D01*
G01*
G37*
%TD.AperFunction*%
%TD*%
%TO.P,D2,2*%
%TO.N,Net-(D2-Pad2)*%
%TA.AperFunction,SMDPad,CuDef*%
G36*
G01*
X117243000Y-81080000D02*
X116818000Y-81080000D01*
G75*
G02*
X116605500Y-80867500I0J212500D01*
G01*
X116605500Y-80067500D01*
G75*
G02*
X116818000Y-79855000I212500J0D01*
G01*
X117243000Y-79855000D01*
G75*
G02*
X117455500Y-80067500I0J-212500D01*
G01*
X117455500Y-80867500D01*
G75*
G02*
X117243000Y-81080000I-212500J0D01*
G01*
G37*
%TD.AperFunction*%
%TO.P,D2,1*%
%TO.N,GND*%
%TA.AperFunction,SMDPad,CuDef*%
G36*
G01*
X117243000Y-82705000D02*
X116818000Y-82705000D01*
G75*
G02*
X116605500Y-82492500I0J212500D01*
G01*
X116605500Y-81692500D01*
G75*
G02*
X116818000Y-81480000I212500J0D01*
G01*
X117243000Y-81480000D01*
G75*
G02*
X117455500Y-81692500I0J-212500D01*
G01*
X117455500Y-82492500D01*
G75*
G02*
X117243000Y-82705000I-212500J0D01*
G01*
G37*
%TD.AperFunction*%
%TD*%
%TO.P,D1,2*%
%TO.N,Net-(D1-Pad2)*%
%TA.AperFunction,SMDPad,CuDef*%
G36*
G01*
X122894500Y-89144500D02*
X122469500Y-89144500D01*
G75*
G02*
X122257000Y-88932000I0J212500D01*
G01*
X122257000Y-88132000D01*
G75*
G02*
X122469500Y-87919500I212500J0D01*
G01*
X122894500Y-87919500D01*
G75*
G02*
X123107000Y-88132000I0J-212500D01*
G01*
X123107000Y-88932000D01*
G75*
G02*
X122894500Y-89144500I-212500J0D01*
G01*
G37*
%TD.AperFunction*%
%TO.P,D1,1*%
%TO.N,GND*%
%TA.AperFunction,SMDPad,CuDef*%
G36*
G01*
X122894500Y-90769500D02*
X122469500Y-90769500D01*
G75*
G02*
X122257000Y-90557000I0J212500D01*
G01*
X122257000Y-89757000D01*
G75*
G02*
X122469500Y-89544500I212500J0D01*
G01*
X122894500Y-89544500D01*
G75*
G02*
X123107000Y-89757000I0J-212500D01*
G01*
X123107000Y-90557000D01*
G75*
G02*
X122894500Y-90769500I-212500J0D01*
G01*
G37*
%TD.AperFunction*%
%TD*%
%TO.P,C4,2*%
%TO.N,GND*%
%TA.AperFunction,SMDPad,CuDef*%
G36*
G01*
X106139500Y-92517250D02*
X106139500Y-93029750D01*
G75*
G02*
X105920750Y-93248500I-218750J0D01*
G01*
X105483250Y-93248500D01*
G75*
G02*
X105264500Y-93029750I0J218750D01*
G01*
X105264500Y-92517250D01*
G75*
G02*
X105483250Y-92298500I218750J0D01*
G01*
X105920750Y-92298500D01*
G75*
G02*
X106139500Y-92517250I0J-218750D01*
G01*
G37*
%TD.AperFunction*%
%TO.P,C4,1*%
%TO.N,/XTAL2*%
%TA.AperFunction,SMDPad,CuDef*%
G36*
G01*
X107714500Y-92517250D02*
X107714500Y-93029750D01*
G75*
G02*
X107495750Y-93248500I-218750J0D01*
G01*
X107058250Y-93248500D01*
G75*
G02*
X106839500Y-93029750I0J218750D01*
G01*
X106839500Y-92517250D01*
G75*
G02*
X107058250Y-92298500I218750J0D01*
G01*
X107495750Y-92298500D01*
G75*
G02*
X107714500Y-92517250I0J-218750D01*
G01*
G37*
%TD.AperFunction*%
%TD*%
%TO.P,C2,2*%
%TO.N,GND*%
%TA.AperFunction,SMDPad,CuDef*%
G36*
G01*
X103629750Y-90012000D02*
X104142250Y-90012000D01*
G75*
G02*
X104361000Y-90230750I0J-218750D01*
G01*
X104361000Y-90668250D01*
G75*
G02*
X104142250Y-90887000I-218750J0D01*
G01*
X103629750Y-90887000D01*
G75*
G02*
X103411000Y-90668250I0J218750D01*
G01*
X103411000Y-90230750D01*
G75*
G02*
X103629750Y-90012000I218750J0D01*
G01*
G37*
%TD.AperFunction*%
%TO.P,C2,1*%
%TO.N,/XTAL1*%
%TA.AperFunction,SMDPad,CuDef*%
G36*
G01*
X103629750Y-88437000D02*
X104142250Y-88437000D01*
G75*
G02*
X104361000Y-88655750I0J-218750D01*
G01*
X104361000Y-89093250D01*
G75*
G02*
X104142250Y-89312000I-218750J0D01*
G01*
X103629750Y-89312000D01*
G75*
G02*
X103411000Y-89093250I0J218750D01*
G01*
X103411000Y-88655750D01*
G75*
G02*
X103629750Y-88437000I218750J0D01*
G01*
G37*
%TD.AperFunction*%
%TD*%
%TO.P,C1,2*%
%TO.N,GND*%
%TA.AperFunction,SMDPad,CuDef*%
G36*
G01*
X120525250Y-88931000D02*
X120012750Y-88931000D01*
G75*
G02*
X119794000Y-88712250I0J218750D01*
G01*
X119794000Y-88274750D01*
G75*
G02*
X120012750Y-88056000I218750J0D01*
G01*
X120525250Y-88056000D01*
G75*
G02*
X120744000Y-88274750I0J-218750D01*
G01*
X120744000Y-88712250D01*
G75*
G02*
X120525250Y-88931000I-218750J0D01*
G01*
G37*
%TD.AperFunction*%
%TO.P,C1,1*%
%TO.N,+5V*%
%TA.AperFunction,SMDPad,CuDef*%
G36*
G01*
X120525250Y-90506000D02*
X120012750Y-90506000D01*
G75*
G02*
X119794000Y-90287250I0J218750D01*
G01*
X119794000Y-89849750D01*
G75*
G02*
X120012750Y-89631000I218750J0D01*
G01*
X120525250Y-89631000D01*
G75*
G02*
X120744000Y-89849750I0J-218750D01*
G01*
X120744000Y-90287250D01*
G75*
G02*
X120525250Y-90506000I-218750J0D01*
G01*
G37*
%TD.AperFunction*%
%TD*%
D19*
%TO.N,GND*%
X121475500Y-88519000D03*
X121539000Y-90043000D03*
X112776000Y-89535000D03*
X120523000Y-83756500D03*
X121412000Y-83756500D03*
X122237500Y-83756500D03*
X121475500Y-84645500D03*
X122301000Y-84645500D03*
X111887000Y-82740500D03*
X112712500Y-82740500D03*
X111887000Y-81089500D03*
X111887000Y-81851500D03*
X118554500Y-82042000D03*
%TO.N,+5V*%
X111315500Y-89598500D03*
X111325268Y-87972914D03*
X113855500Y-79184500D03*
X116459000Y-90424000D03*
X115189000Y-87122000D03*
X108267500Y-85217000D03*
X117919500Y-99822000D03*
X118808500Y-99822000D03*
X119697500Y-99822000D03*
X120523000Y-99885500D03*
%TO.N,Net-(R3-Pad1)*%
X115252500Y-79438500D03*
%TO.N,INT0*%
X114300000Y-88201500D03*
%TO.N,INT1*%
X113093500Y-87947500D03*
%TD*%
D20*
%TO.N,GND*%
X118423000Y-88055500D02*
X119869000Y-88055500D01*
X119869000Y-88055500D02*
X120269000Y-88455500D01*
X107817414Y-88392000D02*
X107569000Y-88392000D01*
X109923000Y-88855500D02*
X112096500Y-88855500D01*
X112096500Y-88855500D02*
X112776000Y-89535000D01*
X107397500Y-88855500D02*
X107378500Y-88836500D01*
X105576000Y-91016000D02*
X105576000Y-90512000D01*
X105576000Y-90512000D02*
X107251500Y-88836500D01*
X105576000Y-91016000D02*
X105576000Y-90956500D01*
X105576000Y-90956500D02*
X107315000Y-89217500D01*
X107315000Y-89217500D02*
X107315000Y-88900000D01*
X107315000Y-88900000D02*
X107251500Y-88836500D01*
X105576000Y-91016000D02*
X105576000Y-90766000D01*
X105576000Y-90766000D02*
X106870500Y-89471500D01*
%TO.N,+5V*%
X109923000Y-89655500D02*
X111258500Y-89655500D01*
X111258500Y-89655500D02*
X111315500Y-89598500D01*
X109923000Y-88055500D02*
X111242682Y-88055500D01*
X111242682Y-88055500D02*
X111325268Y-87972914D01*
X113855500Y-80810000D02*
X113855500Y-79184500D01*
X118423000Y-90455500D02*
X116490500Y-90455500D01*
X116490500Y-90455500D02*
X116459000Y-90424000D01*
X120269000Y-90068500D02*
X120269000Y-90106500D01*
X120269000Y-90106500D02*
X119888000Y-90487500D01*
X119888000Y-90487500D02*
X118554500Y-90487500D01*
%TO.N,Net-(D1-Pad2)*%
X121818500Y-86868000D02*
X121818500Y-87592000D01*
X121818500Y-87592000D02*
X122682000Y-88455500D01*
%TO.N,Net-(D2-Pad2)*%
X115443000Y-80810000D02*
X116611500Y-80810000D01*
X116611500Y-80810000D02*
X116967000Y-80454500D01*
X116967000Y-80454500D02*
X117030500Y-80454500D01*
%TO.N,~RST*%
X113855500Y-82385000D02*
X113855500Y-84201000D01*
X113855500Y-84201000D02*
X113792000Y-84264500D01*
X114547010Y-83076510D02*
X115842510Y-83076510D01*
X113855500Y-82385000D02*
X114547010Y-83076510D01*
X115842510Y-83076510D02*
X124605510Y-83076510D01*
X124605510Y-83076510D02*
X125031500Y-83502500D01*
%TO.N,Net-(R2-Pad1)*%
X118423000Y-86455500D02*
X119793000Y-86455500D01*
X119793000Y-86455500D02*
X120205500Y-86868000D01*
%TO.N,Net-(R3-Pad1)*%
X115443000Y-82385000D02*
X115278000Y-82385000D01*
X114713990Y-81820990D02*
X114713990Y-79977010D01*
X115278000Y-82385000D02*
X114713990Y-81820990D01*
X114713990Y-79977010D02*
X115252500Y-79438500D01*
%TO.N,INT0*%
X114300000Y-88201500D02*
X111379000Y-85280500D01*
X111379000Y-85280500D02*
X111379000Y-84137500D01*
X111252000Y-84201000D02*
X111315500Y-84264500D01*
%TO.N,SCK*%
X118423000Y-91255500D02*
X122855746Y-91255500D01*
X122855746Y-91255500D02*
X123698000Y-90413246D01*
X123698000Y-90413246D02*
X123698000Y-87439500D01*
X123698000Y-87439500D02*
X125031500Y-86106000D01*
%TO.N,MISO*%
X125095000Y-88582500D02*
X125031500Y-88582500D01*
X117793991Y-91884509D02*
X122765567Y-91884509D01*
X122765567Y-91884509D02*
X125095000Y-89555076D01*
X125095000Y-89555076D02*
X125095000Y-88582500D01*
X116973000Y-92705500D02*
X117793991Y-91884509D01*
%TO.N,MOSI*%
X117538500Y-94043500D02*
X116778798Y-94043500D01*
X125095000Y-91122500D02*
X123190000Y-93027500D01*
X118554500Y-93027500D02*
X117538500Y-94043500D01*
X123190000Y-93027500D02*
X118554500Y-93027500D01*
X116778798Y-94043500D02*
X116205000Y-93469702D01*
X116205000Y-93469702D02*
X116205000Y-92710000D01*
%TO.N,SS*%
X115373000Y-93592500D02*
X115373000Y-92705500D01*
X116395500Y-94615000D02*
X115373000Y-93592500D01*
X118110000Y-94615000D02*
X116395500Y-94615000D01*
X119062500Y-93662500D02*
X118110000Y-94615000D01*
X125095000Y-93662500D02*
X119062500Y-93662500D01*
%TO.N,PWM*%
X114573000Y-92705500D02*
X114573000Y-94253000D01*
X114573000Y-94253000D02*
X116649500Y-96329500D01*
X116649500Y-96329500D02*
X116649500Y-97536000D01*
%TO.N,DIR*%
X113601500Y-98044000D02*
X113601500Y-98107500D01*
X113601500Y-98107500D02*
X113665000Y-98171000D01*
X113773000Y-92705500D02*
X113773000Y-97199500D01*
X113773000Y-97199500D02*
X114109500Y-97536000D01*
%TO.N,BRAKE*%
X112973000Y-92705500D02*
X112973000Y-96259500D01*
X112973000Y-96259500D02*
X111633000Y-97599500D01*
%TO.N,/XTAL2*%
X109738500Y-91366000D02*
X109855000Y-91249500D01*
X107277000Y-91021000D02*
X107251500Y-90995500D01*
X107276000Y-91016000D02*
X107276000Y-92607500D01*
X107276000Y-92607500D02*
X107315000Y-92646500D01*
X107315000Y-92646500D02*
X107378500Y-92646500D01*
X109923000Y-91255500D02*
X107575000Y-91255500D01*
X107575000Y-91255500D02*
X107315000Y-90995500D01*
%TO.N,/XTAL1*%
X105283000Y-88580202D02*
X105283000Y-88455500D01*
X103886000Y-88874500D02*
X105435500Y-88874500D01*
X105435500Y-88874500D02*
X105473500Y-88836500D01*
X108869000Y-90455500D02*
X108458000Y-90044500D01*
X109923000Y-90455500D02*
X108869000Y-90455500D01*
X108458000Y-90044500D02*
X108458000Y-87757000D01*
X108458000Y-87757000D02*
X108204000Y-87503000D01*
X108204000Y-87503000D02*
X106045000Y-87503000D01*
X106045000Y-87503000D02*
X105600500Y-87947500D01*
X105600500Y-87947500D02*
X105600500Y-88709500D01*
%TO.N,INT1*%
X109923000Y-85655500D02*
X110801500Y-85655500D01*
X110801500Y-85655500D02*
X113093500Y-87947500D01*
%TO.N,+12V*%
X121704000Y-102743000D02*
X121704000Y-106019500D01*
X121704000Y-106019500D02*
X121729500Y-106045000D01*
X119071500Y-106039000D02*
X121545000Y-106039000D01*
X121545000Y-106039000D02*
X121602500Y-105981500D01*
D21*
X121704000Y-102743000D02*
X121704000Y-106007000D01*
X121704000Y-106007000D02*
X121666000Y-106045000D01*
X121704000Y-106045000D02*
X119062500Y-106045000D01*
X105219500Y-103049500D02*
X105219500Y-104140000D01*
X105219500Y-104140000D02*
X109347000Y-108267500D01*
X109347000Y-108267500D02*
X118300500Y-108267500D01*
X118300500Y-108267500D02*
X119126000Y-107442000D01*
X119126000Y-107442000D02*
X119126000Y-106045000D01*
X119070626Y-97599500D02*
X116967000Y-99703126D01*
X119189500Y-97599500D02*
X119070626Y-97599500D01*
X116967000Y-99703126D02*
X116967000Y-104140000D01*
X116967000Y-104140000D02*
X118999000Y-106172000D01*
D22*
X124001002Y-97599500D02*
X127317500Y-94283002D01*
X119189500Y-97599500D02*
X124001002Y-97599500D01*
X127317500Y-94283002D02*
X127317500Y-78041500D01*
X127317500Y-78041500D02*
X125095000Y-75819000D01*
%TD*%
D20*
%TO.N,GND*%
G36*
X116988833Y-68476285D02*
G01*
X118758645Y-68788351D01*
X120494524Y-69253479D01*
X122183260Y-69868128D01*
X123811998Y-70627621D01*
X125368345Y-71526178D01*
X126840455Y-72556961D01*
X128217124Y-73712124D01*
X129487876Y-74982876D01*
X130643039Y-76359545D01*
X131673822Y-77831655D01*
X132572379Y-79388002D01*
X133331872Y-81016740D01*
X133946521Y-82705476D01*
X134411649Y-84441355D01*
X134723715Y-86211167D01*
X134880343Y-88001443D01*
X134880343Y-89798557D01*
X134723715Y-91588833D01*
X134411649Y-93358645D01*
X133946521Y-95094524D01*
X133331872Y-96783260D01*
X133045485Y-97397420D01*
X133044736Y-97396019D01*
X132984652Y-97389264D01*
X132973990Y-97282169D01*
X132794103Y-96691408D01*
X132506118Y-96152627D01*
X132498665Y-96147703D01*
X132475637Y-96022098D01*
X132400456Y-95832590D01*
X132385726Y-95805029D01*
X132182431Y-95782174D01*
X130064605Y-97900000D01*
X130078748Y-97914143D01*
X129899143Y-98093748D01*
X129885000Y-98079605D01*
X127767174Y-100197431D01*
X127790029Y-100400726D01*
X127977194Y-100481567D01*
X128133681Y-100515146D01*
X128137627Y-100521118D01*
X128682557Y-100811649D01*
X129273696Y-100990287D01*
X129374313Y-101000090D01*
X129381019Y-101059736D01*
X129568184Y-101140577D01*
X129767523Y-101183351D01*
X129971377Y-101186413D01*
X130171912Y-101149647D01*
X130361420Y-101074466D01*
X130388981Y-101059736D01*
X130395736Y-100999652D01*
X130502831Y-100988990D01*
X131082820Y-100812383D01*
X130643039Y-101440455D01*
X129487876Y-102817124D01*
X128217124Y-104087876D01*
X126840455Y-105243039D01*
X125368345Y-106273822D01*
X124174176Y-106963275D01*
X124247037Y-106874494D01*
X124306002Y-106764180D01*
X124342312Y-106644482D01*
X124354572Y-106520000D01*
X124351500Y-106330750D01*
X124192750Y-106172000D01*
X123406000Y-106172000D01*
X123406000Y-106996250D01*
X123564750Y-107155000D01*
X123716500Y-107158072D01*
X123840982Y-107145812D01*
X123876869Y-107134926D01*
X123811998Y-107172379D01*
X122183260Y-107931872D01*
X120494524Y-108546521D01*
X118758645Y-109011649D01*
X116988833Y-109323715D01*
X115198557Y-109480343D01*
X113401443Y-109480343D01*
X111611167Y-109323715D01*
X109841355Y-109011649D01*
X109434006Y-108902500D01*
X118269319Y-108902500D01*
X118300500Y-108905571D01*
X118331681Y-108902500D01*
X118331692Y-108902500D01*
X118424982Y-108893312D01*
X118544680Y-108857002D01*
X118654994Y-108798037D01*
X118751685Y-108718685D01*
X118771574Y-108694450D01*
X119552956Y-107913069D01*
X119577185Y-107893185D01*
X119620388Y-107840542D01*
X119656537Y-107796495D01*
X119688357Y-107736963D01*
X119715502Y-107686180D01*
X119751812Y-107566482D01*
X119761000Y-107473192D01*
X119761000Y-107473182D01*
X119764071Y-107442001D01*
X119761000Y-107410820D01*
X119761000Y-107021843D01*
X120171500Y-107021843D01*
X120246189Y-107014487D01*
X120318008Y-106992701D01*
X120384196Y-106957322D01*
X120442211Y-106909711D01*
X120489822Y-106851696D01*
X120525201Y-106785508D01*
X120546987Y-106713689D01*
X120550305Y-106680000D01*
X121021583Y-106680000D01*
X121059860Y-106726640D01*
X121151023Y-106801456D01*
X121255030Y-106857049D01*
X121367885Y-106891284D01*
X121485250Y-106902843D01*
X121922750Y-106902843D01*
X122040115Y-106891284D01*
X122152970Y-106857049D01*
X122256977Y-106801456D01*
X122267366Y-106792930D01*
X122310963Y-106874494D01*
X122390315Y-106971185D01*
X122487006Y-107050537D01*
X122597320Y-107109502D01*
X122717018Y-107145812D01*
X122841500Y-107158072D01*
X122993250Y-107155000D01*
X123152000Y-106996250D01*
X123152000Y-106172000D01*
X123132000Y-106172000D01*
X123132000Y-105918000D01*
X123152000Y-105918000D01*
X123152000Y-104521000D01*
X123406000Y-104521000D01*
X123406000Y-105918000D01*
X124192750Y-105918000D01*
X124351500Y-105759250D01*
X124354572Y-105570000D01*
X124342312Y-105445518D01*
X124306002Y-105325820D01*
X124249172Y-105219500D01*
X124306002Y-105113180D01*
X124342312Y-104993482D01*
X124354572Y-104869000D01*
X124351500Y-104679750D01*
X124192750Y-104521000D01*
X123406000Y-104521000D01*
X123152000Y-104521000D01*
X123132000Y-104521000D01*
X123132000Y-104267000D01*
X123152000Y-104267000D01*
X123152000Y-102870000D01*
X123406000Y-102870000D01*
X123406000Y-104267000D01*
X124192750Y-104267000D01*
X124351500Y-104108250D01*
X124354572Y-103919000D01*
X124342312Y-103794518D01*
X124306002Y-103674820D01*
X124249172Y-103568500D01*
X124306002Y-103462180D01*
X124342312Y-103342482D01*
X124354572Y-103218000D01*
X124351500Y-103028750D01*
X124192750Y-102870000D01*
X123406000Y-102870000D01*
X123152000Y-102870000D01*
X123132000Y-102870000D01*
X123132000Y-102616000D01*
X123152000Y-102616000D01*
X123152000Y-101791750D01*
X123406000Y-101791750D01*
X123406000Y-102616000D01*
X124192750Y-102616000D01*
X124351500Y-102457250D01*
X124354572Y-102268000D01*
X124342312Y-102143518D01*
X124306002Y-102023820D01*
X124247037Y-101913506D01*
X124167685Y-101816815D01*
X124070994Y-101737463D01*
X123960680Y-101678498D01*
X123840982Y-101642188D01*
X123716500Y-101629928D01*
X123564750Y-101633000D01*
X123406000Y-101791750D01*
X123152000Y-101791750D01*
X122993250Y-101633000D01*
X122841500Y-101629928D01*
X122717018Y-101642188D01*
X122597320Y-101678498D01*
X122487006Y-101737463D01*
X122390315Y-101816815D01*
X122310963Y-101913506D01*
X122267366Y-101995070D01*
X122256977Y-101986544D01*
X122152970Y-101930951D01*
X122040115Y-101896716D01*
X121922750Y-101885157D01*
X121856159Y-101885157D01*
X122580335Y-101160981D01*
X122660820Y-101204002D01*
X122780518Y-101240312D01*
X122905000Y-101252572D01*
X123056750Y-101249500D01*
X123215500Y-101090750D01*
X123215500Y-100266500D01*
X123469500Y-100266500D01*
X123469500Y-101090750D01*
X123628250Y-101249500D01*
X123780000Y-101252572D01*
X123904482Y-101240312D01*
X124024180Y-101204002D01*
X124134494Y-101145037D01*
X124231185Y-101065685D01*
X124310537Y-100968994D01*
X124369502Y-100858680D01*
X124405812Y-100738982D01*
X124418072Y-100614500D01*
X124415000Y-100425250D01*
X124256250Y-100266500D01*
X123469500Y-100266500D01*
X123215500Y-100266500D01*
X123195500Y-100266500D01*
X123195500Y-100012500D01*
X123215500Y-100012500D01*
X123215500Y-99188250D01*
X123469500Y-99188250D01*
X123469500Y-100012500D01*
X124256250Y-100012500D01*
X124415000Y-99853750D01*
X124418072Y-99664500D01*
X124405812Y-99540018D01*
X124369502Y-99420320D01*
X124310537Y-99310006D01*
X124231185Y-99213315D01*
X124134494Y-99133963D01*
X124024180Y-99074998D01*
X123904482Y-99038688D01*
X123780000Y-99026428D01*
X123628250Y-99029500D01*
X123469500Y-99188250D01*
X123215500Y-99188250D01*
X123056750Y-99029500D01*
X122905000Y-99026428D01*
X122780518Y-99038688D01*
X122745401Y-99049341D01*
X122700802Y-99025502D01*
X122629329Y-99003821D01*
X122555000Y-98996500D01*
X118571651Y-98996500D01*
X118735808Y-98832343D01*
X120039500Y-98832343D01*
X120114189Y-98824987D01*
X120186008Y-98803201D01*
X120252196Y-98767822D01*
X120310211Y-98720211D01*
X120357822Y-98662196D01*
X120393201Y-98596008D01*
X120414987Y-98524189D01*
X120418502Y-98488500D01*
X123957342Y-98488500D01*
X124001002Y-98492800D01*
X124044662Y-98488500D01*
X124044669Y-98488500D01*
X124175276Y-98475636D01*
X124342853Y-98424803D01*
X124497293Y-98342253D01*
X124632661Y-98231159D01*
X124660501Y-98197236D01*
X124871360Y-97986377D01*
X126598587Y-97986377D01*
X126635353Y-98186912D01*
X126710534Y-98376420D01*
X126725264Y-98403981D01*
X126785348Y-98410736D01*
X126796010Y-98517831D01*
X126975897Y-99108592D01*
X127263882Y-99647373D01*
X127271335Y-99652297D01*
X127294363Y-99777902D01*
X127369544Y-99967410D01*
X127384274Y-99994971D01*
X127587569Y-100017826D01*
X129705395Y-97900000D01*
X127587569Y-95782174D01*
X127384274Y-95805029D01*
X127303433Y-95992194D01*
X127269854Y-96148681D01*
X127263882Y-96152627D01*
X126973351Y-96697557D01*
X126794713Y-97288696D01*
X126784910Y-97389313D01*
X126725264Y-97396019D01*
X126644423Y-97583184D01*
X126601649Y-97782523D01*
X126598587Y-97986377D01*
X124871360Y-97986377D01*
X127255168Y-95602569D01*
X127767174Y-95602569D01*
X129885000Y-97720395D01*
X132002826Y-95602569D01*
X131979971Y-95399274D01*
X131792806Y-95318433D01*
X131636319Y-95284854D01*
X131632373Y-95278882D01*
X131087443Y-94988351D01*
X130496304Y-94809713D01*
X130395687Y-94799910D01*
X130388981Y-94740264D01*
X130201816Y-94659423D01*
X130002477Y-94616649D01*
X129798623Y-94613587D01*
X129598088Y-94650353D01*
X129408580Y-94725534D01*
X129381019Y-94740264D01*
X129374264Y-94800348D01*
X129267169Y-94811010D01*
X128676408Y-94990897D01*
X128137627Y-95278882D01*
X128132703Y-95286335D01*
X128007098Y-95309363D01*
X127817590Y-95384544D01*
X127790029Y-95399274D01*
X127767174Y-95602569D01*
X127255168Y-95602569D01*
X127915243Y-94942495D01*
X127949159Y-94914661D01*
X128060253Y-94779293D01*
X128142803Y-94624853D01*
X128176000Y-94515415D01*
X128193636Y-94457278D01*
X128203947Y-94352585D01*
X128206500Y-94326669D01*
X128206500Y-94326663D01*
X128210800Y-94283003D01*
X128206500Y-94239343D01*
X128206500Y-78085160D01*
X128210800Y-78041500D01*
X128206500Y-77997840D01*
X128206500Y-77997833D01*
X128193636Y-77867226D01*
X128142803Y-77699649D01*
X128060253Y-77545209D01*
X127949159Y-77409841D01*
X127915242Y-77382006D01*
X126326000Y-75792765D01*
X126326000Y-75761257D01*
X126278693Y-75523431D01*
X126185898Y-75299403D01*
X126051180Y-75097783D01*
X125879717Y-74926320D01*
X125678097Y-74791602D01*
X125454069Y-74698807D01*
X125216243Y-74651500D01*
X124973757Y-74651500D01*
X124735931Y-74698807D01*
X124511903Y-74791602D01*
X124310283Y-74926320D01*
X124138820Y-75097783D01*
X124004102Y-75299403D01*
X123911307Y-75523431D01*
X123864000Y-75761257D01*
X123864000Y-76003743D01*
X123911307Y-76241569D01*
X124004102Y-76465597D01*
X124138820Y-76667217D01*
X124310283Y-76838680D01*
X124511903Y-76973398D01*
X124626168Y-77020728D01*
X124463748Y-77078343D01*
X124213645Y-77227322D01*
X123997412Y-77422231D01*
X123823359Y-77655580D01*
X123698175Y-77918401D01*
X123653524Y-78065610D01*
X123774845Y-78295500D01*
X124968000Y-78295500D01*
X124968000Y-78275500D01*
X125222000Y-78275500D01*
X125222000Y-78295500D01*
X125242000Y-78295500D01*
X125242000Y-78549500D01*
X125222000Y-78549500D01*
X125222000Y-80835500D01*
X125242000Y-80835500D01*
X125242000Y-81089500D01*
X125222000Y-81089500D01*
X125222000Y-81109500D01*
X124968000Y-81109500D01*
X124968000Y-81089500D01*
X123774845Y-81089500D01*
X123653524Y-81319390D01*
X123698175Y-81466599D01*
X123823359Y-81729420D01*
X123997412Y-81962769D01*
X124213645Y-82157678D01*
X124463748Y-82306657D01*
X124626168Y-82364272D01*
X124511903Y-82411602D01*
X124310283Y-82546320D01*
X124288093Y-82568510D01*
X118092289Y-82568510D01*
X118090500Y-82378250D01*
X117931750Y-82219500D01*
X117157500Y-82219500D01*
X117157500Y-82239500D01*
X116903500Y-82239500D01*
X116903500Y-82219500D01*
X116883500Y-82219500D01*
X116883500Y-81965500D01*
X116903500Y-81965500D01*
X116903500Y-81945500D01*
X117157500Y-81945500D01*
X117157500Y-81965500D01*
X117931750Y-81965500D01*
X118090500Y-81806750D01*
X118093572Y-81480000D01*
X118081312Y-81355518D01*
X118045002Y-81235820D01*
X117986037Y-81125506D01*
X117906685Y-81028815D01*
X117828754Y-80964859D01*
X117838343Y-80867500D01*
X117838343Y-80067500D01*
X117826904Y-79951354D01*
X117793025Y-79839672D01*
X117738010Y-79736745D01*
X117663971Y-79646529D01*
X117573755Y-79572490D01*
X117470828Y-79517475D01*
X117359146Y-79483596D01*
X117243000Y-79472157D01*
X116818000Y-79472157D01*
X116701854Y-79483596D01*
X116590172Y-79517475D01*
X116487245Y-79572490D01*
X116397029Y-79646529D01*
X116322990Y-79736745D01*
X116267975Y-79839672D01*
X116234096Y-79951354D01*
X116222657Y-80067500D01*
X116222657Y-80300429D01*
X116199456Y-80257023D01*
X116124640Y-80165860D01*
X116033477Y-80091044D01*
X115929470Y-80035451D01*
X115816615Y-80001216D01*
X115722776Y-79991974D01*
X115814790Y-79899960D01*
X115894012Y-79781395D01*
X115948581Y-79649654D01*
X115976400Y-79509798D01*
X115976400Y-79367202D01*
X115948581Y-79227346D01*
X115894012Y-79095605D01*
X115814790Y-78977040D01*
X115713960Y-78876210D01*
X115595395Y-78796988D01*
X115552910Y-78779390D01*
X123653524Y-78779390D01*
X123698175Y-78926599D01*
X123823359Y-79189420D01*
X123997412Y-79422769D01*
X124213645Y-79617678D01*
X124339255Y-79692500D01*
X124213645Y-79767322D01*
X123997412Y-79962231D01*
X123823359Y-80195580D01*
X123698175Y-80458401D01*
X123653524Y-80605610D01*
X123774845Y-80835500D01*
X124968000Y-80835500D01*
X124968000Y-78549500D01*
X123774845Y-78549500D01*
X123653524Y-78779390D01*
X115552910Y-78779390D01*
X115463654Y-78742419D01*
X115323798Y-78714600D01*
X115181202Y-78714600D01*
X115041346Y-78742419D01*
X114909605Y-78796988D01*
X114791040Y-78876210D01*
X114690210Y-78977040D01*
X114610988Y-79095605D01*
X114579400Y-79171865D01*
X114579400Y-79113202D01*
X114551581Y-78973346D01*
X114497012Y-78841605D01*
X114417790Y-78723040D01*
X114316960Y-78622210D01*
X114198395Y-78542988D01*
X114066654Y-78488419D01*
X113926798Y-78460600D01*
X113784202Y-78460600D01*
X113644346Y-78488419D01*
X113512605Y-78542988D01*
X113394040Y-78622210D01*
X113293210Y-78723040D01*
X113213988Y-78841605D01*
X113159419Y-78973346D01*
X113131600Y-79113202D01*
X113131600Y-79255798D01*
X113159419Y-79395654D01*
X113213988Y-79527395D01*
X113293210Y-79645960D01*
X113347501Y-79700251D01*
X113347500Y-80046959D01*
X113265023Y-80091044D01*
X113173860Y-80165860D01*
X113099044Y-80257023D01*
X113043451Y-80361030D01*
X113009216Y-80473885D01*
X112997657Y-80591250D01*
X112997657Y-81028750D01*
X113009216Y-81146115D01*
X113043451Y-81258970D01*
X113099044Y-81362977D01*
X113173860Y-81454140D01*
X113265023Y-81528956D01*
X113369030Y-81584549D01*
X113411723Y-81597500D01*
X113369030Y-81610451D01*
X113265023Y-81666044D01*
X113173860Y-81740860D01*
X113099044Y-81832023D01*
X113043451Y-81936030D01*
X113009216Y-82048885D01*
X112997657Y-82166250D01*
X112997657Y-82603750D01*
X113009216Y-82721115D01*
X113043451Y-82833970D01*
X113099044Y-82937977D01*
X113168540Y-83022657D01*
X112698000Y-83022657D01*
X112623311Y-83030013D01*
X112573000Y-83045275D01*
X112522689Y-83030013D01*
X112448000Y-83022657D01*
X111898000Y-83022657D01*
X111823311Y-83030013D01*
X111773000Y-83045275D01*
X111722689Y-83030013D01*
X111648000Y-83022657D01*
X111098000Y-83022657D01*
X111023311Y-83030013D01*
X110951492Y-83051799D01*
X110885304Y-83087178D01*
X110827289Y-83134789D01*
X110779678Y-83192804D01*
X110744299Y-83258992D01*
X110722513Y-83330811D01*
X110715157Y-83405500D01*
X110715157Y-84997657D01*
X109123000Y-84997657D01*
X109048311Y-85005013D01*
X108976492Y-85026799D01*
X108968589Y-85031023D01*
X108963581Y-85005846D01*
X108909012Y-84874105D01*
X108829790Y-84755540D01*
X108728960Y-84654710D01*
X108610395Y-84575488D01*
X108478654Y-84520919D01*
X108338798Y-84493100D01*
X108196202Y-84493100D01*
X108056346Y-84520919D01*
X107924605Y-84575488D01*
X107806040Y-84654710D01*
X107705210Y-84755540D01*
X107625988Y-84874105D01*
X107571419Y-85005846D01*
X107543600Y-85145702D01*
X107543600Y-85288298D01*
X107571419Y-85428154D01*
X107625988Y-85559895D01*
X107705210Y-85678460D01*
X107806040Y-85779290D01*
X107924605Y-85858512D01*
X108056346Y-85913081D01*
X108196202Y-85940900D01*
X108338798Y-85940900D01*
X108478654Y-85913081D01*
X108610395Y-85858512D01*
X108728960Y-85779290D01*
X108740157Y-85768093D01*
X108740157Y-85930500D01*
X108747513Y-86005189D01*
X108762775Y-86055500D01*
X108747513Y-86105811D01*
X108740157Y-86180500D01*
X108740157Y-86473379D01*
X108673990Y-86527150D01*
X108594174Y-86623459D01*
X108534680Y-86733488D01*
X108497794Y-86853010D01*
X108488000Y-86969750D01*
X108646748Y-87128498D01*
X108548432Y-87128498D01*
X108487595Y-87078571D01*
X108399343Y-87031399D01*
X108303585Y-87002351D01*
X108228947Y-86995000D01*
X108228944Y-86995000D01*
X108204000Y-86992543D01*
X108179056Y-86995000D01*
X106069944Y-86995000D01*
X106045000Y-86992543D01*
X106020056Y-86995000D01*
X106020053Y-86995000D01*
X105945415Y-87002351D01*
X105849657Y-87031399D01*
X105817061Y-87048822D01*
X105761404Y-87078571D01*
X105710435Y-87120400D01*
X105684052Y-87142052D01*
X105668149Y-87161430D01*
X105258934Y-87570645D01*
X105239552Y-87586552D01*
X105176071Y-87663905D01*
X105139055Y-87733157D01*
X104976000Y-87733157D01*
X104901311Y-87740513D01*
X104829492Y-87762299D01*
X104763304Y-87797678D01*
X104705289Y-87845289D01*
X104657678Y-87903304D01*
X104622299Y-87969492D01*
X104600513Y-88041311D01*
X104593157Y-88116000D01*
X104593157Y-88261452D01*
X104567640Y-88230360D01*
X104476477Y-88155544D01*
X104372470Y-88099951D01*
X104259615Y-88065716D01*
X104142250Y-88054157D01*
X103629750Y-88054157D01*
X103512385Y-88065716D01*
X103399530Y-88099951D01*
X103295523Y-88155544D01*
X103204360Y-88230360D01*
X103129544Y-88321523D01*
X103073951Y-88425530D01*
X103039716Y-88538385D01*
X103028157Y-88655750D01*
X103028157Y-89093250D01*
X103039716Y-89210615D01*
X103073951Y-89323470D01*
X103129544Y-89427477D01*
X103138070Y-89437866D01*
X103056506Y-89481463D01*
X102959815Y-89560815D01*
X102880463Y-89657506D01*
X102821498Y-89767820D01*
X102785188Y-89887518D01*
X102772928Y-90012000D01*
X102776000Y-90163750D01*
X102934750Y-90322500D01*
X103759000Y-90322500D01*
X103759000Y-90302500D01*
X104013000Y-90302500D01*
X104013000Y-90322500D01*
X104033000Y-90322500D01*
X104033000Y-90576500D01*
X104013000Y-90576500D01*
X104013000Y-91363250D01*
X104171750Y-91522000D01*
X104339346Y-91524721D01*
X104337928Y-91716000D01*
X104350188Y-91840482D01*
X104386498Y-91960180D01*
X104445463Y-92070494D01*
X104524815Y-92167185D01*
X104621506Y-92246537D01*
X104631044Y-92251635D01*
X104626428Y-92298500D01*
X104629500Y-92487750D01*
X104788250Y-92646500D01*
X105575000Y-92646500D01*
X105575000Y-91822250D01*
X105449000Y-91696250D01*
X105449000Y-91143000D01*
X105429000Y-91143000D01*
X105429000Y-90889000D01*
X105449000Y-90889000D01*
X105449000Y-90869000D01*
X105703000Y-90869000D01*
X105703000Y-90889000D01*
X105723000Y-90889000D01*
X105723000Y-91143000D01*
X105703000Y-91143000D01*
X105703000Y-92192250D01*
X105829000Y-92318250D01*
X105829000Y-92646500D01*
X105849000Y-92646500D01*
X105849000Y-92900500D01*
X105829000Y-92900500D01*
X105829000Y-93724750D01*
X105987750Y-93883500D01*
X106139500Y-93886572D01*
X106263982Y-93874312D01*
X106383680Y-93838002D01*
X106493994Y-93779037D01*
X106590685Y-93699685D01*
X106670037Y-93602994D01*
X106713634Y-93521430D01*
X106724023Y-93529956D01*
X106828030Y-93585549D01*
X106940885Y-93619784D01*
X107058250Y-93631343D01*
X107495750Y-93631343D01*
X107613115Y-93619784D01*
X107725970Y-93585549D01*
X107829977Y-93529956D01*
X107921140Y-93455140D01*
X107995956Y-93363977D01*
X108051549Y-93259970D01*
X108085784Y-93147115D01*
X108097343Y-93029750D01*
X108097343Y-92517250D01*
X108085784Y-92399885D01*
X108051549Y-92287030D01*
X107995956Y-92183023D01*
X107923067Y-92094207D01*
X107950689Y-92091487D01*
X108022508Y-92069701D01*
X108088696Y-92034322D01*
X108146711Y-91986711D01*
X108194322Y-91928696D01*
X108229701Y-91862508D01*
X108251487Y-91790689D01*
X108254165Y-91763500D01*
X108821341Y-91763500D01*
X108852289Y-91801211D01*
X108910304Y-91848822D01*
X108976492Y-91884201D01*
X109048311Y-91905987D01*
X109123000Y-91913343D01*
X110715157Y-91913343D01*
X110715157Y-93505500D01*
X110722513Y-93580189D01*
X110744299Y-93652008D01*
X110779678Y-93718196D01*
X110827289Y-93776211D01*
X110885304Y-93823822D01*
X110951492Y-93859201D01*
X111023311Y-93880987D01*
X111098000Y-93888343D01*
X111648000Y-93888343D01*
X111722689Y-93880987D01*
X111773000Y-93865725D01*
X111823311Y-93880987D01*
X111898000Y-93888343D01*
X112448000Y-93888343D01*
X112465000Y-93886669D01*
X112465001Y-96049078D01*
X112048568Y-96465512D01*
X111928569Y-96415807D01*
X111690743Y-96368500D01*
X111448257Y-96368500D01*
X111210431Y-96415807D01*
X110986403Y-96508602D01*
X110784783Y-96643320D01*
X110613320Y-96814783D01*
X110478602Y-97016403D01*
X110431272Y-97130668D01*
X110373657Y-96968248D01*
X110224678Y-96718145D01*
X110029769Y-96501912D01*
X109796420Y-96327859D01*
X109533599Y-96202675D01*
X109386390Y-96158024D01*
X109156500Y-96279345D01*
X109156500Y-97472500D01*
X109176500Y-97472500D01*
X109176500Y-97726500D01*
X109156500Y-97726500D01*
X109156500Y-98919655D01*
X109386390Y-99040976D01*
X109533599Y-98996325D01*
X109796420Y-98871141D01*
X110029769Y-98697088D01*
X110224678Y-98480855D01*
X110373657Y-98230752D01*
X110431272Y-98068332D01*
X110478602Y-98182597D01*
X110613320Y-98384217D01*
X110784783Y-98555680D01*
X110986403Y-98690398D01*
X111210431Y-98783193D01*
X111448257Y-98830500D01*
X111690743Y-98830500D01*
X111928569Y-98783193D01*
X112152597Y-98690398D01*
X112354217Y-98555680D01*
X112525680Y-98384217D01*
X112660398Y-98182597D01*
X112753193Y-97958569D01*
X112800500Y-97720743D01*
X112800500Y-97478257D01*
X112753193Y-97240431D01*
X112740685Y-97210235D01*
X113265001Y-96685920D01*
X113265001Y-96703102D01*
X113153320Y-96814783D01*
X113018602Y-97016403D01*
X112925807Y-97240431D01*
X112878500Y-97478257D01*
X112878500Y-97720743D01*
X112925807Y-97958569D01*
X113018602Y-98182597D01*
X113153320Y-98384217D01*
X113324783Y-98555680D01*
X113368850Y-98585125D01*
X113381406Y-98595429D01*
X113395731Y-98603086D01*
X113526403Y-98690398D01*
X113750431Y-98783193D01*
X113988257Y-98830500D01*
X114230743Y-98830500D01*
X114468569Y-98783193D01*
X114692597Y-98690398D01*
X114894217Y-98555680D01*
X115065680Y-98384217D01*
X115200398Y-98182597D01*
X115293193Y-97958569D01*
X115340500Y-97720743D01*
X115340500Y-97478257D01*
X115293193Y-97240431D01*
X115200398Y-97016403D01*
X115065680Y-96814783D01*
X114894217Y-96643320D01*
X114692597Y-96508602D01*
X114468569Y-96415807D01*
X114281000Y-96378497D01*
X114281000Y-94679420D01*
X116097359Y-96495780D01*
X116066403Y-96508602D01*
X115864783Y-96643320D01*
X115693320Y-96814783D01*
X115558602Y-97016403D01*
X115465807Y-97240431D01*
X115418500Y-97478257D01*
X115418500Y-97720743D01*
X115465807Y-97958569D01*
X115558602Y-98182597D01*
X115693320Y-98384217D01*
X115864783Y-98555680D01*
X116066403Y-98690398D01*
X116290431Y-98783193D01*
X116528257Y-98830500D01*
X116770743Y-98830500D01*
X116984027Y-98788075D01*
X116540050Y-99232052D01*
X116515815Y-99251941D01*
X116436463Y-99348633D01*
X116377498Y-99458947D01*
X116341188Y-99578645D01*
X116332000Y-99671935D01*
X116332000Y-99671945D01*
X116328929Y-99703126D01*
X116332000Y-99734307D01*
X116332000Y-100333392D01*
X116325994Y-100328463D01*
X116215680Y-100269498D01*
X116095982Y-100233188D01*
X115971500Y-100220928D01*
X113057250Y-100224000D01*
X112898500Y-100382750D01*
X112898500Y-103632000D01*
X112918500Y-103632000D01*
X112918500Y-103886000D01*
X112898500Y-103886000D01*
X112898500Y-107135250D01*
X113057250Y-107294000D01*
X115971500Y-107297072D01*
X116095982Y-107284812D01*
X116215680Y-107248502D01*
X116325994Y-107189537D01*
X116422685Y-107110185D01*
X116502037Y-107013494D01*
X116561002Y-106903180D01*
X116597312Y-106783482D01*
X116609572Y-106659000D01*
X116607244Y-104678268D01*
X117588657Y-105659682D01*
X117588657Y-106639000D01*
X117596013Y-106713689D01*
X117617799Y-106785508D01*
X117653178Y-106851696D01*
X117700789Y-106909711D01*
X117758804Y-106957322D01*
X117824992Y-106992701D01*
X117896811Y-107014487D01*
X117971500Y-107021843D01*
X118491000Y-107021843D01*
X118491000Y-107178975D01*
X118037476Y-107632500D01*
X109610026Y-107632500D01*
X108636526Y-106659000D01*
X108933428Y-106659000D01*
X108945688Y-106783482D01*
X108981998Y-106903180D01*
X109040963Y-107013494D01*
X109120315Y-107110185D01*
X109217006Y-107189537D01*
X109327320Y-107248502D01*
X109447018Y-107284812D01*
X109571500Y-107297072D01*
X112485750Y-107294000D01*
X112644500Y-107135250D01*
X112644500Y-103886000D01*
X109095250Y-103886000D01*
X108936500Y-104044750D01*
X108933428Y-106659000D01*
X108636526Y-106659000D01*
X106258489Y-104280965D01*
X106367962Y-104270183D01*
X106486679Y-104234171D01*
X106596089Y-104175690D01*
X106691988Y-104096988D01*
X106770690Y-104001089D01*
X106829171Y-103891679D01*
X106865183Y-103772962D01*
X106877343Y-103649500D01*
X106877343Y-102449500D01*
X106865183Y-102326038D01*
X106829171Y-102207321D01*
X106770690Y-102097911D01*
X106691988Y-102002012D01*
X106596089Y-101923310D01*
X106486679Y-101864829D01*
X106367962Y-101828817D01*
X106244500Y-101816657D01*
X104194500Y-101816657D01*
X104071038Y-101828817D01*
X103952321Y-101864829D01*
X103842911Y-101923310D01*
X103747012Y-102002012D01*
X103668310Y-102097911D01*
X103609829Y-102207321D01*
X103573817Y-102326038D01*
X103561657Y-102449500D01*
X103561657Y-103649500D01*
X103573817Y-103772962D01*
X103609829Y-103891679D01*
X103668310Y-104001089D01*
X103747012Y-104096988D01*
X103842911Y-104175690D01*
X103952321Y-104234171D01*
X104071038Y-104270183D01*
X104194500Y-104282343D01*
X104599107Y-104282343D01*
X104629998Y-104384179D01*
X104629999Y-104384180D01*
X104688964Y-104494494D01*
X104768316Y-104591185D01*
X104792546Y-104611070D01*
X108875935Y-108694461D01*
X108895815Y-108718685D01*
X108920039Y-108738565D01*
X108920042Y-108738568D01*
X108967471Y-108777492D01*
X108105476Y-108546521D01*
X106416740Y-107931872D01*
X104788002Y-107172379D01*
X103231655Y-106273822D01*
X101759545Y-105243039D01*
X100382876Y-104087876D01*
X99112124Y-102817124D01*
X97956961Y-101440455D01*
X97599359Y-100929747D01*
X97799696Y-100990287D01*
X97900313Y-101000090D01*
X97907019Y-101059736D01*
X98094184Y-101140577D01*
X98293523Y-101183351D01*
X98497377Y-101186413D01*
X98697912Y-101149647D01*
X98887420Y-101074466D01*
X98914981Y-101059736D01*
X98921736Y-100999652D01*
X99028831Y-100988990D01*
X99455726Y-100859000D01*
X108933428Y-100859000D01*
X108936500Y-103473250D01*
X109095250Y-103632000D01*
X112644500Y-103632000D01*
X112644500Y-100382750D01*
X112485750Y-100224000D01*
X109571500Y-100220928D01*
X109447018Y-100233188D01*
X109327320Y-100269498D01*
X109217006Y-100328463D01*
X109120315Y-100407815D01*
X109040963Y-100504506D01*
X108981998Y-100614820D01*
X108945688Y-100734518D01*
X108933428Y-100859000D01*
X99455726Y-100859000D01*
X99619592Y-100809103D01*
X100158373Y-100521118D01*
X100163297Y-100513665D01*
X100288902Y-100490637D01*
X100478410Y-100415456D01*
X100505971Y-100400726D01*
X100528826Y-100197431D01*
X98411000Y-98079605D01*
X98396858Y-98093748D01*
X98217253Y-97914143D01*
X98231395Y-97900000D01*
X98590605Y-97900000D01*
X100708431Y-100017826D01*
X100911726Y-99994971D01*
X100992567Y-99807806D01*
X101026146Y-99651319D01*
X101032118Y-99647373D01*
X101190929Y-99349500D01*
X103306428Y-99349500D01*
X103318688Y-99473982D01*
X103354998Y-99593680D01*
X103413963Y-99703994D01*
X103493315Y-99800685D01*
X103590006Y-99880037D01*
X103700320Y-99939002D01*
X103820018Y-99975312D01*
X103944500Y-99987572D01*
X104933750Y-99984500D01*
X105092500Y-99825750D01*
X105092500Y-98626500D01*
X105346500Y-98626500D01*
X105346500Y-99825750D01*
X105505250Y-99984500D01*
X106494500Y-99987572D01*
X106618982Y-99975312D01*
X106738680Y-99939002D01*
X106848994Y-99880037D01*
X106945685Y-99800685D01*
X107025037Y-99703994D01*
X107084002Y-99593680D01*
X107120312Y-99473982D01*
X107132572Y-99349500D01*
X107129500Y-98785250D01*
X106970750Y-98626500D01*
X105346500Y-98626500D01*
X105092500Y-98626500D01*
X103468250Y-98626500D01*
X103309500Y-98785250D01*
X103306428Y-99349500D01*
X101190929Y-99349500D01*
X101322649Y-99102443D01*
X101501287Y-98511304D01*
X101511090Y-98410687D01*
X101570736Y-98403981D01*
X101651577Y-98216816D01*
X101694351Y-98017477D01*
X101697413Y-97813623D01*
X101667323Y-97649500D01*
X103306428Y-97649500D01*
X103309500Y-98213750D01*
X103468250Y-98372500D01*
X105092500Y-98372500D01*
X105092500Y-97173250D01*
X105346500Y-97173250D01*
X105346500Y-98372500D01*
X106970750Y-98372500D01*
X107129500Y-98213750D01*
X107130901Y-97956391D01*
X107588019Y-97956391D01*
X107685343Y-98230752D01*
X107834322Y-98480855D01*
X108029231Y-98697088D01*
X108262580Y-98871141D01*
X108525401Y-98996325D01*
X108672610Y-99040976D01*
X108902500Y-98919655D01*
X108902500Y-97726500D01*
X107708686Y-97726500D01*
X107588019Y-97956391D01*
X107130901Y-97956391D01*
X107132572Y-97649500D01*
X107120312Y-97525018D01*
X107084002Y-97405320D01*
X107025037Y-97295006D01*
X106982037Y-97242609D01*
X107588019Y-97242609D01*
X107708686Y-97472500D01*
X108902500Y-97472500D01*
X108902500Y-96279345D01*
X108672610Y-96158024D01*
X108525401Y-96202675D01*
X108262580Y-96327859D01*
X108029231Y-96501912D01*
X107834322Y-96718145D01*
X107685343Y-96968248D01*
X107588019Y-97242609D01*
X106982037Y-97242609D01*
X106945685Y-97198315D01*
X106848994Y-97118963D01*
X106738680Y-97059998D01*
X106618982Y-97023688D01*
X106494500Y-97011428D01*
X105505250Y-97014500D01*
X105346500Y-97173250D01*
X105092500Y-97173250D01*
X104933750Y-97014500D01*
X103944500Y-97011428D01*
X103820018Y-97023688D01*
X103700320Y-97059998D01*
X103590006Y-97118963D01*
X103493315Y-97198315D01*
X103413963Y-97295006D01*
X103354998Y-97405320D01*
X103318688Y-97525018D01*
X103306428Y-97649500D01*
X101667323Y-97649500D01*
X101660647Y-97613088D01*
X101585466Y-97423580D01*
X101570736Y-97396019D01*
X101510652Y-97389264D01*
X101499990Y-97282169D01*
X101320103Y-96691408D01*
X101032118Y-96152627D01*
X101024665Y-96147703D01*
X101001637Y-96022098D01*
X100926456Y-95832590D01*
X100911726Y-95805029D01*
X100708431Y-95782174D01*
X98590605Y-97900000D01*
X98231395Y-97900000D01*
X96113569Y-95782174D01*
X95910274Y-95805029D01*
X95829433Y-95992194D01*
X95795854Y-96148681D01*
X95789882Y-96152627D01*
X95499351Y-96697557D01*
X95392714Y-97050435D01*
X95268128Y-96783260D01*
X94838393Y-95602569D01*
X96293174Y-95602569D01*
X98411000Y-97720395D01*
X100528826Y-95602569D01*
X100505971Y-95399274D01*
X100318806Y-95318433D01*
X100162319Y-95284854D01*
X100158373Y-95278882D01*
X99613443Y-94988351D01*
X99022304Y-94809713D01*
X98921687Y-94799910D01*
X98914981Y-94740264D01*
X98727816Y-94659423D01*
X98528477Y-94616649D01*
X98324623Y-94613587D01*
X98124088Y-94650353D01*
X97934580Y-94725534D01*
X97907019Y-94740264D01*
X97900264Y-94800348D01*
X97793169Y-94811010D01*
X97202408Y-94990897D01*
X96663627Y-95278882D01*
X96658703Y-95286335D01*
X96533098Y-95309363D01*
X96343590Y-95384544D01*
X96316029Y-95399274D01*
X96293174Y-95602569D01*
X94838393Y-95602569D01*
X94653479Y-95094524D01*
X94188351Y-93358645D01*
X94168930Y-93248500D01*
X104626428Y-93248500D01*
X104638688Y-93372982D01*
X104674998Y-93492680D01*
X104733963Y-93602994D01*
X104813315Y-93699685D01*
X104910006Y-93779037D01*
X105020320Y-93838002D01*
X105140018Y-93874312D01*
X105264500Y-93886572D01*
X105416250Y-93883500D01*
X105575000Y-93724750D01*
X105575000Y-92900500D01*
X104788250Y-92900500D01*
X104629500Y-93059250D01*
X104626428Y-93248500D01*
X94168930Y-93248500D01*
X93876285Y-91588833D01*
X93814883Y-90887000D01*
X102772928Y-90887000D01*
X102785188Y-91011482D01*
X102821498Y-91131180D01*
X102880463Y-91241494D01*
X102959815Y-91338185D01*
X103056506Y-91417537D01*
X103166820Y-91476502D01*
X103286518Y-91512812D01*
X103411000Y-91525072D01*
X103600250Y-91522000D01*
X103759000Y-91363250D01*
X103759000Y-90576500D01*
X102934750Y-90576500D01*
X102776000Y-90735250D01*
X102772928Y-90887000D01*
X93814883Y-90887000D01*
X93719657Y-89798557D01*
X93719657Y-88001443D01*
X93876285Y-86211167D01*
X94188351Y-84441355D01*
X94653479Y-82705476D01*
X95268128Y-81016740D01*
X96027621Y-79388002D01*
X96926178Y-77831655D01*
X97956961Y-76359545D01*
X99112124Y-74982876D01*
X100382876Y-73712124D01*
X100996262Y-73197431D01*
X112182174Y-73197431D01*
X112205029Y-73400726D01*
X112392194Y-73481567D01*
X112548681Y-73515146D01*
X112552627Y-73521118D01*
X113097557Y-73811649D01*
X113688696Y-73990287D01*
X113789313Y-74000090D01*
X113796019Y-74059736D01*
X113983184Y-74140577D01*
X114182523Y-74183351D01*
X114386377Y-74186413D01*
X114586912Y-74149647D01*
X114776420Y-74074466D01*
X114803981Y-74059736D01*
X114810736Y-73999652D01*
X114917831Y-73988990D01*
X115508592Y-73809103D01*
X116047373Y-73521118D01*
X116052297Y-73513665D01*
X116177902Y-73490637D01*
X116367410Y-73415456D01*
X116394971Y-73400726D01*
X116417826Y-73197431D01*
X114300000Y-71079605D01*
X112182174Y-73197431D01*
X100996262Y-73197431D01*
X101759545Y-72556961D01*
X103231655Y-71526178D01*
X104166618Y-70986377D01*
X111013587Y-70986377D01*
X111050353Y-71186912D01*
X111125534Y-71376420D01*
X111140264Y-71403981D01*
X111200348Y-71410736D01*
X111211010Y-71517831D01*
X111390897Y-72108592D01*
X111678882Y-72647373D01*
X111686335Y-72652297D01*
X111709363Y-72777902D01*
X111784544Y-72967410D01*
X111799274Y-72994971D01*
X112002569Y-73017826D01*
X114120395Y-70900000D01*
X114479605Y-70900000D01*
X116597431Y-73017826D01*
X116800726Y-72994971D01*
X116881567Y-72807806D01*
X116915146Y-72651319D01*
X116921118Y-72647373D01*
X117211649Y-72102443D01*
X117390287Y-71511304D01*
X117400090Y-71410687D01*
X117459736Y-71403981D01*
X117540577Y-71216816D01*
X117583351Y-71017477D01*
X117586413Y-70813623D01*
X117549647Y-70613088D01*
X117474466Y-70423580D01*
X117459736Y-70396019D01*
X117399652Y-70389264D01*
X117388990Y-70282169D01*
X117209103Y-69691408D01*
X116921118Y-69152627D01*
X116913665Y-69147703D01*
X116890637Y-69022098D01*
X116815456Y-68832590D01*
X116800726Y-68805029D01*
X116597431Y-68782174D01*
X114479605Y-70900000D01*
X114120395Y-70900000D01*
X112002569Y-68782174D01*
X111799274Y-68805029D01*
X111718433Y-68992194D01*
X111684854Y-69148681D01*
X111678882Y-69152627D01*
X111388351Y-69697557D01*
X111209713Y-70288696D01*
X111199910Y-70389313D01*
X111140264Y-70396019D01*
X111059423Y-70583184D01*
X111016649Y-70782523D01*
X111013587Y-70986377D01*
X104166618Y-70986377D01*
X104788002Y-70627621D01*
X106416740Y-69868128D01*
X108105476Y-69253479D01*
X109841355Y-68788351D01*
X111611167Y-68476285D01*
X112202184Y-68424578D01*
X112182174Y-68602569D01*
X114300000Y-70720395D01*
X116417826Y-68602569D01*
X116397816Y-68424578D01*
X116988833Y-68476285D01*
G37*
X116988833Y-68476285D02*
X118758645Y-68788351D01*
X120494524Y-69253479D01*
X122183260Y-69868128D01*
X123811998Y-70627621D01*
X125368345Y-71526178D01*
X126840455Y-72556961D01*
X128217124Y-73712124D01*
X129487876Y-74982876D01*
X130643039Y-76359545D01*
X131673822Y-77831655D01*
X132572379Y-79388002D01*
X133331872Y-81016740D01*
X133946521Y-82705476D01*
X134411649Y-84441355D01*
X134723715Y-86211167D01*
X134880343Y-88001443D01*
X134880343Y-89798557D01*
X134723715Y-91588833D01*
X134411649Y-93358645D01*
X133946521Y-95094524D01*
X133331872Y-96783260D01*
X133045485Y-97397420D01*
X133044736Y-97396019D01*
X132984652Y-97389264D01*
X132973990Y-97282169D01*
X132794103Y-96691408D01*
X132506118Y-96152627D01*
X132498665Y-96147703D01*
X132475637Y-96022098D01*
X132400456Y-95832590D01*
X132385726Y-95805029D01*
X132182431Y-95782174D01*
X130064605Y-97900000D01*
X130078748Y-97914143D01*
X129899143Y-98093748D01*
X129885000Y-98079605D01*
X127767174Y-100197431D01*
X127790029Y-100400726D01*
X127977194Y-100481567D01*
X128133681Y-100515146D01*
X128137627Y-100521118D01*
X128682557Y-100811649D01*
X129273696Y-100990287D01*
X129374313Y-101000090D01*
X129381019Y-101059736D01*
X129568184Y-101140577D01*
X129767523Y-101183351D01*
X129971377Y-101186413D01*
X130171912Y-101149647D01*
X130361420Y-101074466D01*
X130388981Y-101059736D01*
X130395736Y-100999652D01*
X130502831Y-100988990D01*
X131082820Y-100812383D01*
X130643039Y-101440455D01*
X129487876Y-102817124D01*
X128217124Y-104087876D01*
X126840455Y-105243039D01*
X125368345Y-106273822D01*
X124174176Y-106963275D01*
X124247037Y-106874494D01*
X124306002Y-106764180D01*
X124342312Y-106644482D01*
X124354572Y-106520000D01*
X124351500Y-106330750D01*
X124192750Y-106172000D01*
X123406000Y-106172000D01*
X123406000Y-106996250D01*
X123564750Y-107155000D01*
X123716500Y-107158072D01*
X123840982Y-107145812D01*
X123876869Y-107134926D01*
X123811998Y-107172379D01*
X122183260Y-107931872D01*
X120494524Y-108546521D01*
X118758645Y-109011649D01*
X116988833Y-109323715D01*
X115198557Y-109480343D01*
X113401443Y-109480343D01*
X111611167Y-109323715D01*
X109841355Y-109011649D01*
X109434006Y-108902500D01*
X118269319Y-108902500D01*
X118300500Y-108905571D01*
X118331681Y-108902500D01*
X118331692Y-108902500D01*
X118424982Y-108893312D01*
X118544680Y-108857002D01*
X118654994Y-108798037D01*
X118751685Y-108718685D01*
X118771574Y-108694450D01*
X119552956Y-107913069D01*
X119577185Y-107893185D01*
X119620388Y-107840542D01*
X119656537Y-107796495D01*
X119688357Y-107736963D01*
X119715502Y-107686180D01*
X119751812Y-107566482D01*
X119761000Y-107473192D01*
X119761000Y-107473182D01*
X119764071Y-107442001D01*
X119761000Y-107410820D01*
X119761000Y-107021843D01*
X120171500Y-107021843D01*
X120246189Y-107014487D01*
X120318008Y-106992701D01*
X120384196Y-106957322D01*
X120442211Y-106909711D01*
X120489822Y-106851696D01*
X120525201Y-106785508D01*
X120546987Y-106713689D01*
X120550305Y-106680000D01*
X121021583Y-106680000D01*
X121059860Y-106726640D01*
X121151023Y-106801456D01*
X121255030Y-106857049D01*
X121367885Y-106891284D01*
X121485250Y-106902843D01*
X121922750Y-106902843D01*
X122040115Y-106891284D01*
X122152970Y-106857049D01*
X122256977Y-106801456D01*
X122267366Y-106792930D01*
X122310963Y-106874494D01*
X122390315Y-106971185D01*
X122487006Y-107050537D01*
X122597320Y-107109502D01*
X122717018Y-107145812D01*
X122841500Y-107158072D01*
X122993250Y-107155000D01*
X123152000Y-106996250D01*
X123152000Y-106172000D01*
X123132000Y-106172000D01*
X123132000Y-105918000D01*
X123152000Y-105918000D01*
X123152000Y-104521000D01*
X123406000Y-104521000D01*
X123406000Y-105918000D01*
X124192750Y-105918000D01*
X124351500Y-105759250D01*
X124354572Y-105570000D01*
X124342312Y-105445518D01*
X124306002Y-105325820D01*
X124249172Y-105219500D01*
X124306002Y-105113180D01*
X124342312Y-104993482D01*
X124354572Y-104869000D01*
X124351500Y-104679750D01*
X124192750Y-104521000D01*
X123406000Y-104521000D01*
X123152000Y-104521000D01*
X123132000Y-104521000D01*
X123132000Y-104267000D01*
X123152000Y-104267000D01*
X123152000Y-102870000D01*
X123406000Y-102870000D01*
X123406000Y-104267000D01*
X124192750Y-104267000D01*
X124351500Y-104108250D01*
X124354572Y-103919000D01*
X124342312Y-103794518D01*
X124306002Y-103674820D01*
X124249172Y-103568500D01*
X124306002Y-103462180D01*
X124342312Y-103342482D01*
X124354572Y-103218000D01*
X124351500Y-103028750D01*
X124192750Y-102870000D01*
X123406000Y-102870000D01*
X123152000Y-102870000D01*
X123132000Y-102870000D01*
X123132000Y-102616000D01*
X123152000Y-102616000D01*
X123152000Y-101791750D01*
X123406000Y-101791750D01*
X123406000Y-102616000D01*
X124192750Y-102616000D01*
X124351500Y-102457250D01*
X124354572Y-102268000D01*
X124342312Y-102143518D01*
X124306002Y-102023820D01*
X124247037Y-101913506D01*
X124167685Y-101816815D01*
X124070994Y-101737463D01*
X123960680Y-101678498D01*
X123840982Y-101642188D01*
X123716500Y-101629928D01*
X123564750Y-101633000D01*
X123406000Y-101791750D01*
X123152000Y-101791750D01*
X122993250Y-101633000D01*
X122841500Y-101629928D01*
X122717018Y-101642188D01*
X122597320Y-101678498D01*
X122487006Y-101737463D01*
X122390315Y-101816815D01*
X122310963Y-101913506D01*
X122267366Y-101995070D01*
X122256977Y-101986544D01*
X122152970Y-101930951D01*
X122040115Y-101896716D01*
X121922750Y-101885157D01*
X121856159Y-101885157D01*
X122580335Y-101160981D01*
X122660820Y-101204002D01*
X122780518Y-101240312D01*
X122905000Y-101252572D01*
X123056750Y-101249500D01*
X123215500Y-101090750D01*
X123215500Y-100266500D01*
X123469500Y-100266500D01*
X123469500Y-101090750D01*
X123628250Y-101249500D01*
X123780000Y-101252572D01*
X123904482Y-101240312D01*
X124024180Y-101204002D01*
X124134494Y-101145037D01*
X124231185Y-101065685D01*
X124310537Y-100968994D01*
X124369502Y-100858680D01*
X124405812Y-100738982D01*
X124418072Y-100614500D01*
X124415000Y-100425250D01*
X124256250Y-100266500D01*
X123469500Y-100266500D01*
X123215500Y-100266500D01*
X123195500Y-100266500D01*
X123195500Y-100012500D01*
X123215500Y-100012500D01*
X123215500Y-99188250D01*
X123469500Y-99188250D01*
X123469500Y-100012500D01*
X124256250Y-100012500D01*
X124415000Y-99853750D01*
X124418072Y-99664500D01*
X124405812Y-99540018D01*
X124369502Y-99420320D01*
X124310537Y-99310006D01*
X124231185Y-99213315D01*
X124134494Y-99133963D01*
X124024180Y-99074998D01*
X123904482Y-99038688D01*
X123780000Y-99026428D01*
X123628250Y-99029500D01*
X123469500Y-99188250D01*
X123215500Y-99188250D01*
X123056750Y-99029500D01*
X122905000Y-99026428D01*
X122780518Y-99038688D01*
X122745401Y-99049341D01*
X122700802Y-99025502D01*
X122629329Y-99003821D01*
X122555000Y-98996500D01*
X118571651Y-98996500D01*
X118735808Y-98832343D01*
X120039500Y-98832343D01*
X120114189Y-98824987D01*
X120186008Y-98803201D01*
X120252196Y-98767822D01*
X120310211Y-98720211D01*
X120357822Y-98662196D01*
X120393201Y-98596008D01*
X120414987Y-98524189D01*
X120418502Y-98488500D01*
X123957342Y-98488500D01*
X124001002Y-98492800D01*
X124044662Y-98488500D01*
X124044669Y-98488500D01*
X124175276Y-98475636D01*
X124342853Y-98424803D01*
X124497293Y-98342253D01*
X124632661Y-98231159D01*
X124660501Y-98197236D01*
X124871360Y-97986377D01*
X126598587Y-97986377D01*
X126635353Y-98186912D01*
X126710534Y-98376420D01*
X126725264Y-98403981D01*
X126785348Y-98410736D01*
X126796010Y-98517831D01*
X126975897Y-99108592D01*
X127263882Y-99647373D01*
X127271335Y-99652297D01*
X127294363Y-99777902D01*
X127369544Y-99967410D01*
X127384274Y-99994971D01*
X127587569Y-100017826D01*
X129705395Y-97900000D01*
X127587569Y-95782174D01*
X127384274Y-95805029D01*
X127303433Y-95992194D01*
X127269854Y-96148681D01*
X127263882Y-96152627D01*
X126973351Y-96697557D01*
X126794713Y-97288696D01*
X126784910Y-97389313D01*
X126725264Y-97396019D01*
X126644423Y-97583184D01*
X126601649Y-97782523D01*
X126598587Y-97986377D01*
X124871360Y-97986377D01*
X127255168Y-95602569D01*
X127767174Y-95602569D01*
X129885000Y-97720395D01*
X132002826Y-95602569D01*
X131979971Y-95399274D01*
X131792806Y-95318433D01*
X131636319Y-95284854D01*
X131632373Y-95278882D01*
X131087443Y-94988351D01*
X130496304Y-94809713D01*
X130395687Y-94799910D01*
X130388981Y-94740264D01*
X130201816Y-94659423D01*
X130002477Y-94616649D01*
X129798623Y-94613587D01*
X129598088Y-94650353D01*
X129408580Y-94725534D01*
X129381019Y-94740264D01*
X129374264Y-94800348D01*
X129267169Y-94811010D01*
X128676408Y-94990897D01*
X128137627Y-95278882D01*
X128132703Y-95286335D01*
X128007098Y-95309363D01*
X127817590Y-95384544D01*
X127790029Y-95399274D01*
X127767174Y-95602569D01*
X127255168Y-95602569D01*
X127915243Y-94942495D01*
X127949159Y-94914661D01*
X128060253Y-94779293D01*
X128142803Y-94624853D01*
X128176000Y-94515415D01*
X128193636Y-94457278D01*
X128203947Y-94352585D01*
X128206500Y-94326669D01*
X128206500Y-94326663D01*
X128210800Y-94283003D01*
X128206500Y-94239343D01*
X128206500Y-78085160D01*
X128210800Y-78041500D01*
X128206500Y-77997840D01*
X128206500Y-77997833D01*
X128193636Y-77867226D01*
X128142803Y-77699649D01*
X128060253Y-77545209D01*
X127949159Y-77409841D01*
X127915242Y-77382006D01*
X126326000Y-75792765D01*
X126326000Y-75761257D01*
X126278693Y-75523431D01*
X126185898Y-75299403D01*
X126051180Y-75097783D01*
X125879717Y-74926320D01*
X125678097Y-74791602D01*
X125454069Y-74698807D01*
X125216243Y-74651500D01*
X124973757Y-74651500D01*
X124735931Y-74698807D01*
X124511903Y-74791602D01*
X124310283Y-74926320D01*
X124138820Y-75097783D01*
X124004102Y-75299403D01*
X123911307Y-75523431D01*
X123864000Y-75761257D01*
X123864000Y-76003743D01*
X123911307Y-76241569D01*
X124004102Y-76465597D01*
X124138820Y-76667217D01*
X124310283Y-76838680D01*
X124511903Y-76973398D01*
X124626168Y-77020728D01*
X124463748Y-77078343D01*
X124213645Y-77227322D01*
X123997412Y-77422231D01*
X123823359Y-77655580D01*
X123698175Y-77918401D01*
X123653524Y-78065610D01*
X123774845Y-78295500D01*
X124968000Y-78295500D01*
X124968000Y-78275500D01*
X125222000Y-78275500D01*
X125222000Y-78295500D01*
X125242000Y-78295500D01*
X125242000Y-78549500D01*
X125222000Y-78549500D01*
X125222000Y-80835500D01*
X125242000Y-80835500D01*
X125242000Y-81089500D01*
X125222000Y-81089500D01*
X125222000Y-81109500D01*
X124968000Y-81109500D01*
X124968000Y-81089500D01*
X123774845Y-81089500D01*
X123653524Y-81319390D01*
X123698175Y-81466599D01*
X123823359Y-81729420D01*
X123997412Y-81962769D01*
X124213645Y-82157678D01*
X124463748Y-82306657D01*
X124626168Y-82364272D01*
X124511903Y-82411602D01*
X124310283Y-82546320D01*
X124288093Y-82568510D01*
X118092289Y-82568510D01*
X118090500Y-82378250D01*
X117931750Y-82219500D01*
X117157500Y-82219500D01*
X117157500Y-82239500D01*
X116903500Y-82239500D01*
X116903500Y-82219500D01*
X116883500Y-82219500D01*
X116883500Y-81965500D01*
X116903500Y-81965500D01*
X116903500Y-81945500D01*
X117157500Y-81945500D01*
X117157500Y-81965500D01*
X117931750Y-81965500D01*
X118090500Y-81806750D01*
X118093572Y-81480000D01*
X118081312Y-81355518D01*
X118045002Y-81235820D01*
X117986037Y-81125506D01*
X117906685Y-81028815D01*
X117828754Y-80964859D01*
X117838343Y-80867500D01*
X117838343Y-80067500D01*
X117826904Y-79951354D01*
X117793025Y-79839672D01*
X117738010Y-79736745D01*
X117663971Y-79646529D01*
X117573755Y-79572490D01*
X117470828Y-79517475D01*
X117359146Y-79483596D01*
X117243000Y-79472157D01*
X116818000Y-79472157D01*
X116701854Y-79483596D01*
X116590172Y-79517475D01*
X116487245Y-79572490D01*
X116397029Y-79646529D01*
X116322990Y-79736745D01*
X116267975Y-79839672D01*
X116234096Y-79951354D01*
X116222657Y-80067500D01*
X116222657Y-80300429D01*
X116199456Y-80257023D01*
X116124640Y-80165860D01*
X116033477Y-80091044D01*
X115929470Y-80035451D01*
X115816615Y-80001216D01*
X115722776Y-79991974D01*
X115814790Y-79899960D01*
X115894012Y-79781395D01*
X115948581Y-79649654D01*
X115976400Y-79509798D01*
X115976400Y-79367202D01*
X115948581Y-79227346D01*
X115894012Y-79095605D01*
X115814790Y-78977040D01*
X115713960Y-78876210D01*
X115595395Y-78796988D01*
X115552910Y-78779390D01*
X123653524Y-78779390D01*
X123698175Y-78926599D01*
X123823359Y-79189420D01*
X123997412Y-79422769D01*
X124213645Y-79617678D01*
X124339255Y-79692500D01*
X124213645Y-79767322D01*
X123997412Y-79962231D01*
X123823359Y-80195580D01*
X123698175Y-80458401D01*
X123653524Y-80605610D01*
X123774845Y-80835500D01*
X124968000Y-80835500D01*
X124968000Y-78549500D01*
X123774845Y-78549500D01*
X123653524Y-78779390D01*
X115552910Y-78779390D01*
X115463654Y-78742419D01*
X115323798Y-78714600D01*
X115181202Y-78714600D01*
X115041346Y-78742419D01*
X114909605Y-78796988D01*
X114791040Y-78876210D01*
X114690210Y-78977040D01*
X114610988Y-79095605D01*
X114579400Y-79171865D01*
X114579400Y-79113202D01*
X114551581Y-78973346D01*
X114497012Y-78841605D01*
X114417790Y-78723040D01*
X114316960Y-78622210D01*
X114198395Y-78542988D01*
X114066654Y-78488419D01*
X113926798Y-78460600D01*
X113784202Y-78460600D01*
X113644346Y-78488419D01*
X113512605Y-78542988D01*
X113394040Y-78622210D01*
X113293210Y-78723040D01*
X113213988Y-78841605D01*
X113159419Y-78973346D01*
X113131600Y-79113202D01*
X113131600Y-79255798D01*
X113159419Y-79395654D01*
X113213988Y-79527395D01*
X113293210Y-79645960D01*
X113347501Y-79700251D01*
X113347500Y-80046959D01*
X113265023Y-80091044D01*
X113173860Y-80165860D01*
X113099044Y-80257023D01*
X113043451Y-80361030D01*
X113009216Y-80473885D01*
X112997657Y-80591250D01*
X112997657Y-81028750D01*
X113009216Y-81146115D01*
X113043451Y-81258970D01*
X113099044Y-81362977D01*
X113173860Y-81454140D01*
X113265023Y-81528956D01*
X113369030Y-81584549D01*
X113411723Y-81597500D01*
X113369030Y-81610451D01*
X113265023Y-81666044D01*
X113173860Y-81740860D01*
X113099044Y-81832023D01*
X113043451Y-81936030D01*
X113009216Y-82048885D01*
X112997657Y-82166250D01*
X112997657Y-82603750D01*
X113009216Y-82721115D01*
X113043451Y-82833970D01*
X113099044Y-82937977D01*
X113168540Y-83022657D01*
X112698000Y-83022657D01*
X112623311Y-83030013D01*
X112573000Y-83045275D01*
X112522689Y-83030013D01*
X112448000Y-83022657D01*
X111898000Y-83022657D01*
X111823311Y-83030013D01*
X111773000Y-83045275D01*
X111722689Y-83030013D01*
X111648000Y-83022657D01*
X111098000Y-83022657D01*
X111023311Y-83030013D01*
X110951492Y-83051799D01*
X110885304Y-83087178D01*
X110827289Y-83134789D01*
X110779678Y-83192804D01*
X110744299Y-83258992D01*
X110722513Y-83330811D01*
X110715157Y-83405500D01*
X110715157Y-84997657D01*
X109123000Y-84997657D01*
X109048311Y-85005013D01*
X108976492Y-85026799D01*
X108968589Y-85031023D01*
X108963581Y-85005846D01*
X108909012Y-84874105D01*
X108829790Y-84755540D01*
X108728960Y-84654710D01*
X108610395Y-84575488D01*
X108478654Y-84520919D01*
X108338798Y-84493100D01*
X108196202Y-84493100D01*
X108056346Y-84520919D01*
X107924605Y-84575488D01*
X107806040Y-84654710D01*
X107705210Y-84755540D01*
X107625988Y-84874105D01*
X107571419Y-85005846D01*
X107543600Y-85145702D01*
X107543600Y-85288298D01*
X107571419Y-85428154D01*
X107625988Y-85559895D01*
X107705210Y-85678460D01*
X107806040Y-85779290D01*
X107924605Y-85858512D01*
X108056346Y-85913081D01*
X108196202Y-85940900D01*
X108338798Y-85940900D01*
X108478654Y-85913081D01*
X108610395Y-85858512D01*
X108728960Y-85779290D01*
X108740157Y-85768093D01*
X108740157Y-85930500D01*
X108747513Y-86005189D01*
X108762775Y-86055500D01*
X108747513Y-86105811D01*
X108740157Y-86180500D01*
X108740157Y-86473379D01*
X108673990Y-86527150D01*
X108594174Y-86623459D01*
X108534680Y-86733488D01*
X108497794Y-86853010D01*
X108488000Y-86969750D01*
X108646748Y-87128498D01*
X108548432Y-87128498D01*
X108487595Y-87078571D01*
X108399343Y-87031399D01*
X108303585Y-87002351D01*
X108228947Y-86995000D01*
X108228944Y-86995000D01*
X108204000Y-86992543D01*
X108179056Y-86995000D01*
X106069944Y-86995000D01*
X106045000Y-86992543D01*
X106020056Y-86995000D01*
X106020053Y-86995000D01*
X105945415Y-87002351D01*
X105849657Y-87031399D01*
X105817061Y-87048822D01*
X105761404Y-87078571D01*
X105710435Y-87120400D01*
X105684052Y-87142052D01*
X105668149Y-87161430D01*
X105258934Y-87570645D01*
X105239552Y-87586552D01*
X105176071Y-87663905D01*
X105139055Y-87733157D01*
X104976000Y-87733157D01*
X104901311Y-87740513D01*
X104829492Y-87762299D01*
X104763304Y-87797678D01*
X104705289Y-87845289D01*
X104657678Y-87903304D01*
X104622299Y-87969492D01*
X104600513Y-88041311D01*
X104593157Y-88116000D01*
X104593157Y-88261452D01*
X104567640Y-88230360D01*
X104476477Y-88155544D01*
X104372470Y-88099951D01*
X104259615Y-88065716D01*
X104142250Y-88054157D01*
X103629750Y-88054157D01*
X103512385Y-88065716D01*
X103399530Y-88099951D01*
X103295523Y-88155544D01*
X103204360Y-88230360D01*
X103129544Y-88321523D01*
X103073951Y-88425530D01*
X103039716Y-88538385D01*
X103028157Y-88655750D01*
X103028157Y-89093250D01*
X103039716Y-89210615D01*
X103073951Y-89323470D01*
X103129544Y-89427477D01*
X103138070Y-89437866D01*
X103056506Y-89481463D01*
X102959815Y-89560815D01*
X102880463Y-89657506D01*
X102821498Y-89767820D01*
X102785188Y-89887518D01*
X102772928Y-90012000D01*
X102776000Y-90163750D01*
X102934750Y-90322500D01*
X103759000Y-90322500D01*
X103759000Y-90302500D01*
X104013000Y-90302500D01*
X104013000Y-90322500D01*
X104033000Y-90322500D01*
X104033000Y-90576500D01*
X104013000Y-90576500D01*
X104013000Y-91363250D01*
X104171750Y-91522000D01*
X104339346Y-91524721D01*
X104337928Y-91716000D01*
X104350188Y-91840482D01*
X104386498Y-91960180D01*
X104445463Y-92070494D01*
X104524815Y-92167185D01*
X104621506Y-92246537D01*
X104631044Y-92251635D01*
X104626428Y-92298500D01*
X104629500Y-92487750D01*
X104788250Y-92646500D01*
X105575000Y-92646500D01*
X105575000Y-91822250D01*
X105449000Y-91696250D01*
X105449000Y-91143000D01*
X105429000Y-91143000D01*
X105429000Y-90889000D01*
X105449000Y-90889000D01*
X105449000Y-90869000D01*
X105703000Y-90869000D01*
X105703000Y-90889000D01*
X105723000Y-90889000D01*
X105723000Y-91143000D01*
X105703000Y-91143000D01*
X105703000Y-92192250D01*
X105829000Y-92318250D01*
X105829000Y-92646500D01*
X105849000Y-92646500D01*
X105849000Y-92900500D01*
X105829000Y-92900500D01*
X105829000Y-93724750D01*
X105987750Y-93883500D01*
X106139500Y-93886572D01*
X106263982Y-93874312D01*
X106383680Y-93838002D01*
X106493994Y-93779037D01*
X106590685Y-93699685D01*
X106670037Y-93602994D01*
X106713634Y-93521430D01*
X106724023Y-93529956D01*
X106828030Y-93585549D01*
X106940885Y-93619784D01*
X107058250Y-93631343D01*
X107495750Y-93631343D01*
X107613115Y-93619784D01*
X107725970Y-93585549D01*
X107829977Y-93529956D01*
X107921140Y-93455140D01*
X107995956Y-93363977D01*
X108051549Y-93259970D01*
X108085784Y-93147115D01*
X108097343Y-93029750D01*
X108097343Y-92517250D01*
X108085784Y-92399885D01*
X108051549Y-92287030D01*
X107995956Y-92183023D01*
X107923067Y-92094207D01*
X107950689Y-92091487D01*
X108022508Y-92069701D01*
X108088696Y-92034322D01*
X108146711Y-91986711D01*
X108194322Y-91928696D01*
X108229701Y-91862508D01*
X108251487Y-91790689D01*
X108254165Y-91763500D01*
X108821341Y-91763500D01*
X108852289Y-91801211D01*
X108910304Y-91848822D01*
X108976492Y-91884201D01*
X109048311Y-91905987D01*
X109123000Y-91913343D01*
X110715157Y-91913343D01*
X110715157Y-93505500D01*
X110722513Y-93580189D01*
X110744299Y-93652008D01*
X110779678Y-93718196D01*
X110827289Y-93776211D01*
X110885304Y-93823822D01*
X110951492Y-93859201D01*
X111023311Y-93880987D01*
X111098000Y-93888343D01*
X111648000Y-93888343D01*
X111722689Y-93880987D01*
X111773000Y-93865725D01*
X111823311Y-93880987D01*
X111898000Y-93888343D01*
X112448000Y-93888343D01*
X112465000Y-93886669D01*
X112465001Y-96049078D01*
X112048568Y-96465512D01*
X111928569Y-96415807D01*
X111690743Y-96368500D01*
X111448257Y-96368500D01*
X111210431Y-96415807D01*
X110986403Y-96508602D01*
X110784783Y-96643320D01*
X110613320Y-96814783D01*
X110478602Y-97016403D01*
X110431272Y-97130668D01*
X110373657Y-96968248D01*
X110224678Y-96718145D01*
X110029769Y-96501912D01*
X109796420Y-96327859D01*
X109533599Y-96202675D01*
X109386390Y-96158024D01*
X109156500Y-96279345D01*
X109156500Y-97472500D01*
X109176500Y-97472500D01*
X109176500Y-97726500D01*
X109156500Y-97726500D01*
X109156500Y-98919655D01*
X109386390Y-99040976D01*
X109533599Y-98996325D01*
X109796420Y-98871141D01*
X110029769Y-98697088D01*
X110224678Y-98480855D01*
X110373657Y-98230752D01*
X110431272Y-98068332D01*
X110478602Y-98182597D01*
X110613320Y-98384217D01*
X110784783Y-98555680D01*
X110986403Y-98690398D01*
X111210431Y-98783193D01*
X111448257Y-98830500D01*
X111690743Y-98830500D01*
X111928569Y-98783193D01*
X112152597Y-98690398D01*
X112354217Y-98555680D01*
X112525680Y-98384217D01*
X112660398Y-98182597D01*
X112753193Y-97958569D01*
X112800500Y-97720743D01*
X112800500Y-97478257D01*
X112753193Y-97240431D01*
X112740685Y-97210235D01*
X113265001Y-96685920D01*
X113265001Y-96703102D01*
X113153320Y-96814783D01*
X113018602Y-97016403D01*
X112925807Y-97240431D01*
X112878500Y-97478257D01*
X112878500Y-97720743D01*
X112925807Y-97958569D01*
X113018602Y-98182597D01*
X113153320Y-98384217D01*
X113324783Y-98555680D01*
X113368850Y-98585125D01*
X113381406Y-98595429D01*
X113395731Y-98603086D01*
X113526403Y-98690398D01*
X113750431Y-98783193D01*
X113988257Y-98830500D01*
X114230743Y-98830500D01*
X114468569Y-98783193D01*
X114692597Y-98690398D01*
X114894217Y-98555680D01*
X115065680Y-98384217D01*
X115200398Y-98182597D01*
X115293193Y-97958569D01*
X115340500Y-97720743D01*
X115340500Y-97478257D01*
X115293193Y-97240431D01*
X115200398Y-97016403D01*
X115065680Y-96814783D01*
X114894217Y-96643320D01*
X114692597Y-96508602D01*
X114468569Y-96415807D01*
X114281000Y-96378497D01*
X114281000Y-94679420D01*
X116097359Y-96495780D01*
X116066403Y-96508602D01*
X115864783Y-96643320D01*
X115693320Y-96814783D01*
X115558602Y-97016403D01*
X115465807Y-97240431D01*
X115418500Y-97478257D01*
X115418500Y-97720743D01*
X115465807Y-97958569D01*
X115558602Y-98182597D01*
X115693320Y-98384217D01*
X115864783Y-98555680D01*
X116066403Y-98690398D01*
X116290431Y-98783193D01*
X116528257Y-98830500D01*
X116770743Y-98830500D01*
X116984027Y-98788075D01*
X116540050Y-99232052D01*
X116515815Y-99251941D01*
X116436463Y-99348633D01*
X116377498Y-99458947D01*
X116341188Y-99578645D01*
X116332000Y-99671935D01*
X116332000Y-99671945D01*
X116328929Y-99703126D01*
X116332000Y-99734307D01*
X116332000Y-100333392D01*
X116325994Y-100328463D01*
X116215680Y-100269498D01*
X116095982Y-100233188D01*
X115971500Y-100220928D01*
X113057250Y-100224000D01*
X112898500Y-100382750D01*
X112898500Y-103632000D01*
X112918500Y-103632000D01*
X112918500Y-103886000D01*
X112898500Y-103886000D01*
X112898500Y-107135250D01*
X113057250Y-107294000D01*
X115971500Y-107297072D01*
X116095982Y-107284812D01*
X116215680Y-107248502D01*
X116325994Y-107189537D01*
X116422685Y-107110185D01*
X116502037Y-107013494D01*
X116561002Y-106903180D01*
X116597312Y-106783482D01*
X116609572Y-106659000D01*
X116607244Y-104678268D01*
X117588657Y-105659682D01*
X117588657Y-106639000D01*
X117596013Y-106713689D01*
X117617799Y-106785508D01*
X117653178Y-106851696D01*
X117700789Y-106909711D01*
X117758804Y-106957322D01*
X117824992Y-106992701D01*
X117896811Y-107014487D01*
X117971500Y-107021843D01*
X118491000Y-107021843D01*
X118491000Y-107178975D01*
X118037476Y-107632500D01*
X109610026Y-107632500D01*
X108636526Y-106659000D01*
X108933428Y-106659000D01*
X108945688Y-106783482D01*
X108981998Y-106903180D01*
X109040963Y-107013494D01*
X109120315Y-107110185D01*
X109217006Y-107189537D01*
X109327320Y-107248502D01*
X109447018Y-107284812D01*
X109571500Y-107297072D01*
X112485750Y-107294000D01*
X112644500Y-107135250D01*
X112644500Y-103886000D01*
X109095250Y-103886000D01*
X108936500Y-104044750D01*
X108933428Y-106659000D01*
X108636526Y-106659000D01*
X106258489Y-104280965D01*
X106367962Y-104270183D01*
X106486679Y-104234171D01*
X106596089Y-104175690D01*
X106691988Y-104096988D01*
X106770690Y-104001089D01*
X106829171Y-103891679D01*
X106865183Y-103772962D01*
X106877343Y-103649500D01*
X106877343Y-102449500D01*
X106865183Y-102326038D01*
X106829171Y-102207321D01*
X106770690Y-102097911D01*
X106691988Y-102002012D01*
X106596089Y-101923310D01*
X106486679Y-101864829D01*
X106367962Y-101828817D01*
X106244500Y-101816657D01*
X104194500Y-101816657D01*
X104071038Y-101828817D01*
X103952321Y-101864829D01*
X103842911Y-101923310D01*
X103747012Y-102002012D01*
X103668310Y-102097911D01*
X103609829Y-102207321D01*
X103573817Y-102326038D01*
X103561657Y-102449500D01*
X103561657Y-103649500D01*
X103573817Y-103772962D01*
X103609829Y-103891679D01*
X103668310Y-104001089D01*
X103747012Y-104096988D01*
X103842911Y-104175690D01*
X103952321Y-104234171D01*
X104071038Y-104270183D01*
X104194500Y-104282343D01*
X104599107Y-104282343D01*
X104629998Y-104384179D01*
X104629999Y-104384180D01*
X104688964Y-104494494D01*
X104768316Y-104591185D01*
X104792546Y-104611070D01*
X108875935Y-108694461D01*
X108895815Y-108718685D01*
X108920039Y-108738565D01*
X108920042Y-108738568D01*
X108967471Y-108777492D01*
X108105476Y-108546521D01*
X106416740Y-107931872D01*
X104788002Y-107172379D01*
X103231655Y-106273822D01*
X101759545Y-105243039D01*
X100382876Y-104087876D01*
X99112124Y-102817124D01*
X97956961Y-101440455D01*
X97599359Y-100929747D01*
X97799696Y-100990287D01*
X97900313Y-101000090D01*
X97907019Y-101059736D01*
X98094184Y-101140577D01*
X98293523Y-101183351D01*
X98497377Y-101186413D01*
X98697912Y-101149647D01*
X98887420Y-101074466D01*
X98914981Y-101059736D01*
X98921736Y-100999652D01*
X99028831Y-100988990D01*
X99455726Y-100859000D01*
X108933428Y-100859000D01*
X108936500Y-103473250D01*
X109095250Y-103632000D01*
X112644500Y-103632000D01*
X112644500Y-100382750D01*
X112485750Y-100224000D01*
X109571500Y-100220928D01*
X109447018Y-100233188D01*
X109327320Y-100269498D01*
X109217006Y-100328463D01*
X109120315Y-100407815D01*
X109040963Y-100504506D01*
X108981998Y-100614820D01*
X108945688Y-100734518D01*
X108933428Y-100859000D01*
X99455726Y-100859000D01*
X99619592Y-100809103D01*
X100158373Y-100521118D01*
X100163297Y-100513665D01*
X100288902Y-100490637D01*
X100478410Y-100415456D01*
X100505971Y-100400726D01*
X100528826Y-100197431D01*
X98411000Y-98079605D01*
X98396858Y-98093748D01*
X98217253Y-97914143D01*
X98231395Y-97900000D01*
X98590605Y-97900000D01*
X100708431Y-100017826D01*
X100911726Y-99994971D01*
X100992567Y-99807806D01*
X101026146Y-99651319D01*
X101032118Y-99647373D01*
X101190929Y-99349500D01*
X103306428Y-99349500D01*
X103318688Y-99473982D01*
X103354998Y-99593680D01*
X103413963Y-99703994D01*
X103493315Y-99800685D01*
X103590006Y-99880037D01*
X103700320Y-99939002D01*
X103820018Y-99975312D01*
X103944500Y-99987572D01*
X104933750Y-99984500D01*
X105092500Y-99825750D01*
X105092500Y-98626500D01*
X105346500Y-98626500D01*
X105346500Y-99825750D01*
X105505250Y-99984500D01*
X106494500Y-99987572D01*
X106618982Y-99975312D01*
X106738680Y-99939002D01*
X106848994Y-99880037D01*
X106945685Y-99800685D01*
X107025037Y-99703994D01*
X107084002Y-99593680D01*
X107120312Y-99473982D01*
X107132572Y-99349500D01*
X107129500Y-98785250D01*
X106970750Y-98626500D01*
X105346500Y-98626500D01*
X105092500Y-98626500D01*
X103468250Y-98626500D01*
X103309500Y-98785250D01*
X103306428Y-99349500D01*
X101190929Y-99349500D01*
X101322649Y-99102443D01*
X101501287Y-98511304D01*
X101511090Y-98410687D01*
X101570736Y-98403981D01*
X101651577Y-98216816D01*
X101694351Y-98017477D01*
X101697413Y-97813623D01*
X101667323Y-97649500D01*
X103306428Y-97649500D01*
X103309500Y-98213750D01*
X103468250Y-98372500D01*
X105092500Y-98372500D01*
X105092500Y-97173250D01*
X105346500Y-97173250D01*
X105346500Y-98372500D01*
X106970750Y-98372500D01*
X107129500Y-98213750D01*
X107130901Y-97956391D01*
X107588019Y-97956391D01*
X107685343Y-98230752D01*
X107834322Y-98480855D01*
X108029231Y-98697088D01*
X108262580Y-98871141D01*
X108525401Y-98996325D01*
X108672610Y-99040976D01*
X108902500Y-98919655D01*
X108902500Y-97726500D01*
X107708686Y-97726500D01*
X107588019Y-97956391D01*
X107130901Y-97956391D01*
X107132572Y-97649500D01*
X107120312Y-97525018D01*
X107084002Y-97405320D01*
X107025037Y-97295006D01*
X106982037Y-97242609D01*
X107588019Y-97242609D01*
X107708686Y-97472500D01*
X108902500Y-97472500D01*
X108902500Y-96279345D01*
X108672610Y-96158024D01*
X108525401Y-96202675D01*
X108262580Y-96327859D01*
X108029231Y-96501912D01*
X107834322Y-96718145D01*
X107685343Y-96968248D01*
X107588019Y-97242609D01*
X106982037Y-97242609D01*
X106945685Y-97198315D01*
X106848994Y-97118963D01*
X106738680Y-97059998D01*
X106618982Y-97023688D01*
X106494500Y-97011428D01*
X105505250Y-97014500D01*
X105346500Y-97173250D01*
X105092500Y-97173250D01*
X104933750Y-97014500D01*
X103944500Y-97011428D01*
X103820018Y-97023688D01*
X103700320Y-97059998D01*
X103590006Y-97118963D01*
X103493315Y-97198315D01*
X103413963Y-97295006D01*
X103354998Y-97405320D01*
X103318688Y-97525018D01*
X103306428Y-97649500D01*
X101667323Y-97649500D01*
X101660647Y-97613088D01*
X101585466Y-97423580D01*
X101570736Y-97396019D01*
X101510652Y-97389264D01*
X101499990Y-97282169D01*
X101320103Y-96691408D01*
X101032118Y-96152627D01*
X101024665Y-96147703D01*
X101001637Y-96022098D01*
X100926456Y-95832590D01*
X100911726Y-95805029D01*
X100708431Y-95782174D01*
X98590605Y-97900000D01*
X98231395Y-97900000D01*
X96113569Y-95782174D01*
X95910274Y-95805029D01*
X95829433Y-95992194D01*
X95795854Y-96148681D01*
X95789882Y-96152627D01*
X95499351Y-96697557D01*
X95392714Y-97050435D01*
X95268128Y-96783260D01*
X94838393Y-95602569D01*
X96293174Y-95602569D01*
X98411000Y-97720395D01*
X100528826Y-95602569D01*
X100505971Y-95399274D01*
X100318806Y-95318433D01*
X100162319Y-95284854D01*
X100158373Y-95278882D01*
X99613443Y-94988351D01*
X99022304Y-94809713D01*
X98921687Y-94799910D01*
X98914981Y-94740264D01*
X98727816Y-94659423D01*
X98528477Y-94616649D01*
X98324623Y-94613587D01*
X98124088Y-94650353D01*
X97934580Y-94725534D01*
X97907019Y-94740264D01*
X97900264Y-94800348D01*
X97793169Y-94811010D01*
X97202408Y-94990897D01*
X96663627Y-95278882D01*
X96658703Y-95286335D01*
X96533098Y-95309363D01*
X96343590Y-95384544D01*
X96316029Y-95399274D01*
X96293174Y-95602569D01*
X94838393Y-95602569D01*
X94653479Y-95094524D01*
X94188351Y-93358645D01*
X94168930Y-93248500D01*
X104626428Y-93248500D01*
X104638688Y-93372982D01*
X104674998Y-93492680D01*
X104733963Y-93602994D01*
X104813315Y-93699685D01*
X104910006Y-93779037D01*
X105020320Y-93838002D01*
X105140018Y-93874312D01*
X105264500Y-93886572D01*
X105416250Y-93883500D01*
X105575000Y-93724750D01*
X105575000Y-92900500D01*
X104788250Y-92900500D01*
X104629500Y-93059250D01*
X104626428Y-93248500D01*
X94168930Y-93248500D01*
X93876285Y-91588833D01*
X93814883Y-90887000D01*
X102772928Y-90887000D01*
X102785188Y-91011482D01*
X102821498Y-91131180D01*
X102880463Y-91241494D01*
X102959815Y-91338185D01*
X103056506Y-91417537D01*
X103166820Y-91476502D01*
X103286518Y-91512812D01*
X103411000Y-91525072D01*
X103600250Y-91522000D01*
X103759000Y-91363250D01*
X103759000Y-90576500D01*
X102934750Y-90576500D01*
X102776000Y-90735250D01*
X102772928Y-90887000D01*
X93814883Y-90887000D01*
X93719657Y-89798557D01*
X93719657Y-88001443D01*
X93876285Y-86211167D01*
X94188351Y-84441355D01*
X94653479Y-82705476D01*
X95268128Y-81016740D01*
X96027621Y-79388002D01*
X96926178Y-77831655D01*
X97956961Y-76359545D01*
X99112124Y-74982876D01*
X100382876Y-73712124D01*
X100996262Y-73197431D01*
X112182174Y-73197431D01*
X112205029Y-73400726D01*
X112392194Y-73481567D01*
X112548681Y-73515146D01*
X112552627Y-73521118D01*
X113097557Y-73811649D01*
X113688696Y-73990287D01*
X113789313Y-74000090D01*
X113796019Y-74059736D01*
X113983184Y-74140577D01*
X114182523Y-74183351D01*
X114386377Y-74186413D01*
X114586912Y-74149647D01*
X114776420Y-74074466D01*
X114803981Y-74059736D01*
X114810736Y-73999652D01*
X114917831Y-73988990D01*
X115508592Y-73809103D01*
X116047373Y-73521118D01*
X116052297Y-73513665D01*
X116177902Y-73490637D01*
X116367410Y-73415456D01*
X116394971Y-73400726D01*
X116417826Y-73197431D01*
X114300000Y-71079605D01*
X112182174Y-73197431D01*
X100996262Y-73197431D01*
X101759545Y-72556961D01*
X103231655Y-71526178D01*
X104166618Y-70986377D01*
X111013587Y-70986377D01*
X111050353Y-71186912D01*
X111125534Y-71376420D01*
X111140264Y-71403981D01*
X111200348Y-71410736D01*
X111211010Y-71517831D01*
X111390897Y-72108592D01*
X111678882Y-72647373D01*
X111686335Y-72652297D01*
X111709363Y-72777902D01*
X111784544Y-72967410D01*
X111799274Y-72994971D01*
X112002569Y-73017826D01*
X114120395Y-70900000D01*
X114479605Y-70900000D01*
X116597431Y-73017826D01*
X116800726Y-72994971D01*
X116881567Y-72807806D01*
X116915146Y-72651319D01*
X116921118Y-72647373D01*
X117211649Y-72102443D01*
X117390287Y-71511304D01*
X117400090Y-71410687D01*
X117459736Y-71403981D01*
X117540577Y-71216816D01*
X117583351Y-71017477D01*
X117586413Y-70813623D01*
X117549647Y-70613088D01*
X117474466Y-70423580D01*
X117459736Y-70396019D01*
X117399652Y-70389264D01*
X117388990Y-70282169D01*
X117209103Y-69691408D01*
X116921118Y-69152627D01*
X116913665Y-69147703D01*
X116890637Y-69022098D01*
X116815456Y-68832590D01*
X116800726Y-68805029D01*
X116597431Y-68782174D01*
X114479605Y-70900000D01*
X114120395Y-70900000D01*
X112002569Y-68782174D01*
X111799274Y-68805029D01*
X111718433Y-68992194D01*
X111684854Y-69148681D01*
X111678882Y-69152627D01*
X111388351Y-69697557D01*
X111209713Y-70288696D01*
X111199910Y-70389313D01*
X111140264Y-70396019D01*
X111059423Y-70583184D01*
X111016649Y-70782523D01*
X111013587Y-70986377D01*
X104166618Y-70986377D01*
X104788002Y-70627621D01*
X106416740Y-69868128D01*
X108105476Y-69253479D01*
X109841355Y-68788351D01*
X111611167Y-68476285D01*
X112202184Y-68424578D01*
X112182174Y-68602569D01*
X114300000Y-70720395D01*
X116417826Y-68602569D01*
X116397816Y-68424578D01*
X116988833Y-68476285D01*
G36*
X126428500Y-93914766D02*
G01*
X126327843Y-94015423D01*
X126327843Y-92812500D01*
X126320487Y-92737811D01*
X126298701Y-92665992D01*
X126263322Y-92599804D01*
X126215711Y-92541789D01*
X126157696Y-92494178D01*
X126091508Y-92458799D01*
X126019689Y-92437013D01*
X125945000Y-92429657D01*
X124506263Y-92429657D01*
X124660833Y-92275087D01*
X124735931Y-92306193D01*
X124973757Y-92353500D01*
X125216243Y-92353500D01*
X125454069Y-92306193D01*
X125678097Y-92213398D01*
X125879717Y-92078680D01*
X126051180Y-91907217D01*
X126185898Y-91705597D01*
X126278693Y-91481569D01*
X126326000Y-91243743D01*
X126326000Y-91001257D01*
X126278693Y-90763431D01*
X126185898Y-90539403D01*
X126051180Y-90337783D01*
X125879717Y-90166320D01*
X125678097Y-90031602D01*
X125454069Y-89938807D01*
X125433734Y-89934762D01*
X125436565Y-89931931D01*
X125455948Y-89916024D01*
X125519429Y-89838671D01*
X125566601Y-89750419D01*
X125577300Y-89715149D01*
X125678097Y-89673398D01*
X125879717Y-89538680D01*
X126051180Y-89367217D01*
X126185898Y-89165597D01*
X126278693Y-88941569D01*
X126326000Y-88703743D01*
X126326000Y-88461257D01*
X126278693Y-88223431D01*
X126185898Y-87999403D01*
X126051180Y-87797783D01*
X125879717Y-87626320D01*
X125678097Y-87491602D01*
X125454069Y-87398807D01*
X125216243Y-87351500D01*
X124973757Y-87351500D01*
X124735931Y-87398807D01*
X124511903Y-87491602D01*
X124310283Y-87626320D01*
X124206000Y-87730603D01*
X124206000Y-87649920D01*
X124660833Y-87195087D01*
X124735931Y-87226193D01*
X124973757Y-87273500D01*
X125216243Y-87273500D01*
X125454069Y-87226193D01*
X125678097Y-87133398D01*
X125879717Y-86998680D01*
X126051180Y-86827217D01*
X126185898Y-86625597D01*
X126278693Y-86401569D01*
X126326000Y-86163743D01*
X126326000Y-85921257D01*
X126278693Y-85683431D01*
X126185898Y-85459403D01*
X126051180Y-85257783D01*
X125879717Y-85086320D01*
X125678097Y-84951602D01*
X125454069Y-84858807D01*
X125216243Y-84811500D01*
X124973757Y-84811500D01*
X124735931Y-84858807D01*
X124511903Y-84951602D01*
X124310283Y-85086320D01*
X124138820Y-85257783D01*
X124004102Y-85459403D01*
X123911307Y-85683431D01*
X123864000Y-85921257D01*
X123864000Y-86163743D01*
X123911307Y-86401569D01*
X123942413Y-86476667D01*
X123356430Y-87062650D01*
X123337053Y-87078552D01*
X123321151Y-87097929D01*
X123321150Y-87097930D01*
X123273571Y-87155905D01*
X123239630Y-87219405D01*
X123226400Y-87244157D01*
X123199935Y-87331402D01*
X123197352Y-87339916D01*
X123187543Y-87439500D01*
X123190001Y-87464454D01*
X123190001Y-87618147D01*
X123122328Y-87581975D01*
X123010646Y-87548096D01*
X122894500Y-87536657D01*
X122481577Y-87536657D01*
X122477028Y-87532108D01*
X122537456Y-87458477D01*
X122593049Y-87354470D01*
X122627284Y-87241615D01*
X122638843Y-87124250D01*
X122638843Y-86611750D01*
X122627284Y-86494385D01*
X122593049Y-86381530D01*
X122537456Y-86277523D01*
X122462640Y-86186360D01*
X122371477Y-86111544D01*
X122267470Y-86055951D01*
X122154615Y-86021716D01*
X122037250Y-86010157D01*
X121599750Y-86010157D01*
X121482385Y-86021716D01*
X121369530Y-86055951D01*
X121265523Y-86111544D01*
X121174360Y-86186360D01*
X121099544Y-86277523D01*
X121043951Y-86381530D01*
X121031000Y-86424223D01*
X121018049Y-86381530D01*
X120962456Y-86277523D01*
X120887640Y-86186360D01*
X120796477Y-86111544D01*
X120692470Y-86055951D01*
X120579615Y-86021716D01*
X120462250Y-86010157D01*
X120037468Y-86010157D01*
X119988343Y-85983899D01*
X119892585Y-85954851D01*
X119817947Y-85947500D01*
X119817944Y-85947500D01*
X119793000Y-85945043D01*
X119768056Y-85947500D01*
X119604169Y-85947500D01*
X119605843Y-85930500D01*
X119605843Y-85380500D01*
X119598487Y-85305811D01*
X119576701Y-85233992D01*
X119541322Y-85167804D01*
X119493711Y-85109789D01*
X119435696Y-85062178D01*
X119369508Y-85026799D01*
X119297689Y-85005013D01*
X119223000Y-84997657D01*
X117630843Y-84997657D01*
X117630843Y-83584510D01*
X123864000Y-83584510D01*
X123864000Y-83623743D01*
X123911307Y-83861569D01*
X124004102Y-84085597D01*
X124138820Y-84287217D01*
X124310283Y-84458680D01*
X124511903Y-84593398D01*
X124735931Y-84686193D01*
X124973757Y-84733500D01*
X125216243Y-84733500D01*
X125454069Y-84686193D01*
X125678097Y-84593398D01*
X125879717Y-84458680D01*
X126051180Y-84287217D01*
X126185898Y-84085597D01*
X126278693Y-83861569D01*
X126326000Y-83623743D01*
X126326000Y-83381257D01*
X126278693Y-83143431D01*
X126185898Y-82919403D01*
X126051180Y-82717783D01*
X125879717Y-82546320D01*
X125678097Y-82411602D01*
X125563832Y-82364272D01*
X125726252Y-82306657D01*
X125976355Y-82157678D01*
X126192588Y-81962769D01*
X126366641Y-81729420D01*
X126428501Y-81599547D01*
X126428500Y-93914766D01*
G37*
X126428500Y-93914766D02*
X126327843Y-94015423D01*
X126327843Y-92812500D01*
X126320487Y-92737811D01*
X126298701Y-92665992D01*
X126263322Y-92599804D01*
X126215711Y-92541789D01*
X126157696Y-92494178D01*
X126091508Y-92458799D01*
X126019689Y-92437013D01*
X125945000Y-92429657D01*
X124506263Y-92429657D01*
X124660833Y-92275087D01*
X124735931Y-92306193D01*
X124973757Y-92353500D01*
X125216243Y-92353500D01*
X125454069Y-92306193D01*
X125678097Y-92213398D01*
X125879717Y-92078680D01*
X126051180Y-91907217D01*
X126185898Y-91705597D01*
X126278693Y-91481569D01*
X126326000Y-91243743D01*
X126326000Y-91001257D01*
X126278693Y-90763431D01*
X126185898Y-90539403D01*
X126051180Y-90337783D01*
X125879717Y-90166320D01*
X125678097Y-90031602D01*
X125454069Y-89938807D01*
X125433734Y-89934762D01*
X125436565Y-89931931D01*
X125455948Y-89916024D01*
X125519429Y-89838671D01*
X125566601Y-89750419D01*
X125577300Y-89715149D01*
X125678097Y-89673398D01*
X125879717Y-89538680D01*
X126051180Y-89367217D01*
X126185898Y-89165597D01*
X126278693Y-88941569D01*
X126326000Y-88703743D01*
X126326000Y-88461257D01*
X126278693Y-88223431D01*
X126185898Y-87999403D01*
X126051180Y-87797783D01*
X125879717Y-87626320D01*
X125678097Y-87491602D01*
X125454069Y-87398807D01*
X125216243Y-87351500D01*
X124973757Y-87351500D01*
X124735931Y-87398807D01*
X124511903Y-87491602D01*
X124310283Y-87626320D01*
X124206000Y-87730603D01*
X124206000Y-87649920D01*
X124660833Y-87195087D01*
X124735931Y-87226193D01*
X124973757Y-87273500D01*
X125216243Y-87273500D01*
X125454069Y-87226193D01*
X125678097Y-87133398D01*
X125879717Y-86998680D01*
X126051180Y-86827217D01*
X126185898Y-86625597D01*
X126278693Y-86401569D01*
X126326000Y-86163743D01*
X126326000Y-85921257D01*
X126278693Y-85683431D01*
X126185898Y-85459403D01*
X126051180Y-85257783D01*
X125879717Y-85086320D01*
X125678097Y-84951602D01*
X125454069Y-84858807D01*
X125216243Y-84811500D01*
X124973757Y-84811500D01*
X124735931Y-84858807D01*
X124511903Y-84951602D01*
X124310283Y-85086320D01*
X124138820Y-85257783D01*
X124004102Y-85459403D01*
X123911307Y-85683431D01*
X123864000Y-85921257D01*
X123864000Y-86163743D01*
X123911307Y-86401569D01*
X123942413Y-86476667D01*
X123356430Y-87062650D01*
X123337053Y-87078552D01*
X123321151Y-87097929D01*
X123321150Y-87097930D01*
X123273571Y-87155905D01*
X123239630Y-87219405D01*
X123226400Y-87244157D01*
X123199935Y-87331402D01*
X123197352Y-87339916D01*
X123187543Y-87439500D01*
X123190001Y-87464454D01*
X123190001Y-87618147D01*
X123122328Y-87581975D01*
X123010646Y-87548096D01*
X122894500Y-87536657D01*
X122481577Y-87536657D01*
X122477028Y-87532108D01*
X122537456Y-87458477D01*
X122593049Y-87354470D01*
X122627284Y-87241615D01*
X122638843Y-87124250D01*
X122638843Y-86611750D01*
X122627284Y-86494385D01*
X122593049Y-86381530D01*
X122537456Y-86277523D01*
X122462640Y-86186360D01*
X122371477Y-86111544D01*
X122267470Y-86055951D01*
X122154615Y-86021716D01*
X122037250Y-86010157D01*
X121599750Y-86010157D01*
X121482385Y-86021716D01*
X121369530Y-86055951D01*
X121265523Y-86111544D01*
X121174360Y-86186360D01*
X121099544Y-86277523D01*
X121043951Y-86381530D01*
X121031000Y-86424223D01*
X121018049Y-86381530D01*
X120962456Y-86277523D01*
X120887640Y-86186360D01*
X120796477Y-86111544D01*
X120692470Y-86055951D01*
X120579615Y-86021716D01*
X120462250Y-86010157D01*
X120037468Y-86010157D01*
X119988343Y-85983899D01*
X119892585Y-85954851D01*
X119817947Y-85947500D01*
X119817944Y-85947500D01*
X119793000Y-85945043D01*
X119768056Y-85947500D01*
X119604169Y-85947500D01*
X119605843Y-85930500D01*
X119605843Y-85380500D01*
X119598487Y-85305811D01*
X119576701Y-85233992D01*
X119541322Y-85167804D01*
X119493711Y-85109789D01*
X119435696Y-85062178D01*
X119369508Y-85026799D01*
X119297689Y-85005013D01*
X119223000Y-84997657D01*
X117630843Y-84997657D01*
X117630843Y-83584510D01*
X123864000Y-83584510D01*
X123864000Y-83623743D01*
X123911307Y-83861569D01*
X124004102Y-84085597D01*
X124138820Y-84287217D01*
X124310283Y-84458680D01*
X124511903Y-84593398D01*
X124735931Y-84686193D01*
X124973757Y-84733500D01*
X125216243Y-84733500D01*
X125454069Y-84686193D01*
X125678097Y-84593398D01*
X125879717Y-84458680D01*
X126051180Y-84287217D01*
X126185898Y-84085597D01*
X126278693Y-83861569D01*
X126326000Y-83623743D01*
X126326000Y-83381257D01*
X126278693Y-83143431D01*
X126185898Y-82919403D01*
X126051180Y-82717783D01*
X125879717Y-82546320D01*
X125678097Y-82411602D01*
X125563832Y-82364272D01*
X125726252Y-82306657D01*
X125976355Y-82157678D01*
X126192588Y-81962769D01*
X126366641Y-81729420D01*
X126428501Y-81599547D01*
X126428500Y-93914766D01*
G36*
X116623311Y-85380987D02*
G01*
X116698000Y-85388343D01*
X117240157Y-85388343D01*
X117240157Y-85930500D01*
X117247513Y-86005189D01*
X117262775Y-86055500D01*
X117247513Y-86105811D01*
X117240157Y-86180500D01*
X117240157Y-86730500D01*
X117247513Y-86805189D01*
X117262775Y-86855500D01*
X117247513Y-86905811D01*
X117240157Y-86980500D01*
X117240157Y-87273379D01*
X117173990Y-87327150D01*
X117094174Y-87423459D01*
X117034680Y-87533488D01*
X116997794Y-87653010D01*
X116988000Y-87769750D01*
X117146750Y-87928500D01*
X118296000Y-87928500D01*
X118296000Y-87913343D01*
X118550000Y-87913343D01*
X118550000Y-87928500D01*
X118570000Y-87928500D01*
X118570000Y-88182500D01*
X118550000Y-88182500D01*
X118550000Y-88197657D01*
X118296000Y-88197657D01*
X118296000Y-88182500D01*
X117146750Y-88182500D01*
X116988000Y-88341250D01*
X116997794Y-88457990D01*
X117034680Y-88577512D01*
X117094174Y-88687541D01*
X117173990Y-88783850D01*
X117240157Y-88837621D01*
X117240157Y-89130500D01*
X117247513Y-89205189D01*
X117262775Y-89255500D01*
X117247513Y-89305811D01*
X117240157Y-89380500D01*
X117240157Y-89930500D01*
X117241831Y-89947500D01*
X117006250Y-89947500D01*
X116920460Y-89861710D01*
X116801895Y-89782488D01*
X116670154Y-89727919D01*
X116530298Y-89700100D01*
X116387702Y-89700100D01*
X116247846Y-89727919D01*
X116116105Y-89782488D01*
X115997540Y-89861710D01*
X115896710Y-89962540D01*
X115817488Y-90081105D01*
X115762919Y-90212846D01*
X115735100Y-90352702D01*
X115735100Y-90495298D01*
X115762919Y-90635154D01*
X115817488Y-90766895D01*
X115896710Y-90885460D01*
X115997540Y-90986290D01*
X116116105Y-91065512D01*
X116247846Y-91120081D01*
X116387702Y-91147900D01*
X116530298Y-91147900D01*
X116670154Y-91120081D01*
X116801895Y-91065512D01*
X116920460Y-90986290D01*
X116943250Y-90963500D01*
X117241831Y-90963500D01*
X117240157Y-90980500D01*
X117240157Y-91522657D01*
X116698000Y-91522657D01*
X116623311Y-91530013D01*
X116573000Y-91545275D01*
X116522689Y-91530013D01*
X116448000Y-91522657D01*
X115898000Y-91522657D01*
X115823311Y-91530013D01*
X115773000Y-91545275D01*
X115722689Y-91530013D01*
X115648000Y-91522657D01*
X115098000Y-91522657D01*
X115023311Y-91530013D01*
X114973000Y-91545275D01*
X114922689Y-91530013D01*
X114848000Y-91522657D01*
X114298000Y-91522657D01*
X114223311Y-91530013D01*
X114173000Y-91545275D01*
X114122689Y-91530013D01*
X114048000Y-91522657D01*
X113498000Y-91522657D01*
X113423311Y-91530013D01*
X113373000Y-91545275D01*
X113322689Y-91530013D01*
X113248000Y-91522657D01*
X112698000Y-91522657D01*
X112623311Y-91530013D01*
X112573000Y-91545275D01*
X112522689Y-91530013D01*
X112448000Y-91522657D01*
X111898000Y-91522657D01*
X111823311Y-91530013D01*
X111773000Y-91545275D01*
X111722689Y-91530013D01*
X111648000Y-91522657D01*
X111105843Y-91522657D01*
X111105843Y-90980500D01*
X111098487Y-90905811D01*
X111083225Y-90855500D01*
X111098487Y-90805189D01*
X111105843Y-90730500D01*
X111105843Y-90294879D01*
X111244202Y-90322400D01*
X111386798Y-90322400D01*
X111526654Y-90294581D01*
X111658395Y-90240012D01*
X111776960Y-90160790D01*
X111877790Y-90059960D01*
X111957012Y-89941395D01*
X112011581Y-89809654D01*
X112039400Y-89669798D01*
X112039400Y-89527202D01*
X112011581Y-89387346D01*
X111957012Y-89255605D01*
X111877790Y-89137040D01*
X111776960Y-89036210D01*
X111658395Y-88956988D01*
X111526654Y-88902419D01*
X111386798Y-88874600D01*
X111244202Y-88874600D01*
X111104346Y-88902419D01*
X110972605Y-88956988D01*
X110934423Y-88982500D01*
X110050000Y-88982500D01*
X110050000Y-88997657D01*
X109796000Y-88997657D01*
X109796000Y-88982500D01*
X109776000Y-88982500D01*
X109776000Y-88728500D01*
X109796000Y-88728500D01*
X109796000Y-88713343D01*
X110050000Y-88713343D01*
X110050000Y-88728500D01*
X111199250Y-88728500D01*
X111234758Y-88692992D01*
X111253970Y-88696814D01*
X111396566Y-88696814D01*
X111536422Y-88668995D01*
X111668163Y-88614426D01*
X111786728Y-88535204D01*
X111887558Y-88434374D01*
X111966780Y-88315809D01*
X112021349Y-88184068D01*
X112049168Y-88044212D01*
X112049168Y-87901616D01*
X112021349Y-87761760D01*
X111966780Y-87630019D01*
X111887558Y-87511454D01*
X111786728Y-87410624D01*
X111668163Y-87331402D01*
X111536422Y-87276833D01*
X111396566Y-87249014D01*
X111358000Y-87249014D01*
X111358000Y-87128498D01*
X111199252Y-87128498D01*
X111358000Y-86969750D01*
X111354398Y-86926819D01*
X112369600Y-87942021D01*
X112369600Y-88018798D01*
X112397419Y-88158654D01*
X112451988Y-88290395D01*
X112531210Y-88408960D01*
X112632040Y-88509790D01*
X112750605Y-88589012D01*
X112882346Y-88643581D01*
X113022202Y-88671400D01*
X113164798Y-88671400D01*
X113304654Y-88643581D01*
X113436395Y-88589012D01*
X113554960Y-88509790D01*
X113618030Y-88446720D01*
X113658488Y-88544395D01*
X113737710Y-88662960D01*
X113838540Y-88763790D01*
X113957105Y-88843012D01*
X114088846Y-88897581D01*
X114228702Y-88925400D01*
X114371298Y-88925400D01*
X114511154Y-88897581D01*
X114642895Y-88843012D01*
X114761460Y-88763790D01*
X114862290Y-88662960D01*
X114941512Y-88544395D01*
X114996081Y-88412654D01*
X115023900Y-88272798D01*
X115023900Y-88130202D01*
X114996081Y-87990346D01*
X114941512Y-87858605D01*
X114890169Y-87781764D01*
X114977846Y-87818081D01*
X115117702Y-87845900D01*
X115260298Y-87845900D01*
X115400154Y-87818081D01*
X115531895Y-87763512D01*
X115650460Y-87684290D01*
X115751290Y-87583460D01*
X115830512Y-87464895D01*
X115885081Y-87333154D01*
X115912900Y-87193298D01*
X115912900Y-87050702D01*
X115885081Y-86910846D01*
X115830512Y-86779105D01*
X115751290Y-86660540D01*
X115650460Y-86559710D01*
X115531895Y-86480488D01*
X115400154Y-86425919D01*
X115260298Y-86398100D01*
X115117702Y-86398100D01*
X114977846Y-86425919D01*
X114846105Y-86480488D01*
X114727540Y-86559710D01*
X114626710Y-86660540D01*
X114547488Y-86779105D01*
X114492919Y-86910846D01*
X114465100Y-87050702D01*
X114465100Y-87193298D01*
X114492919Y-87333154D01*
X114547488Y-87464895D01*
X114598831Y-87541736D01*
X114511154Y-87505419D01*
X114371298Y-87477600D01*
X114294520Y-87477600D01*
X112205263Y-85388343D01*
X112448000Y-85388343D01*
X112522689Y-85380987D01*
X112573000Y-85365725D01*
X112623311Y-85380987D01*
X112698000Y-85388343D01*
X113248000Y-85388343D01*
X113322689Y-85380987D01*
X113373000Y-85365725D01*
X113423311Y-85380987D01*
X113498000Y-85388343D01*
X114048000Y-85388343D01*
X114122689Y-85380987D01*
X114173000Y-85365725D01*
X114223311Y-85380987D01*
X114298000Y-85388343D01*
X114848000Y-85388343D01*
X114922689Y-85380987D01*
X114973000Y-85365725D01*
X115023311Y-85380987D01*
X115098000Y-85388343D01*
X115648000Y-85388343D01*
X115722689Y-85380987D01*
X115773000Y-85365725D01*
X115823311Y-85380987D01*
X115898000Y-85388343D01*
X116448000Y-85388343D01*
X116522689Y-85380987D01*
X116573000Y-85365725D01*
X116623311Y-85380987D01*
G37*
X116623311Y-85380987D02*
X116698000Y-85388343D01*
X117240157Y-85388343D01*
X117240157Y-85930500D01*
X117247513Y-86005189D01*
X117262775Y-86055500D01*
X117247513Y-86105811D01*
X117240157Y-86180500D01*
X117240157Y-86730500D01*
X117247513Y-86805189D01*
X117262775Y-86855500D01*
X117247513Y-86905811D01*
X117240157Y-86980500D01*
X117240157Y-87273379D01*
X117173990Y-87327150D01*
X117094174Y-87423459D01*
X117034680Y-87533488D01*
X116997794Y-87653010D01*
X116988000Y-87769750D01*
X117146750Y-87928500D01*
X118296000Y-87928500D01*
X118296000Y-87913343D01*
X118550000Y-87913343D01*
X118550000Y-87928500D01*
X118570000Y-87928500D01*
X118570000Y-88182500D01*
X118550000Y-88182500D01*
X118550000Y-88197657D01*
X118296000Y-88197657D01*
X118296000Y-88182500D01*
X117146750Y-88182500D01*
X116988000Y-88341250D01*
X116997794Y-88457990D01*
X117034680Y-88577512D01*
X117094174Y-88687541D01*
X117173990Y-88783850D01*
X117240157Y-88837621D01*
X117240157Y-89130500D01*
X117247513Y-89205189D01*
X117262775Y-89255500D01*
X117247513Y-89305811D01*
X117240157Y-89380500D01*
X117240157Y-89930500D01*
X117241831Y-89947500D01*
X117006250Y-89947500D01*
X116920460Y-89861710D01*
X116801895Y-89782488D01*
X116670154Y-89727919D01*
X116530298Y-89700100D01*
X116387702Y-89700100D01*
X116247846Y-89727919D01*
X116116105Y-89782488D01*
X115997540Y-89861710D01*
X115896710Y-89962540D01*
X115817488Y-90081105D01*
X115762919Y-90212846D01*
X115735100Y-90352702D01*
X115735100Y-90495298D01*
X115762919Y-90635154D01*
X115817488Y-90766895D01*
X115896710Y-90885460D01*
X115997540Y-90986290D01*
X116116105Y-91065512D01*
X116247846Y-91120081D01*
X116387702Y-91147900D01*
X116530298Y-91147900D01*
X116670154Y-91120081D01*
X116801895Y-91065512D01*
X116920460Y-90986290D01*
X116943250Y-90963500D01*
X117241831Y-90963500D01*
X117240157Y-90980500D01*
X117240157Y-91522657D01*
X116698000Y-91522657D01*
X116623311Y-91530013D01*
X116573000Y-91545275D01*
X116522689Y-91530013D01*
X116448000Y-91522657D01*
X115898000Y-91522657D01*
X115823311Y-91530013D01*
X115773000Y-91545275D01*
X115722689Y-91530013D01*
X115648000Y-91522657D01*
X115098000Y-91522657D01*
X115023311Y-91530013D01*
X114973000Y-91545275D01*
X114922689Y-91530013D01*
X114848000Y-91522657D01*
X114298000Y-91522657D01*
X114223311Y-91530013D01*
X114173000Y-91545275D01*
X114122689Y-91530013D01*
X114048000Y-91522657D01*
X113498000Y-91522657D01*
X113423311Y-91530013D01*
X113373000Y-91545275D01*
X113322689Y-91530013D01*
X113248000Y-91522657D01*
X112698000Y-91522657D01*
X112623311Y-91530013D01*
X112573000Y-91545275D01*
X112522689Y-91530013D01*
X112448000Y-91522657D01*
X111898000Y-91522657D01*
X111823311Y-91530013D01*
X111773000Y-91545275D01*
X111722689Y-91530013D01*
X111648000Y-91522657D01*
X111105843Y-91522657D01*
X111105843Y-90980500D01*
X111098487Y-90905811D01*
X111083225Y-90855500D01*
X111098487Y-90805189D01*
X111105843Y-90730500D01*
X111105843Y-90294879D01*
X111244202Y-90322400D01*
X111386798Y-90322400D01*
X111526654Y-90294581D01*
X111658395Y-90240012D01*
X111776960Y-90160790D01*
X111877790Y-90059960D01*
X111957012Y-89941395D01*
X112011581Y-89809654D01*
X112039400Y-89669798D01*
X112039400Y-89527202D01*
X112011581Y-89387346D01*
X111957012Y-89255605D01*
X111877790Y-89137040D01*
X111776960Y-89036210D01*
X111658395Y-88956988D01*
X111526654Y-88902419D01*
X111386798Y-88874600D01*
X111244202Y-88874600D01*
X111104346Y-88902419D01*
X110972605Y-88956988D01*
X110934423Y-88982500D01*
X110050000Y-88982500D01*
X110050000Y-88997657D01*
X109796000Y-88997657D01*
X109796000Y-88982500D01*
X109776000Y-88982500D01*
X109776000Y-88728500D01*
X109796000Y-88728500D01*
X109796000Y-88713343D01*
X110050000Y-88713343D01*
X110050000Y-88728500D01*
X111199250Y-88728500D01*
X111234758Y-88692992D01*
X111253970Y-88696814D01*
X111396566Y-88696814D01*
X111536422Y-88668995D01*
X111668163Y-88614426D01*
X111786728Y-88535204D01*
X111887558Y-88434374D01*
X111966780Y-88315809D01*
X112021349Y-88184068D01*
X112049168Y-88044212D01*
X112049168Y-87901616D01*
X112021349Y-87761760D01*
X111966780Y-87630019D01*
X111887558Y-87511454D01*
X111786728Y-87410624D01*
X111668163Y-87331402D01*
X111536422Y-87276833D01*
X111396566Y-87249014D01*
X111358000Y-87249014D01*
X111358000Y-87128498D01*
X111199252Y-87128498D01*
X111358000Y-86969750D01*
X111354398Y-86926819D01*
X112369600Y-87942021D01*
X112369600Y-88018798D01*
X112397419Y-88158654D01*
X112451988Y-88290395D01*
X112531210Y-88408960D01*
X112632040Y-88509790D01*
X112750605Y-88589012D01*
X112882346Y-88643581D01*
X113022202Y-88671400D01*
X113164798Y-88671400D01*
X113304654Y-88643581D01*
X113436395Y-88589012D01*
X113554960Y-88509790D01*
X113618030Y-88446720D01*
X113658488Y-88544395D01*
X113737710Y-88662960D01*
X113838540Y-88763790D01*
X113957105Y-88843012D01*
X114088846Y-88897581D01*
X114228702Y-88925400D01*
X114371298Y-88925400D01*
X114511154Y-88897581D01*
X114642895Y-88843012D01*
X114761460Y-88763790D01*
X114862290Y-88662960D01*
X114941512Y-88544395D01*
X114996081Y-88412654D01*
X115023900Y-88272798D01*
X115023900Y-88130202D01*
X114996081Y-87990346D01*
X114941512Y-87858605D01*
X114890169Y-87781764D01*
X114977846Y-87818081D01*
X115117702Y-87845900D01*
X115260298Y-87845900D01*
X115400154Y-87818081D01*
X115531895Y-87763512D01*
X115650460Y-87684290D01*
X115751290Y-87583460D01*
X115830512Y-87464895D01*
X115885081Y-87333154D01*
X115912900Y-87193298D01*
X115912900Y-87050702D01*
X115885081Y-86910846D01*
X115830512Y-86779105D01*
X115751290Y-86660540D01*
X115650460Y-86559710D01*
X115531895Y-86480488D01*
X115400154Y-86425919D01*
X115260298Y-86398100D01*
X115117702Y-86398100D01*
X114977846Y-86425919D01*
X114846105Y-86480488D01*
X114727540Y-86559710D01*
X114626710Y-86660540D01*
X114547488Y-86779105D01*
X114492919Y-86910846D01*
X114465100Y-87050702D01*
X114465100Y-87193298D01*
X114492919Y-87333154D01*
X114547488Y-87464895D01*
X114598831Y-87541736D01*
X114511154Y-87505419D01*
X114371298Y-87477600D01*
X114294520Y-87477600D01*
X112205263Y-85388343D01*
X112448000Y-85388343D01*
X112522689Y-85380987D01*
X112573000Y-85365725D01*
X112623311Y-85380987D01*
X112698000Y-85388343D01*
X113248000Y-85388343D01*
X113322689Y-85380987D01*
X113373000Y-85365725D01*
X113423311Y-85380987D01*
X113498000Y-85388343D01*
X114048000Y-85388343D01*
X114122689Y-85380987D01*
X114173000Y-85365725D01*
X114223311Y-85380987D01*
X114298000Y-85388343D01*
X114848000Y-85388343D01*
X114922689Y-85380987D01*
X114973000Y-85365725D01*
X115023311Y-85380987D01*
X115098000Y-85388343D01*
X115648000Y-85388343D01*
X115722689Y-85380987D01*
X115773000Y-85365725D01*
X115823311Y-85380987D01*
X115898000Y-85388343D01*
X116448000Y-85388343D01*
X116522689Y-85380987D01*
X116573000Y-85365725D01*
X116623311Y-85380987D01*
G36*
X121043951Y-87354470D02*
G01*
X121099544Y-87458477D01*
X121174360Y-87549640D01*
X121265523Y-87624456D01*
X121313781Y-87650250D01*
X121314543Y-87657990D01*
X121317852Y-87691585D01*
X121339303Y-87762299D01*
X121346900Y-87787343D01*
X121394071Y-87875595D01*
X121436610Y-87927429D01*
X121457553Y-87952948D01*
X121476930Y-87968850D01*
X121874157Y-88366077D01*
X121874157Y-88932000D01*
X121883746Y-89029359D01*
X121805815Y-89093315D01*
X121726463Y-89190006D01*
X121667498Y-89300320D01*
X121631188Y-89420018D01*
X121618928Y-89544500D01*
X121622000Y-89871250D01*
X121780750Y-90030000D01*
X122555000Y-90030000D01*
X122555000Y-90010000D01*
X122809000Y-90010000D01*
X122809000Y-90030000D01*
X122829000Y-90030000D01*
X122829000Y-90284000D01*
X122809000Y-90284000D01*
X122809000Y-90304000D01*
X122555000Y-90304000D01*
X122555000Y-90284000D01*
X121780750Y-90284000D01*
X121622000Y-90442750D01*
X121619135Y-90747500D01*
X120908163Y-90747500D01*
X120950640Y-90712640D01*
X121025456Y-90621477D01*
X121081049Y-90517470D01*
X121115284Y-90404615D01*
X121126843Y-90287250D01*
X121126843Y-89849750D01*
X121115284Y-89732385D01*
X121081049Y-89619530D01*
X121025456Y-89515523D01*
X121016930Y-89505134D01*
X121098494Y-89461537D01*
X121195185Y-89382185D01*
X121274537Y-89285494D01*
X121333502Y-89175180D01*
X121369812Y-89055482D01*
X121382072Y-88931000D01*
X121379000Y-88779250D01*
X121220250Y-88620500D01*
X120396000Y-88620500D01*
X120396000Y-88640500D01*
X120142000Y-88640500D01*
X120142000Y-88620500D01*
X120122000Y-88620500D01*
X120122000Y-88366500D01*
X120142000Y-88366500D01*
X120142000Y-88346500D01*
X120396000Y-88346500D01*
X120396000Y-88366500D01*
X121220250Y-88366500D01*
X121379000Y-88207750D01*
X121382072Y-88056000D01*
X121369812Y-87931518D01*
X121333502Y-87811820D01*
X121274537Y-87701506D01*
X121195185Y-87604815D01*
X121098494Y-87525463D01*
X120988180Y-87466498D01*
X120962313Y-87458651D01*
X120962456Y-87458477D01*
X121018049Y-87354470D01*
X121031000Y-87311777D01*
X121043951Y-87354470D01*
G37*
X121043951Y-87354470D02*
X121099544Y-87458477D01*
X121174360Y-87549640D01*
X121265523Y-87624456D01*
X121313781Y-87650250D01*
X121314543Y-87657990D01*
X121317852Y-87691585D01*
X121339303Y-87762299D01*
X121346900Y-87787343D01*
X121394071Y-87875595D01*
X121436610Y-87927429D01*
X121457553Y-87952948D01*
X121476930Y-87968850D01*
X121874157Y-88366077D01*
X121874157Y-88932000D01*
X121883746Y-89029359D01*
X121805815Y-89093315D01*
X121726463Y-89190006D01*
X121667498Y-89300320D01*
X121631188Y-89420018D01*
X121618928Y-89544500D01*
X121622000Y-89871250D01*
X121780750Y-90030000D01*
X122555000Y-90030000D01*
X122555000Y-90010000D01*
X122809000Y-90010000D01*
X122809000Y-90030000D01*
X122829000Y-90030000D01*
X122829000Y-90284000D01*
X122809000Y-90284000D01*
X122809000Y-90304000D01*
X122555000Y-90304000D01*
X122555000Y-90284000D01*
X121780750Y-90284000D01*
X121622000Y-90442750D01*
X121619135Y-90747500D01*
X120908163Y-90747500D01*
X120950640Y-90712640D01*
X121025456Y-90621477D01*
X121081049Y-90517470D01*
X121115284Y-90404615D01*
X121126843Y-90287250D01*
X121126843Y-89849750D01*
X121115284Y-89732385D01*
X121081049Y-89619530D01*
X121025456Y-89515523D01*
X121016930Y-89505134D01*
X121098494Y-89461537D01*
X121195185Y-89382185D01*
X121274537Y-89285494D01*
X121333502Y-89175180D01*
X121369812Y-89055482D01*
X121382072Y-88931000D01*
X121379000Y-88779250D01*
X121220250Y-88620500D01*
X120396000Y-88620500D01*
X120396000Y-88640500D01*
X120142000Y-88640500D01*
X120142000Y-88620500D01*
X120122000Y-88620500D01*
X120122000Y-88366500D01*
X120142000Y-88366500D01*
X120142000Y-88346500D01*
X120396000Y-88346500D01*
X120396000Y-88366500D01*
X121220250Y-88366500D01*
X121379000Y-88207750D01*
X121382072Y-88056000D01*
X121369812Y-87931518D01*
X121333502Y-87811820D01*
X121274537Y-87701506D01*
X121195185Y-87604815D01*
X121098494Y-87525463D01*
X120988180Y-87466498D01*
X120962313Y-87458651D01*
X120962456Y-87458477D01*
X121018049Y-87354470D01*
X121031000Y-87311777D01*
X121043951Y-87354470D01*
G36*
X107403000Y-88689000D02*
G01*
X107423000Y-88689000D01*
X107423000Y-88943000D01*
X107403000Y-88943000D01*
X107403000Y-88963000D01*
X107149000Y-88963000D01*
X107149000Y-88943000D01*
X107129000Y-88943000D01*
X107129000Y-88689000D01*
X107149000Y-88689000D01*
X107149000Y-88669000D01*
X107403000Y-88669000D01*
X107403000Y-88689000D01*
G37*
X107403000Y-88689000D02*
X107423000Y-88689000D01*
X107423000Y-88943000D01*
X107403000Y-88943000D01*
X107403000Y-88963000D01*
X107149000Y-88963000D01*
X107149000Y-88943000D01*
X107129000Y-88943000D01*
X107129000Y-88689000D01*
X107149000Y-88689000D01*
X107149000Y-88669000D01*
X107403000Y-88669000D01*
X107403000Y-88689000D01*
G36*
X110050000Y-87128500D02*
G01*
X110070000Y-87128500D01*
X110070000Y-87382500D01*
X110050000Y-87382500D01*
X110050000Y-87397657D01*
X109796000Y-87397657D01*
X109796000Y-87382500D01*
X109776000Y-87382500D01*
X109776000Y-87128500D01*
X109796000Y-87128500D01*
X109796000Y-87113343D01*
X110050000Y-87113343D01*
X110050000Y-87128500D01*
G37*
X110050000Y-87128500D02*
X110070000Y-87128500D01*
X110070000Y-87382500D01*
X110050000Y-87382500D01*
X110050000Y-87397657D01*
X109796000Y-87397657D01*
X109796000Y-87382500D01*
X109776000Y-87382500D01*
X109776000Y-87128500D01*
X109796000Y-87128500D01*
X109796000Y-87113343D01*
X110050000Y-87113343D01*
X110050000Y-87128500D01*
%TO.N,+5V*%
G36*
X120704188Y-99540018D02*
G01*
X120691928Y-99664500D01*
X120695000Y-99853750D01*
X120853750Y-100012500D01*
X121640500Y-100012500D01*
X121640500Y-99992500D01*
X121894500Y-99992500D01*
X121894500Y-100012500D01*
X121914500Y-100012500D01*
X121914500Y-100266500D01*
X121894500Y-100266500D01*
X121894500Y-101090750D01*
X121913322Y-101109572D01*
X120787689Y-102235205D01*
X120797312Y-102203482D01*
X120809572Y-102079000D01*
X120806500Y-101764750D01*
X120647750Y-101606000D01*
X119198500Y-101606000D01*
X119198500Y-101626000D01*
X118944500Y-101626000D01*
X118944500Y-101606000D01*
X118924500Y-101606000D01*
X118924500Y-101352000D01*
X118944500Y-101352000D01*
X118944500Y-100402750D01*
X119198500Y-100402750D01*
X119198500Y-101352000D01*
X120647750Y-101352000D01*
X120806500Y-101193250D01*
X120808584Y-100980108D01*
X120878815Y-101065685D01*
X120975506Y-101145037D01*
X121085820Y-101204002D01*
X121205518Y-101240312D01*
X121330000Y-101252572D01*
X121481750Y-101249500D01*
X121640500Y-101090750D01*
X121640500Y-100266500D01*
X120853750Y-100266500D01*
X120695000Y-100425250D01*
X120693557Y-100514173D01*
X120622685Y-100427815D01*
X120525994Y-100348463D01*
X120415680Y-100289498D01*
X120295982Y-100253188D01*
X120171500Y-100240928D01*
X119357250Y-100244000D01*
X119198500Y-100402750D01*
X118944500Y-100402750D01*
X118785750Y-100244000D01*
X117971500Y-100240928D01*
X117847018Y-100253188D01*
X117727320Y-100289498D01*
X117617006Y-100348463D01*
X117602000Y-100360778D01*
X117602000Y-99966150D01*
X118063650Y-99504500D01*
X120714962Y-99504500D01*
X120704188Y-99540018D01*
G37*
X120704188Y-99540018D02*
X120691928Y-99664500D01*
X120695000Y-99853750D01*
X120853750Y-100012500D01*
X121640500Y-100012500D01*
X121640500Y-99992500D01*
X121894500Y-99992500D01*
X121894500Y-100012500D01*
X121914500Y-100012500D01*
X121914500Y-100266500D01*
X121894500Y-100266500D01*
X121894500Y-101090750D01*
X121913322Y-101109572D01*
X120787689Y-102235205D01*
X120797312Y-102203482D01*
X120809572Y-102079000D01*
X120806500Y-101764750D01*
X120647750Y-101606000D01*
X119198500Y-101606000D01*
X119198500Y-101626000D01*
X118944500Y-101626000D01*
X118944500Y-101606000D01*
X118924500Y-101606000D01*
X118924500Y-101352000D01*
X118944500Y-101352000D01*
X118944500Y-100402750D01*
X119198500Y-100402750D01*
X119198500Y-101352000D01*
X120647750Y-101352000D01*
X120806500Y-101193250D01*
X120808584Y-100980108D01*
X120878815Y-101065685D01*
X120975506Y-101145037D01*
X121085820Y-101204002D01*
X121205518Y-101240312D01*
X121330000Y-101252572D01*
X121481750Y-101249500D01*
X121640500Y-101090750D01*
X121640500Y-100266500D01*
X120853750Y-100266500D01*
X120695000Y-100425250D01*
X120693557Y-100514173D01*
X120622685Y-100427815D01*
X120525994Y-100348463D01*
X120415680Y-100289498D01*
X120295982Y-100253188D01*
X120171500Y-100240928D01*
X119357250Y-100244000D01*
X119198500Y-100402750D01*
X118944500Y-100402750D01*
X118785750Y-100244000D01*
X117971500Y-100240928D01*
X117847018Y-100253188D01*
X117727320Y-100289498D01*
X117617006Y-100348463D01*
X117602000Y-100360778D01*
X117602000Y-99966150D01*
X118063650Y-99504500D01*
X120714962Y-99504500D01*
X120704188Y-99540018D01*
%TD*%
M02*
