M48
; DRILL file {KiCad (5.1.6)-1} date 01/30/21 09:31:08
; FORMAT={-:-/ absolute / metric / decimal}
; #@! TF.CreationDate,2021-01-30T09:31:08-07:00
; #@! TF.GenerationSoftware,Kicad,Pcbnew,(5.1.6)-1
FMAT,2
METRIC
T1C0.330
T2C0.500
T3C1.000
T4C3.000
%
G90
G05
T1
X108.267Y-85.217
X111.316Y-89.599
X111.325Y-87.973
X111.887Y-81.09
X111.887Y-81.852
X111.887Y-82.74
X112.712Y-82.74
X112.776Y-89.535
X113.093Y-87.947
X113.855Y-79.184
X114.3Y-88.201
X115.189Y-87.122
X115.252Y-79.438
X116.459Y-90.424
X117.919Y-99.822
X118.554Y-82.042
X118.808Y-99.822
X119.697Y-99.822
X120.523Y-83.757
X120.523Y-99.885
X121.412Y-83.757
X121.475Y-84.645
X121.475Y-88.519
X121.539Y-90.043
X122.237Y-83.757
X122.301Y-84.645
T2
X96.161Y-97.9
X96.82Y-96.309
X96.82Y-99.491
X98.411Y-95.65
X98.411Y-100.15
X100.002Y-96.309
X100.002Y-99.491
X100.661Y-97.9
X112.05Y-70.9
X112.709Y-69.309
X112.709Y-72.491
X114.3Y-68.65
X114.3Y-73.15
X115.891Y-69.309
X115.891Y-72.491
X116.55Y-70.9
X127.635Y-97.9
X128.294Y-96.309
X128.294Y-99.491
X129.885Y-95.65
X129.885Y-100.15
X131.476Y-96.309
X131.476Y-99.491
X132.135Y-97.9
T3
X125.095Y-75.882
X125.095Y-78.422
X125.095Y-80.962
X125.095Y-83.502
X125.095Y-86.042
X125.095Y-88.582
X125.095Y-91.123
X125.095Y-93.662
X109.029Y-97.599
X111.569Y-97.599
X114.109Y-97.599
X116.649Y-97.599
X119.189Y-97.599
T4
X98.411Y-97.9
X114.3Y-70.9
X129.885Y-97.9
T0
M30
