%TF.GenerationSoftware,KiCad,Pcbnew,(5.1.6)-1*%
%TF.CreationDate,2021-01-30T09:31:10-07:00*%
%TF.ProjectId,MotorSpeedController,4d6f746f-7253-4706-9565-64436f6e7472,rev?*%
%TF.SameCoordinates,Original*%
%TF.FileFunction,Paste,Top*%
%TF.FilePolarity,Positive*%
%FSLAX46Y46*%
G04 Gerber Fmt 4.6, Leading zero omitted, Abs format (unit mm)*
G04 Created by KiCad (PCBNEW (5.1.6)-1) date 2021-01-30 09:31:10*
%MOMM*%
%LPD*%
G01*
G04 APERTURE LIST*
%ADD10R,1.200000X1.400000*%
%ADD11R,3.050000X2.750000*%
%ADD12R,2.200000X1.200000*%
%ADD13R,0.550000X1.600000*%
%ADD14R,1.600000X0.550000*%
G04 APERTURE END LIST*
D10*
%TO.C,Y1*%
X105576000Y-91016000D03*
X105576000Y-88816000D03*
X107276000Y-88816000D03*
X107276000Y-91016000D03*
%TD*%
%TO.C,D3*%
G36*
G01*
X106244500Y-99349500D02*
X104194500Y-99349500D01*
G75*
G02*
X103944500Y-99099500I0J250000D01*
G01*
X103944500Y-97899500D01*
G75*
G02*
X104194500Y-97649500I250000J0D01*
G01*
X106244500Y-97649500D01*
G75*
G02*
X106494500Y-97899500I0J-250000D01*
G01*
X106494500Y-99099500D01*
G75*
G02*
X106244500Y-99349500I-250000J0D01*
G01*
G37*
G36*
G01*
X106244500Y-103899500D02*
X104194500Y-103899500D01*
G75*
G02*
X103944500Y-103649500I0J250000D01*
G01*
X103944500Y-102449500D01*
G75*
G02*
X104194500Y-102199500I250000J0D01*
G01*
X106244500Y-102199500D01*
G75*
G02*
X106494500Y-102449500I0J-250000D01*
G01*
X106494500Y-103649500D01*
G75*
G02*
X106244500Y-103899500I-250000J0D01*
G01*
G37*
%TD*%
D11*
%TO.C,U3*%
X114446500Y-102234000D03*
X111096500Y-105284000D03*
X114446500Y-105284000D03*
X111096500Y-102234000D03*
D12*
X119071500Y-101479000D03*
X119071500Y-106039000D03*
%TD*%
%TO.C,C9*%
G36*
G01*
X122905000Y-100395750D02*
X122905000Y-99883250D01*
G75*
G02*
X123123750Y-99664500I218750J0D01*
G01*
X123561250Y-99664500D01*
G75*
G02*
X123780000Y-99883250I0J-218750D01*
G01*
X123780000Y-100395750D01*
G75*
G02*
X123561250Y-100614500I-218750J0D01*
G01*
X123123750Y-100614500D01*
G75*
G02*
X122905000Y-100395750I0J218750D01*
G01*
G37*
G36*
G01*
X121330000Y-100395750D02*
X121330000Y-99883250D01*
G75*
G02*
X121548750Y-99664500I218750J0D01*
G01*
X121986250Y-99664500D01*
G75*
G02*
X122205000Y-99883250I0J-218750D01*
G01*
X122205000Y-100395750D01*
G75*
G02*
X121986250Y-100614500I-218750J0D01*
G01*
X121548750Y-100614500D01*
G75*
G02*
X121330000Y-100395750I0J218750D01*
G01*
G37*
%TD*%
%TO.C,C8*%
G36*
G01*
X122841500Y-106301250D02*
X122841500Y-105788750D01*
G75*
G02*
X123060250Y-105570000I218750J0D01*
G01*
X123497750Y-105570000D01*
G75*
G02*
X123716500Y-105788750I0J-218750D01*
G01*
X123716500Y-106301250D01*
G75*
G02*
X123497750Y-106520000I-218750J0D01*
G01*
X123060250Y-106520000D01*
G75*
G02*
X122841500Y-106301250I0J218750D01*
G01*
G37*
G36*
G01*
X121266500Y-106301250D02*
X121266500Y-105788750D01*
G75*
G02*
X121485250Y-105570000I218750J0D01*
G01*
X121922750Y-105570000D01*
G75*
G02*
X122141500Y-105788750I0J-218750D01*
G01*
X122141500Y-106301250D01*
G75*
G02*
X121922750Y-106520000I-218750J0D01*
G01*
X121485250Y-106520000D01*
G75*
G02*
X121266500Y-106301250I0J218750D01*
G01*
G37*
%TD*%
%TO.C,C7*%
G36*
G01*
X122841500Y-104650250D02*
X122841500Y-104137750D01*
G75*
G02*
X123060250Y-103919000I218750J0D01*
G01*
X123497750Y-103919000D01*
G75*
G02*
X123716500Y-104137750I0J-218750D01*
G01*
X123716500Y-104650250D01*
G75*
G02*
X123497750Y-104869000I-218750J0D01*
G01*
X123060250Y-104869000D01*
G75*
G02*
X122841500Y-104650250I0J218750D01*
G01*
G37*
G36*
G01*
X121266500Y-104650250D02*
X121266500Y-104137750D01*
G75*
G02*
X121485250Y-103919000I218750J0D01*
G01*
X121922750Y-103919000D01*
G75*
G02*
X122141500Y-104137750I0J-218750D01*
G01*
X122141500Y-104650250D01*
G75*
G02*
X121922750Y-104869000I-218750J0D01*
G01*
X121485250Y-104869000D01*
G75*
G02*
X121266500Y-104650250I0J218750D01*
G01*
G37*
%TD*%
%TO.C,C6*%
G36*
G01*
X122841500Y-102999250D02*
X122841500Y-102486750D01*
G75*
G02*
X123060250Y-102268000I218750J0D01*
G01*
X123497750Y-102268000D01*
G75*
G02*
X123716500Y-102486750I0J-218750D01*
G01*
X123716500Y-102999250D01*
G75*
G02*
X123497750Y-103218000I-218750J0D01*
G01*
X123060250Y-103218000D01*
G75*
G02*
X122841500Y-102999250I0J218750D01*
G01*
G37*
G36*
G01*
X121266500Y-102999250D02*
X121266500Y-102486750D01*
G75*
G02*
X121485250Y-102268000I218750J0D01*
G01*
X121922750Y-102268000D01*
G75*
G02*
X122141500Y-102486750I0J-218750D01*
G01*
X122141500Y-102999250D01*
G75*
G02*
X121922750Y-103218000I-218750J0D01*
G01*
X121485250Y-103218000D01*
G75*
G02*
X121266500Y-102999250I0J218750D01*
G01*
G37*
%TD*%
D13*
%TO.C,U1*%
X111373000Y-84205500D03*
X112173000Y-84205500D03*
X112973000Y-84205500D03*
X113773000Y-84205500D03*
X114573000Y-84205500D03*
X115373000Y-84205500D03*
X116173000Y-84205500D03*
X116973000Y-84205500D03*
D14*
X118423000Y-85655500D03*
X118423000Y-86455500D03*
X118423000Y-87255500D03*
X118423000Y-88055500D03*
X118423000Y-88855500D03*
X118423000Y-89655500D03*
X118423000Y-90455500D03*
X118423000Y-91255500D03*
D13*
X116973000Y-92705500D03*
X116173000Y-92705500D03*
X115373000Y-92705500D03*
X114573000Y-92705500D03*
X113773000Y-92705500D03*
X112973000Y-92705500D03*
X112173000Y-92705500D03*
X111373000Y-92705500D03*
D14*
X109923000Y-91255500D03*
X109923000Y-90455500D03*
X109923000Y-89655500D03*
X109923000Y-88855500D03*
X109923000Y-88055500D03*
X109923000Y-87255500D03*
X109923000Y-86455500D03*
X109923000Y-85655500D03*
%TD*%
%TO.C,R3*%
G36*
G01*
X115699250Y-81247500D02*
X115186750Y-81247500D01*
G75*
G02*
X114968000Y-81028750I0J218750D01*
G01*
X114968000Y-80591250D01*
G75*
G02*
X115186750Y-80372500I218750J0D01*
G01*
X115699250Y-80372500D01*
G75*
G02*
X115918000Y-80591250I0J-218750D01*
G01*
X115918000Y-81028750D01*
G75*
G02*
X115699250Y-81247500I-218750J0D01*
G01*
G37*
G36*
G01*
X115699250Y-82822500D02*
X115186750Y-82822500D01*
G75*
G02*
X114968000Y-82603750I0J218750D01*
G01*
X114968000Y-82166250D01*
G75*
G02*
X115186750Y-81947500I218750J0D01*
G01*
X115699250Y-81947500D01*
G75*
G02*
X115918000Y-82166250I0J-218750D01*
G01*
X115918000Y-82603750D01*
G75*
G02*
X115699250Y-82822500I-218750J0D01*
G01*
G37*
%TD*%
%TO.C,R2*%
G36*
G01*
X121381000Y-87124250D02*
X121381000Y-86611750D01*
G75*
G02*
X121599750Y-86393000I218750J0D01*
G01*
X122037250Y-86393000D01*
G75*
G02*
X122256000Y-86611750I0J-218750D01*
G01*
X122256000Y-87124250D01*
G75*
G02*
X122037250Y-87343000I-218750J0D01*
G01*
X121599750Y-87343000D01*
G75*
G02*
X121381000Y-87124250I0J218750D01*
G01*
G37*
G36*
G01*
X119806000Y-87124250D02*
X119806000Y-86611750D01*
G75*
G02*
X120024750Y-86393000I218750J0D01*
G01*
X120462250Y-86393000D01*
G75*
G02*
X120681000Y-86611750I0J-218750D01*
G01*
X120681000Y-87124250D01*
G75*
G02*
X120462250Y-87343000I-218750J0D01*
G01*
X120024750Y-87343000D01*
G75*
G02*
X119806000Y-87124250I0J218750D01*
G01*
G37*
%TD*%
%TO.C,R1*%
G36*
G01*
X113599250Y-81947500D02*
X114111750Y-81947500D01*
G75*
G02*
X114330500Y-82166250I0J-218750D01*
G01*
X114330500Y-82603750D01*
G75*
G02*
X114111750Y-82822500I-218750J0D01*
G01*
X113599250Y-82822500D01*
G75*
G02*
X113380500Y-82603750I0J218750D01*
G01*
X113380500Y-82166250D01*
G75*
G02*
X113599250Y-81947500I218750J0D01*
G01*
G37*
G36*
G01*
X113599250Y-80372500D02*
X114111750Y-80372500D01*
G75*
G02*
X114330500Y-80591250I0J-218750D01*
G01*
X114330500Y-81028750D01*
G75*
G02*
X114111750Y-81247500I-218750J0D01*
G01*
X113599250Y-81247500D01*
G75*
G02*
X113380500Y-81028750I0J218750D01*
G01*
X113380500Y-80591250D01*
G75*
G02*
X113599250Y-80372500I218750J0D01*
G01*
G37*
%TD*%
%TO.C,D2*%
G36*
G01*
X117243000Y-81080000D02*
X116818000Y-81080000D01*
G75*
G02*
X116605500Y-80867500I0J212500D01*
G01*
X116605500Y-80067500D01*
G75*
G02*
X116818000Y-79855000I212500J0D01*
G01*
X117243000Y-79855000D01*
G75*
G02*
X117455500Y-80067500I0J-212500D01*
G01*
X117455500Y-80867500D01*
G75*
G02*
X117243000Y-81080000I-212500J0D01*
G01*
G37*
G36*
G01*
X117243000Y-82705000D02*
X116818000Y-82705000D01*
G75*
G02*
X116605500Y-82492500I0J212500D01*
G01*
X116605500Y-81692500D01*
G75*
G02*
X116818000Y-81480000I212500J0D01*
G01*
X117243000Y-81480000D01*
G75*
G02*
X117455500Y-81692500I0J-212500D01*
G01*
X117455500Y-82492500D01*
G75*
G02*
X117243000Y-82705000I-212500J0D01*
G01*
G37*
%TD*%
%TO.C,D1*%
G36*
G01*
X122894500Y-89144500D02*
X122469500Y-89144500D01*
G75*
G02*
X122257000Y-88932000I0J212500D01*
G01*
X122257000Y-88132000D01*
G75*
G02*
X122469500Y-87919500I212500J0D01*
G01*
X122894500Y-87919500D01*
G75*
G02*
X123107000Y-88132000I0J-212500D01*
G01*
X123107000Y-88932000D01*
G75*
G02*
X122894500Y-89144500I-212500J0D01*
G01*
G37*
G36*
G01*
X122894500Y-90769500D02*
X122469500Y-90769500D01*
G75*
G02*
X122257000Y-90557000I0J212500D01*
G01*
X122257000Y-89757000D01*
G75*
G02*
X122469500Y-89544500I212500J0D01*
G01*
X122894500Y-89544500D01*
G75*
G02*
X123107000Y-89757000I0J-212500D01*
G01*
X123107000Y-90557000D01*
G75*
G02*
X122894500Y-90769500I-212500J0D01*
G01*
G37*
%TD*%
%TO.C,C4*%
G36*
G01*
X106139500Y-92517250D02*
X106139500Y-93029750D01*
G75*
G02*
X105920750Y-93248500I-218750J0D01*
G01*
X105483250Y-93248500D01*
G75*
G02*
X105264500Y-93029750I0J218750D01*
G01*
X105264500Y-92517250D01*
G75*
G02*
X105483250Y-92298500I218750J0D01*
G01*
X105920750Y-92298500D01*
G75*
G02*
X106139500Y-92517250I0J-218750D01*
G01*
G37*
G36*
G01*
X107714500Y-92517250D02*
X107714500Y-93029750D01*
G75*
G02*
X107495750Y-93248500I-218750J0D01*
G01*
X107058250Y-93248500D01*
G75*
G02*
X106839500Y-93029750I0J218750D01*
G01*
X106839500Y-92517250D01*
G75*
G02*
X107058250Y-92298500I218750J0D01*
G01*
X107495750Y-92298500D01*
G75*
G02*
X107714500Y-92517250I0J-218750D01*
G01*
G37*
%TD*%
%TO.C,C2*%
G36*
G01*
X103629750Y-90012000D02*
X104142250Y-90012000D01*
G75*
G02*
X104361000Y-90230750I0J-218750D01*
G01*
X104361000Y-90668250D01*
G75*
G02*
X104142250Y-90887000I-218750J0D01*
G01*
X103629750Y-90887000D01*
G75*
G02*
X103411000Y-90668250I0J218750D01*
G01*
X103411000Y-90230750D01*
G75*
G02*
X103629750Y-90012000I218750J0D01*
G01*
G37*
G36*
G01*
X103629750Y-88437000D02*
X104142250Y-88437000D01*
G75*
G02*
X104361000Y-88655750I0J-218750D01*
G01*
X104361000Y-89093250D01*
G75*
G02*
X104142250Y-89312000I-218750J0D01*
G01*
X103629750Y-89312000D01*
G75*
G02*
X103411000Y-89093250I0J218750D01*
G01*
X103411000Y-88655750D01*
G75*
G02*
X103629750Y-88437000I218750J0D01*
G01*
G37*
%TD*%
%TO.C,C1*%
G36*
G01*
X120525250Y-88931000D02*
X120012750Y-88931000D01*
G75*
G02*
X119794000Y-88712250I0J218750D01*
G01*
X119794000Y-88274750D01*
G75*
G02*
X120012750Y-88056000I218750J0D01*
G01*
X120525250Y-88056000D01*
G75*
G02*
X120744000Y-88274750I0J-218750D01*
G01*
X120744000Y-88712250D01*
G75*
G02*
X120525250Y-88931000I-218750J0D01*
G01*
G37*
G36*
G01*
X120525250Y-90506000D02*
X120012750Y-90506000D01*
G75*
G02*
X119794000Y-90287250I0J218750D01*
G01*
X119794000Y-89849750D01*
G75*
G02*
X120012750Y-89631000I218750J0D01*
G01*
X120525250Y-89631000D01*
G75*
G02*
X120744000Y-89849750I0J-218750D01*
G01*
X120744000Y-90287250D01*
G75*
G02*
X120525250Y-90506000I-218750J0D01*
G01*
G37*
%TD*%
M02*
