M48
; DRILL file {KiCad 6.0.1-79c1e3a40b~116~ubuntu21.10.1} date Thu 03 Mar 2022 06:49:28 PM MST
; FORMAT={-:-/ absolute / inch / decimal}
; #@! TF.CreationDate,2022-03-03T18:49:28-07:00
; #@! TF.GenerationSoftware,Kicad,Pcbnew,6.0.1-79c1e3a40b~116~ubuntu21.10.1
; #@! TF.FileFunction,Plated,1,2,PTH
FMAT,2
INCH
; #@! TA.AperFunction,Plated,PTH,ViaDrill
T1C0.0130
; #@! TA.AperFunction,Plated,PTH,ComponentDrill
T2C0.0197
; #@! TA.AperFunction,Plated,PTH,ComponentDrill
T3C0.0394
; #@! TA.AperFunction,Plated,PTH,ComponentDrill
T4C0.1181
%
G90
G05
T1
X4.3825Y-3.5275
X4.3829Y-3.4635
X4.405Y-3.1925
X4.405Y-3.2225
X4.405Y-3.2575
X4.4375Y-3.2575
X4.4525Y-3.4625
X4.4825Y-3.1175
X4.5Y-3.4725
X4.5375Y-3.1275
X4.585Y-3.56
X4.6425Y-3.93
X4.6675Y-3.23
X4.6775Y-3.93
X4.7125Y-3.93
X4.745Y-3.2975
X4.745Y-3.9325
X4.78Y-3.2975
X4.7825Y-3.3325
X4.7825Y-3.485
X4.785Y-3.545
X4.8125Y-3.2975
X4.815Y-3.3325
T2
X3.7859Y-3.8543
X3.8118Y-3.7917
X3.8118Y-3.917
X3.8744Y-3.7657
X3.8744Y-3.9429
X3.9371Y-3.7917
X3.9371Y-3.917
X3.963Y-3.8543
X4.4114Y-2.7913
X4.4374Y-2.7287
X4.4374Y-2.854
X4.5Y-2.7028
X4.5Y-2.8799
X4.5626Y-2.7287
X4.5626Y-2.854
X4.5886Y-2.7913
X5.025Y-3.8543
X5.0509Y-3.7917
X5.0509Y-3.917
X5.1136Y-3.7657
X5.1136Y-3.9429
X5.1762Y-3.7917
X5.1762Y-3.917
X5.2022Y-3.8543
T3
X4.2925Y-3.8425
X4.3925Y-3.8425
X4.4925Y-3.8425
X4.5925Y-3.8425
X4.6925Y-3.8425
X4.925Y-2.9875
X4.925Y-3.0875
X4.925Y-3.1875
X4.925Y-3.2875
X4.925Y-3.3875
X4.925Y-3.4875
X4.925Y-3.5875
X4.925Y-3.6875
T4
X3.8744Y-3.8543
X4.5Y-2.7913
X5.1136Y-3.8543
T0
M30
