%TF.GenerationSoftware,KiCad,Pcbnew,(5.1.6)-1*%
%TF.CreationDate,2021-01-30T09:31:10-07:00*%
%TF.ProjectId,MotorSpeedController,4d6f746f-7253-4706-9565-64436f6e7472,rev?*%
%TF.SameCoordinates,Original*%
%TF.FileFunction,Paste,Bot*%
%TF.FilePolarity,Positive*%
%FSLAX46Y46*%
G04 Gerber Fmt 4.6, Leading zero omitted, Abs format (unit mm)*
G04 Created by KiCad (PCBNEW (5.1.6)-1) date 2021-01-30 09:31:10*
%MOMM*%
%LPD*%
G01*
G04 APERTURE LIST*
%ADD10R,0.460000X1.430000*%
G04 APERTURE END LIST*
D10*
%TO.C,U2*%
X117225000Y-85820000D03*
X117225000Y-91980000D03*
X116575000Y-85820000D03*
X116575000Y-91980000D03*
X115925000Y-85820000D03*
X115925000Y-91980000D03*
X115275000Y-85820000D03*
X115275000Y-91980000D03*
X114625000Y-85820000D03*
X114625000Y-91980000D03*
X113975000Y-85820000D03*
X113975000Y-91980000D03*
X113325000Y-85820000D03*
X113325000Y-91980000D03*
X112675000Y-85820000D03*
X112675000Y-91980000D03*
X112025000Y-85820000D03*
X112025000Y-91980000D03*
X111375000Y-85820000D03*
X111375000Y-91980000D03*
%TD*%
%TO.C,C5*%
G36*
G01*
X113950000Y-83754250D02*
X113950000Y-84266750D01*
G75*
G02*
X113731250Y-84485500I-218750J0D01*
G01*
X113293750Y-84485500D01*
G75*
G02*
X113075000Y-84266750I0J218750D01*
G01*
X113075000Y-83754250D01*
G75*
G02*
X113293750Y-83535500I218750J0D01*
G01*
X113731250Y-83535500D01*
G75*
G02*
X113950000Y-83754250I0J-218750D01*
G01*
G37*
G36*
G01*
X115525000Y-83754250D02*
X115525000Y-84266750D01*
G75*
G02*
X115306250Y-84485500I-218750J0D01*
G01*
X114868750Y-84485500D01*
G75*
G02*
X114650000Y-84266750I0J218750D01*
G01*
X114650000Y-83754250D01*
G75*
G02*
X114868750Y-83535500I218750J0D01*
G01*
X115306250Y-83535500D01*
G75*
G02*
X115525000Y-83754250I0J-218750D01*
G01*
G37*
%TD*%
%TO.C,C3*%
G36*
G01*
X117761500Y-84266750D02*
X117761500Y-83754250D01*
G75*
G02*
X117980250Y-83535500I218750J0D01*
G01*
X118417750Y-83535500D01*
G75*
G02*
X118636500Y-83754250I0J-218750D01*
G01*
X118636500Y-84266750D01*
G75*
G02*
X118417750Y-84485500I-218750J0D01*
G01*
X117980250Y-84485500D01*
G75*
G02*
X117761500Y-84266750I0J218750D01*
G01*
G37*
G36*
G01*
X116186500Y-84266750D02*
X116186500Y-83754250D01*
G75*
G02*
X116405250Y-83535500I218750J0D01*
G01*
X116842750Y-83535500D01*
G75*
G02*
X117061500Y-83754250I0J-218750D01*
G01*
X117061500Y-84266750D01*
G75*
G02*
X116842750Y-84485500I-218750J0D01*
G01*
X116405250Y-84485500D01*
G75*
G02*
X116186500Y-84266750I0J218750D01*
G01*
G37*
%TD*%
M02*
