%TF.GenerationSoftware,KiCad,Pcbnew,6.0.1-79c1e3a40b~116~ubuntu21.10.1*%
%TF.CreationDate,2022-03-03T18:49:24-07:00*%
%TF.ProjectId,MotorSpeedController,4d6f746f-7253-4706-9565-64436f6e7472,rev?*%
%TF.SameCoordinates,Original*%
%TF.FileFunction,Legend,Top*%
%TF.FilePolarity,Positive*%
%FSLAX46Y46*%
G04 Gerber Fmt 4.6, Leading zero omitted, Abs format (unit mm)*
G04 Created by KiCad (PCBNEW 6.0.1-79c1e3a40b~116~ubuntu21.10.1) date 2022-03-03 18:49:24*
%MOMM*%
%LPD*%
G01*
G04 APERTURE LIST*
%ADD10C,0.152400*%
%ADD11C,0.150000*%
%ADD12C,0.120000*%
G04 APERTURE END LIST*
D10*
X129765576Y-75760942D02*
X129146300Y-75760942D01*
X129455938Y-75451304D02*
X129455938Y-76070580D01*
X128333500Y-75451304D02*
X128797957Y-75451304D01*
X128565728Y-75451304D02*
X128565728Y-76264104D01*
X128643138Y-76147990D01*
X128720547Y-76070580D01*
X128797957Y-76031876D01*
X128023861Y-76186695D02*
X127985157Y-76225400D01*
X127907747Y-76264104D01*
X127714223Y-76264104D01*
X127636814Y-76225400D01*
X127598109Y-76186695D01*
X127559404Y-76109285D01*
X127559404Y-76031876D01*
X127598109Y-75915761D01*
X128062566Y-75451304D01*
X127559404Y-75451304D01*
X127327176Y-76264104D02*
X127056242Y-75451304D01*
X126785309Y-76264104D01*
X119067942Y-92992423D02*
X119067942Y-93611700D01*
X118758304Y-93302061D02*
X119377580Y-93302061D01*
X118758304Y-94424500D02*
X118758304Y-93960042D01*
X118758304Y-94192271D02*
X119571104Y-94192271D01*
X119454990Y-94114861D01*
X119377580Y-94037452D01*
X119338876Y-93960042D01*
X119493695Y-94734138D02*
X119532400Y-94772842D01*
X119571104Y-94850252D01*
X119571104Y-95043776D01*
X119532400Y-95121185D01*
X119493695Y-95159890D01*
X119416285Y-95198595D01*
X119338876Y-95198595D01*
X119222761Y-95159890D01*
X118758304Y-94695433D01*
X118758304Y-95198595D01*
X119571104Y-95430823D02*
X118758304Y-95701757D01*
X119571104Y-95972690D01*
X128381276Y-93270009D02*
X128265161Y-93231304D01*
X128071638Y-93231304D01*
X127994228Y-93270009D01*
X127955523Y-93308714D01*
X127916819Y-93386123D01*
X127916819Y-93463533D01*
X127955523Y-93540942D01*
X127994228Y-93579647D01*
X128071638Y-93618352D01*
X128226457Y-93657057D01*
X128303866Y-93695761D01*
X128342571Y-93734466D01*
X128381276Y-93811876D01*
X128381276Y-93889285D01*
X128342571Y-93966695D01*
X128303866Y-94005400D01*
X128226457Y-94044104D01*
X128032933Y-94044104D01*
X127916819Y-94005400D01*
X127607180Y-93270009D02*
X127491066Y-93231304D01*
X127297542Y-93231304D01*
X127220133Y-93270009D01*
X127181428Y-93308714D01*
X127142723Y-93386123D01*
X127142723Y-93463533D01*
X127181428Y-93540942D01*
X127220133Y-93579647D01*
X127297542Y-93618352D01*
X127452361Y-93657057D01*
X127529771Y-93695761D01*
X127568476Y-93734466D01*
X127607180Y-93811876D01*
X127607180Y-93889285D01*
X127568476Y-93966695D01*
X127529771Y-94005400D01*
X127452361Y-94044104D01*
X127258838Y-94044104D01*
X127142723Y-94005400D01*
X128762276Y-78828900D02*
X128839685Y-78867604D01*
X128955800Y-78867604D01*
X129071914Y-78828900D01*
X129149323Y-78751490D01*
X129188028Y-78674080D01*
X129226733Y-78519261D01*
X129226733Y-78403147D01*
X129188028Y-78248328D01*
X129149323Y-78170919D01*
X129071914Y-78093509D01*
X128955800Y-78054804D01*
X128878390Y-78054804D01*
X128762276Y-78093509D01*
X128723571Y-78132214D01*
X128723571Y-78403147D01*
X128878390Y-78403147D01*
X128375228Y-78054804D02*
X128375228Y-78867604D01*
X127910771Y-78054804D01*
X127910771Y-78867604D01*
X127523723Y-78054804D02*
X127523723Y-78867604D01*
X127330200Y-78867604D01*
X127214085Y-78828900D01*
X127136676Y-78751490D01*
X127097971Y-78674080D01*
X127059266Y-78519261D01*
X127059266Y-78403147D01*
X127097971Y-78248328D01*
X127136676Y-78170919D01*
X127214085Y-78093509D01*
X127330200Y-78054804D01*
X127523723Y-78054804D01*
X116154804Y-93808209D02*
X116967604Y-93808209D01*
X116967604Y-94117847D01*
X116928900Y-94195257D01*
X116890195Y-94233961D01*
X116812785Y-94272666D01*
X116696671Y-94272666D01*
X116619261Y-94233961D01*
X116580557Y-94195257D01*
X116541852Y-94117847D01*
X116541852Y-93808209D01*
X116967604Y-94543600D02*
X116154804Y-94737123D01*
X116735376Y-94891942D01*
X116154804Y-95046761D01*
X116967604Y-95240285D01*
X116154804Y-95549923D02*
X116967604Y-95549923D01*
X116387033Y-95820857D01*
X116967604Y-96091790D01*
X116154804Y-96091790D01*
X111627557Y-94304757D02*
X111588852Y-94420871D01*
X111550147Y-94459576D01*
X111472738Y-94498280D01*
X111356623Y-94498280D01*
X111279214Y-94459576D01*
X111240509Y-94420871D01*
X111201804Y-94343461D01*
X111201804Y-94033823D01*
X112014604Y-94033823D01*
X112014604Y-94304757D01*
X111975900Y-94382166D01*
X111937195Y-94420871D01*
X111859785Y-94459576D01*
X111782376Y-94459576D01*
X111704966Y-94420871D01*
X111666261Y-94382166D01*
X111627557Y-94304757D01*
X111627557Y-94033823D01*
X111201804Y-95311080D02*
X111588852Y-95040147D01*
X111201804Y-94846623D02*
X112014604Y-94846623D01*
X112014604Y-95156261D01*
X111975900Y-95233671D01*
X111937195Y-95272376D01*
X111859785Y-95311080D01*
X111743671Y-95311080D01*
X111666261Y-95272376D01*
X111627557Y-95233671D01*
X111588852Y-95156261D01*
X111588852Y-94846623D01*
X111201804Y-95659423D02*
X112014604Y-95659423D01*
X111201804Y-96123880D02*
X111666261Y-95775538D01*
X112014604Y-96123880D02*
X111550147Y-95659423D01*
X129436585Y-84831428D02*
X128623785Y-84831428D01*
X128778604Y-83789108D02*
X129049538Y-84176156D01*
X129243061Y-83789108D02*
X129243061Y-84601908D01*
X128933423Y-84601908D01*
X128856014Y-84563204D01*
X128817309Y-84524499D01*
X128778604Y-84447089D01*
X128778604Y-84330975D01*
X128817309Y-84253565D01*
X128856014Y-84214861D01*
X128933423Y-84176156D01*
X129243061Y-84176156D01*
X128623785Y-84831428D02*
X127849690Y-84831428D01*
X128468966Y-83827813D02*
X128352852Y-83789108D01*
X128159328Y-83789108D01*
X128081919Y-83827813D01*
X128043214Y-83866518D01*
X128004509Y-83943927D01*
X128004509Y-84021337D01*
X128043214Y-84098746D01*
X128081919Y-84137451D01*
X128159328Y-84176156D01*
X128314147Y-84214861D01*
X128391557Y-84253565D01*
X128430261Y-84292270D01*
X128468966Y-84369680D01*
X128468966Y-84447089D01*
X128430261Y-84524499D01*
X128391557Y-84563204D01*
X128314147Y-84601908D01*
X128120623Y-84601908D01*
X128004509Y-84563204D01*
X127849690Y-84831428D02*
X127230414Y-84831428D01*
X127772280Y-84601908D02*
X127307823Y-84601908D01*
X127540052Y-83789108D02*
X127540052Y-84601908D01*
X128488319Y-82170862D02*
X128449614Y-82170862D01*
X128372204Y-82209567D01*
X128333500Y-82286976D01*
X128333500Y-82674024D01*
X128294795Y-82751434D01*
X128217385Y-82790138D01*
X128294795Y-82828843D01*
X128333500Y-82906253D01*
X128333500Y-83293300D01*
X128372204Y-83370710D01*
X128449614Y-83409415D01*
X128488319Y-83409415D01*
X129674257Y-90754804D02*
X129674257Y-91567604D01*
X129403323Y-90987033D01*
X129132390Y-91567604D01*
X129132390Y-90754804D01*
X128590523Y-91567604D02*
X128435704Y-91567604D01*
X128358295Y-91528900D01*
X128280885Y-91451490D01*
X128242180Y-91296671D01*
X128242180Y-91025738D01*
X128280885Y-90870919D01*
X128358295Y-90793509D01*
X128435704Y-90754804D01*
X128590523Y-90754804D01*
X128667933Y-90793509D01*
X128745342Y-90870919D01*
X128784047Y-91025738D01*
X128784047Y-91296671D01*
X128745342Y-91451490D01*
X128667933Y-91528900D01*
X128590523Y-91567604D01*
X127932542Y-90793509D02*
X127816428Y-90754804D01*
X127622904Y-90754804D01*
X127545495Y-90793509D01*
X127506790Y-90832214D01*
X127468085Y-90909623D01*
X127468085Y-90987033D01*
X127506790Y-91064442D01*
X127545495Y-91103147D01*
X127622904Y-91141852D01*
X127777723Y-91180557D01*
X127855133Y-91219261D01*
X127893838Y-91257966D01*
X127932542Y-91335376D01*
X127932542Y-91412785D01*
X127893838Y-91490195D01*
X127855133Y-91528900D01*
X127777723Y-91567604D01*
X127584200Y-91567604D01*
X127468085Y-91528900D01*
X127119742Y-90754804D02*
X127119742Y-91567604D01*
X128825776Y-81368900D02*
X128903185Y-81407604D01*
X129019300Y-81407604D01*
X129135414Y-81368900D01*
X129212823Y-81291490D01*
X129251528Y-81214080D01*
X129290233Y-81059261D01*
X129290233Y-80943147D01*
X129251528Y-80788328D01*
X129212823Y-80710919D01*
X129135414Y-80633509D01*
X129019300Y-80594804D01*
X128941890Y-80594804D01*
X128825776Y-80633509D01*
X128787071Y-80672214D01*
X128787071Y-80943147D01*
X128941890Y-80943147D01*
X128438728Y-80594804D02*
X128438728Y-81407604D01*
X127974271Y-80594804D01*
X127974271Y-81407604D01*
X127587223Y-80594804D02*
X127587223Y-81407604D01*
X127393700Y-81407604D01*
X127277585Y-81368900D01*
X127200176Y-81291490D01*
X127161471Y-81214080D01*
X127122766Y-81059261D01*
X127122766Y-80943147D01*
X127161471Y-80788328D01*
X127200176Y-80710919D01*
X127277585Y-80633509D01*
X127393700Y-80594804D01*
X127587223Y-80594804D01*
X129483757Y-88151304D02*
X129483757Y-88964104D01*
X129212823Y-88383533D01*
X128941890Y-88964104D01*
X128941890Y-88151304D01*
X128554842Y-88151304D02*
X128554842Y-88964104D01*
X128206500Y-88190009D02*
X128090385Y-88151304D01*
X127896861Y-88151304D01*
X127819452Y-88190009D01*
X127780747Y-88228714D01*
X127742042Y-88306123D01*
X127742042Y-88383533D01*
X127780747Y-88460942D01*
X127819452Y-88499647D01*
X127896861Y-88538352D01*
X128051680Y-88577057D01*
X128129090Y-88615761D01*
X128167795Y-88654466D01*
X128206500Y-88731876D01*
X128206500Y-88809285D01*
X128167795Y-88886695D01*
X128129090Y-88925400D01*
X128051680Y-88964104D01*
X127858157Y-88964104D01*
X127742042Y-88925400D01*
X127238880Y-88964104D02*
X127084061Y-88964104D01*
X127006652Y-88925400D01*
X126929242Y-88847990D01*
X126890538Y-88693171D01*
X126890538Y-88422238D01*
X126929242Y-88267419D01*
X127006652Y-88190009D01*
X127084061Y-88151304D01*
X127238880Y-88151304D01*
X127316290Y-88190009D01*
X127393700Y-88267419D01*
X127432404Y-88422238D01*
X127432404Y-88693171D01*
X127393700Y-88847990D01*
X127316290Y-88925400D01*
X127238880Y-88964104D01*
X113614804Y-94373700D02*
X114427604Y-94373700D01*
X114427604Y-94567223D01*
X114388900Y-94683338D01*
X114311490Y-94760747D01*
X114234080Y-94799452D01*
X114079261Y-94838157D01*
X113963147Y-94838157D01*
X113808328Y-94799452D01*
X113730919Y-94760747D01*
X113653509Y-94683338D01*
X113614804Y-94567223D01*
X113614804Y-94373700D01*
X113614804Y-95186500D02*
X114427604Y-95186500D01*
X113614804Y-96038004D02*
X114001852Y-95767071D01*
X113614804Y-95573547D02*
X114427604Y-95573547D01*
X114427604Y-95883185D01*
X114388900Y-95960595D01*
X114350195Y-95999300D01*
X114272785Y-96038004D01*
X114156671Y-96038004D01*
X114079261Y-95999300D01*
X114040557Y-95960595D01*
X114001852Y-95883185D01*
X114001852Y-95573547D01*
X129251528Y-85713509D02*
X129135414Y-85674804D01*
X128941890Y-85674804D01*
X128864480Y-85713509D01*
X128825776Y-85752214D01*
X128787071Y-85829623D01*
X128787071Y-85907033D01*
X128825776Y-85984442D01*
X128864480Y-86023147D01*
X128941890Y-86061852D01*
X129096709Y-86100557D01*
X129174119Y-86139261D01*
X129212823Y-86177966D01*
X129251528Y-86255376D01*
X129251528Y-86332785D01*
X129212823Y-86410195D01*
X129174119Y-86448900D01*
X129096709Y-86487604D01*
X128903185Y-86487604D01*
X128787071Y-86448900D01*
X127974271Y-85752214D02*
X128012976Y-85713509D01*
X128129090Y-85674804D01*
X128206500Y-85674804D01*
X128322614Y-85713509D01*
X128400023Y-85790919D01*
X128438728Y-85868328D01*
X128477433Y-86023147D01*
X128477433Y-86139261D01*
X128438728Y-86294080D01*
X128400023Y-86371490D01*
X128322614Y-86448900D01*
X128206500Y-86487604D01*
X128129090Y-86487604D01*
X128012976Y-86448900D01*
X127974271Y-86410195D01*
X127625928Y-85674804D02*
X127625928Y-86487604D01*
X127161471Y-85674804D02*
X127509814Y-86139261D01*
X127161471Y-86487604D02*
X127625928Y-86023147D01*
X109435900Y-94313223D02*
X109474604Y-94235814D01*
X109474604Y-94119700D01*
X109435900Y-94003585D01*
X109358490Y-93926176D01*
X109281080Y-93887471D01*
X109126261Y-93848766D01*
X109010147Y-93848766D01*
X108855328Y-93887471D01*
X108777919Y-93926176D01*
X108700509Y-94003585D01*
X108661804Y-94119700D01*
X108661804Y-94197109D01*
X108700509Y-94313223D01*
X108739214Y-94351928D01*
X109010147Y-94351928D01*
X109010147Y-94197109D01*
X108661804Y-94700271D02*
X109474604Y-94700271D01*
X108661804Y-95164728D01*
X109474604Y-95164728D01*
X108661804Y-95551776D02*
X109474604Y-95551776D01*
X109474604Y-95745300D01*
X109435900Y-95861414D01*
X109358490Y-95938823D01*
X109281080Y-95977528D01*
X109126261Y-96016233D01*
X109010147Y-96016233D01*
X108855328Y-95977528D01*
X108777919Y-95938823D01*
X108700509Y-95861414D01*
X108661804Y-95745300D01*
X108661804Y-95551776D01*
D11*
%TO.C,C1*%
X120562642Y-91733666D02*
X120610261Y-91781285D01*
X120657880Y-91924142D01*
X120657880Y-92019380D01*
X120610261Y-92162238D01*
X120515023Y-92257476D01*
X120419785Y-92305095D01*
X120229309Y-92352714D01*
X120086452Y-92352714D01*
X119895976Y-92305095D01*
X119800738Y-92257476D01*
X119705500Y-92162238D01*
X119657880Y-92019380D01*
X119657880Y-91924142D01*
X119705500Y-91781285D01*
X119753119Y-91733666D01*
X120657880Y-90781285D02*
X120657880Y-91352714D01*
X120657880Y-91067000D02*
X119657880Y-91067000D01*
X119800738Y-91162238D01*
X119895976Y-91257476D01*
X119943595Y-91352714D01*
%TO.C,C2*%
X104116142Y-87161666D02*
X104163761Y-87209285D01*
X104211380Y-87352142D01*
X104211380Y-87447380D01*
X104163761Y-87590238D01*
X104068523Y-87685476D01*
X103973285Y-87733095D01*
X103782809Y-87780714D01*
X103639952Y-87780714D01*
X103449476Y-87733095D01*
X103354238Y-87685476D01*
X103259000Y-87590238D01*
X103211380Y-87447380D01*
X103211380Y-87352142D01*
X103259000Y-87209285D01*
X103306619Y-87161666D01*
X103306619Y-86780714D02*
X103259000Y-86733095D01*
X103211380Y-86637857D01*
X103211380Y-86399761D01*
X103259000Y-86304523D01*
X103306619Y-86256904D01*
X103401857Y-86209285D01*
X103497095Y-86209285D01*
X103639952Y-86256904D01*
X104211380Y-86828333D01*
X104211380Y-86209285D01*
%TO.C,D1*%
X121913904Y-92215380D02*
X121913904Y-91215380D01*
X122152000Y-91215380D01*
X122294857Y-91263000D01*
X122390095Y-91358238D01*
X122437714Y-91453476D01*
X122485333Y-91643952D01*
X122485333Y-91786809D01*
X122437714Y-91977285D01*
X122390095Y-92072523D01*
X122294857Y-92167761D01*
X122152000Y-92215380D01*
X121913904Y-92215380D01*
X123437714Y-92215380D02*
X122866285Y-92215380D01*
X123152000Y-92215380D02*
X123152000Y-91215380D01*
X123056761Y-91358238D01*
X122961523Y-91453476D01*
X122866285Y-91501095D01*
%TO.C,D2*%
X117546380Y-79033595D02*
X116546380Y-79033595D01*
X116546380Y-78795500D01*
X116594000Y-78652642D01*
X116689238Y-78557404D01*
X116784476Y-78509785D01*
X116974952Y-78462166D01*
X117117809Y-78462166D01*
X117308285Y-78509785D01*
X117403523Y-78557404D01*
X117498761Y-78652642D01*
X117546380Y-78795500D01*
X117546380Y-79033595D01*
X116641619Y-78081214D02*
X116594000Y-78033595D01*
X116546380Y-77938357D01*
X116546380Y-77700261D01*
X116594000Y-77605023D01*
X116641619Y-77557404D01*
X116736857Y-77509785D01*
X116832095Y-77509785D01*
X116974952Y-77557404D01*
X117546380Y-78128833D01*
X117546380Y-77509785D01*
%TO.C,R1*%
X114180880Y-77890666D02*
X113704690Y-78224000D01*
X114180880Y-78462095D02*
X113180880Y-78462095D01*
X113180880Y-78081142D01*
X113228500Y-77985904D01*
X113276119Y-77938285D01*
X113371357Y-77890666D01*
X113514214Y-77890666D01*
X113609452Y-77938285D01*
X113657071Y-77985904D01*
X113704690Y-78081142D01*
X113704690Y-78462095D01*
X114180880Y-76938285D02*
X114180880Y-77509714D01*
X114180880Y-77224000D02*
X113180880Y-77224000D01*
X113323738Y-77319238D01*
X113418976Y-77414476D01*
X113466595Y-77509714D01*
%TO.C,R2*%
X120864333Y-85890380D02*
X120531000Y-85414190D01*
X120292904Y-85890380D02*
X120292904Y-84890380D01*
X120673857Y-84890380D01*
X120769095Y-84938000D01*
X120816714Y-84985619D01*
X120864333Y-85080857D01*
X120864333Y-85223714D01*
X120816714Y-85318952D01*
X120769095Y-85366571D01*
X120673857Y-85414190D01*
X120292904Y-85414190D01*
X121245285Y-84985619D02*
X121292904Y-84938000D01*
X121388142Y-84890380D01*
X121626238Y-84890380D01*
X121721476Y-84938000D01*
X121769095Y-84985619D01*
X121816714Y-85080857D01*
X121816714Y-85176095D01*
X121769095Y-85318952D01*
X121197666Y-85890380D01*
X121816714Y-85890380D01*
%TO.C,R3*%
X115895380Y-77890666D02*
X115419190Y-78224000D01*
X115895380Y-78462095D02*
X114895380Y-78462095D01*
X114895380Y-78081142D01*
X114943000Y-77985904D01*
X114990619Y-77938285D01*
X115085857Y-77890666D01*
X115228714Y-77890666D01*
X115323952Y-77938285D01*
X115371571Y-77985904D01*
X115419190Y-78081142D01*
X115419190Y-78462095D01*
X114895380Y-77557333D02*
X114895380Y-76938285D01*
X115276333Y-77271619D01*
X115276333Y-77128761D01*
X115323952Y-77033523D01*
X115371571Y-76985904D01*
X115466809Y-76938285D01*
X115704904Y-76938285D01*
X115800142Y-76985904D01*
X115847761Y-77033523D01*
X115895380Y-77128761D01*
X115895380Y-77414476D01*
X115847761Y-77509714D01*
X115800142Y-77557333D01*
%TO.C,U1*%
X113982595Y-88479380D02*
X113982595Y-89288904D01*
X114030214Y-89384142D01*
X114077833Y-89431761D01*
X114173071Y-89479380D01*
X114363547Y-89479380D01*
X114458785Y-89431761D01*
X114506404Y-89384142D01*
X114554023Y-89288904D01*
X114554023Y-88479380D01*
X115554023Y-89479380D02*
X114982595Y-89479380D01*
X115268309Y-89479380D02*
X115268309Y-88479380D01*
X115173071Y-88622238D01*
X115077833Y-88717476D01*
X114982595Y-88765095D01*
%TO.C,Y1*%
X103851190Y-92426190D02*
X104327380Y-92426190D01*
X103327380Y-92759523D02*
X103851190Y-92426190D01*
X103327380Y-92092857D01*
X104327380Y-91235714D02*
X104327380Y-91807142D01*
X104327380Y-91521428D02*
X103327380Y-91521428D01*
X103470238Y-91616666D01*
X103565476Y-91711904D01*
X103613095Y-91807142D01*
%TO.C,J1*%
X124761666Y-95444880D02*
X124761666Y-96159166D01*
X124714047Y-96302023D01*
X124618809Y-96397261D01*
X124475952Y-96444880D01*
X124380714Y-96444880D01*
X125761666Y-96444880D02*
X125190238Y-96444880D01*
X125475952Y-96444880D02*
X125475952Y-95444880D01*
X125380714Y-95587738D01*
X125285476Y-95682976D01*
X125190238Y-95730595D01*
%TO.C,C4*%
X108799333Y-93130642D02*
X108751714Y-93178261D01*
X108608857Y-93225880D01*
X108513619Y-93225880D01*
X108370761Y-93178261D01*
X108275523Y-93083023D01*
X108227904Y-92987785D01*
X108180285Y-92797309D01*
X108180285Y-92654452D01*
X108227904Y-92463976D01*
X108275523Y-92368738D01*
X108370761Y-92273500D01*
X108513619Y-92225880D01*
X108608857Y-92225880D01*
X108751714Y-92273500D01*
X108799333Y-92321119D01*
X109656476Y-92559214D02*
X109656476Y-93225880D01*
X109418380Y-92178261D02*
X109180285Y-92892547D01*
X109799333Y-92892547D01*
%TO.C,C6*%
X122324833Y-101670142D02*
X122277214Y-101717761D01*
X122134357Y-101765380D01*
X122039119Y-101765380D01*
X121896261Y-101717761D01*
X121801023Y-101622523D01*
X121753404Y-101527285D01*
X121705785Y-101336809D01*
X121705785Y-101193952D01*
X121753404Y-101003476D01*
X121801023Y-100908238D01*
X121896261Y-100813000D01*
X122039119Y-100765380D01*
X122134357Y-100765380D01*
X122277214Y-100813000D01*
X122324833Y-100860619D01*
X123181976Y-100765380D02*
X122991500Y-100765380D01*
X122896261Y-100813000D01*
X122848642Y-100860619D01*
X122753404Y-101003476D01*
X122705785Y-101193952D01*
X122705785Y-101574904D01*
X122753404Y-101670142D01*
X122801023Y-101717761D01*
X122896261Y-101765380D01*
X123086738Y-101765380D01*
X123181976Y-101717761D01*
X123229595Y-101670142D01*
X123277214Y-101574904D01*
X123277214Y-101336809D01*
X123229595Y-101241571D01*
X123181976Y-101193952D01*
X123086738Y-101146333D01*
X122896261Y-101146333D01*
X122801023Y-101193952D01*
X122753404Y-101241571D01*
X122705785Y-101336809D01*
%TO.C,C7*%
X124991833Y-104497142D02*
X124944214Y-104544761D01*
X124801357Y-104592380D01*
X124706119Y-104592380D01*
X124563261Y-104544761D01*
X124468023Y-104449523D01*
X124420404Y-104354285D01*
X124372785Y-104163809D01*
X124372785Y-104020952D01*
X124420404Y-103830476D01*
X124468023Y-103735238D01*
X124563261Y-103640000D01*
X124706119Y-103592380D01*
X124801357Y-103592380D01*
X124944214Y-103640000D01*
X124991833Y-103687619D01*
X125325166Y-103592380D02*
X125991833Y-103592380D01*
X125563261Y-104592380D01*
%TO.C,C9*%
X122388333Y-99066642D02*
X122340714Y-99114261D01*
X122197857Y-99161880D01*
X122102619Y-99161880D01*
X121959761Y-99114261D01*
X121864523Y-99019023D01*
X121816904Y-98923785D01*
X121769285Y-98733309D01*
X121769285Y-98590452D01*
X121816904Y-98399976D01*
X121864523Y-98304738D01*
X121959761Y-98209500D01*
X122102619Y-98161880D01*
X122197857Y-98161880D01*
X122340714Y-98209500D01*
X122388333Y-98257119D01*
X122864523Y-99161880D02*
X123055000Y-99161880D01*
X123150238Y-99114261D01*
X123197857Y-99066642D01*
X123293095Y-98923785D01*
X123340714Y-98733309D01*
X123340714Y-98352357D01*
X123293095Y-98257119D01*
X123245476Y-98209500D01*
X123150238Y-98161880D01*
X122959761Y-98161880D01*
X122864523Y-98209500D01*
X122816904Y-98257119D01*
X122769285Y-98352357D01*
X122769285Y-98590452D01*
X122816904Y-98685690D01*
X122864523Y-98733309D01*
X122959761Y-98780928D01*
X123150238Y-98780928D01*
X123245476Y-98733309D01*
X123293095Y-98685690D01*
X123340714Y-98590452D01*
%TO.C,D3*%
X103451880Y-101512595D02*
X102451880Y-101512595D01*
X102451880Y-101274500D01*
X102499500Y-101131642D01*
X102594738Y-101036404D01*
X102689976Y-100988785D01*
X102880452Y-100941166D01*
X103023309Y-100941166D01*
X103213785Y-100988785D01*
X103309023Y-101036404D01*
X103404261Y-101131642D01*
X103451880Y-101274500D01*
X103451880Y-101512595D01*
X102451880Y-100607833D02*
X102451880Y-99988785D01*
X102832833Y-100322119D01*
X102832833Y-100179261D01*
X102880452Y-100084023D01*
X102928071Y-100036404D01*
X103023309Y-99988785D01*
X103261404Y-99988785D01*
X103356642Y-100036404D01*
X103404261Y-100084023D01*
X103451880Y-100179261D01*
X103451880Y-100464976D01*
X103404261Y-100560214D01*
X103356642Y-100607833D01*
%TO.C,J2*%
X121277380Y-97158333D02*
X121991666Y-97158333D01*
X122134523Y-97205952D01*
X122229761Y-97301190D01*
X122277380Y-97444047D01*
X122277380Y-97539285D01*
X121372619Y-96729761D02*
X121325000Y-96682142D01*
X121277380Y-96586904D01*
X121277380Y-96348809D01*
X121325000Y-96253571D01*
X121372619Y-96205952D01*
X121467857Y-96158333D01*
X121563095Y-96158333D01*
X121705952Y-96205952D01*
X122277380Y-96777380D01*
X122277380Y-96158333D01*
%TO.C,U3*%
X114109595Y-107711380D02*
X114109595Y-108520904D01*
X114157214Y-108616142D01*
X114204833Y-108663761D01*
X114300071Y-108711380D01*
X114490547Y-108711380D01*
X114585785Y-108663761D01*
X114633404Y-108616142D01*
X114681023Y-108520904D01*
X114681023Y-107711380D01*
X115061976Y-107711380D02*
X115681023Y-107711380D01*
X115347690Y-108092333D01*
X115490547Y-108092333D01*
X115585785Y-108139952D01*
X115633404Y-108187571D01*
X115681023Y-108282809D01*
X115681023Y-108520904D01*
X115633404Y-108616142D01*
X115585785Y-108663761D01*
X115490547Y-108711380D01*
X115204833Y-108711380D01*
X115109595Y-108663761D01*
X115061976Y-108616142D01*
%TO.C,C8*%
X124864833Y-106148142D02*
X124817214Y-106195761D01*
X124674357Y-106243380D01*
X124579119Y-106243380D01*
X124436261Y-106195761D01*
X124341023Y-106100523D01*
X124293404Y-106005285D01*
X124245785Y-105814809D01*
X124245785Y-105671952D01*
X124293404Y-105481476D01*
X124341023Y-105386238D01*
X124436261Y-105291000D01*
X124579119Y-105243380D01*
X124674357Y-105243380D01*
X124817214Y-105291000D01*
X124864833Y-105338619D01*
X125436261Y-105671952D02*
X125341023Y-105624333D01*
X125293404Y-105576714D01*
X125245785Y-105481476D01*
X125245785Y-105433857D01*
X125293404Y-105338619D01*
X125341023Y-105291000D01*
X125436261Y-105243380D01*
X125626738Y-105243380D01*
X125721976Y-105291000D01*
X125769595Y-105338619D01*
X125817214Y-105433857D01*
X125817214Y-105481476D01*
X125769595Y-105576714D01*
X125721976Y-105624333D01*
X125626738Y-105671952D01*
X125436261Y-105671952D01*
X125341023Y-105719571D01*
X125293404Y-105767190D01*
X125245785Y-105862428D01*
X125245785Y-106052904D01*
X125293404Y-106148142D01*
X125341023Y-106195761D01*
X125436261Y-106243380D01*
X125626738Y-106243380D01*
X125721976Y-106195761D01*
X125769595Y-106148142D01*
X125817214Y-106052904D01*
X125817214Y-105862428D01*
X125769595Y-105767190D01*
X125721976Y-105719571D01*
X125626738Y-105671952D01*
D12*
%TO.C,C1*%
X120779000Y-89443779D02*
X120779000Y-89118221D01*
X119759000Y-89443779D02*
X119759000Y-89118221D01*
%TO.C,C2*%
X103376000Y-89499221D02*
X103376000Y-89824779D01*
X104396000Y-89499221D02*
X104396000Y-89824779D01*
%TO.C,D1*%
X121840000Y-88550000D02*
X121840000Y-91035000D01*
X121840000Y-91035000D02*
X123210000Y-91035000D01*
X123210000Y-91035000D02*
X123210000Y-88550000D01*
%TO.C,D2*%
X116345500Y-82965000D02*
X117715500Y-82965000D01*
X117715500Y-82965000D02*
X117715500Y-80480000D01*
X116345500Y-80480000D02*
X116345500Y-82965000D01*
%TO.C,R1*%
X113345500Y-81434721D02*
X113345500Y-81760279D01*
X114365500Y-81434721D02*
X114365500Y-81760279D01*
%TO.C,R2*%
X120868221Y-87378000D02*
X121193779Y-87378000D01*
X120868221Y-86358000D02*
X121193779Y-86358000D01*
%TO.C,R3*%
X114933000Y-81760279D02*
X114933000Y-81434721D01*
X115953000Y-81760279D02*
X115953000Y-81434721D01*
D11*
%TO.C,U1*%
X110548000Y-85055500D02*
X109123000Y-85055500D01*
X110548000Y-84830500D02*
X110873000Y-84830500D01*
X110548000Y-92080500D02*
X110548000Y-91755500D01*
X117798000Y-84830500D02*
X117473000Y-84830500D01*
X117798000Y-92080500D02*
X117798000Y-91755500D01*
X110548000Y-84830500D02*
X110548000Y-85055500D01*
X117798000Y-84830500D02*
X117798000Y-85155500D01*
X117798000Y-92080500D02*
X117473000Y-92080500D01*
X110548000Y-92080500D02*
X110873000Y-92080500D01*
D12*
%TO.C,Y1*%
X104776000Y-91916000D02*
X108076000Y-91916000D01*
X108076000Y-91916000D02*
X108076000Y-87916000D01*
%TO.C,J1*%
X126425000Y-94992500D02*
X125095000Y-94992500D01*
X126425000Y-92392500D02*
X126425000Y-74552500D01*
X123765000Y-92392500D02*
X123765000Y-74552500D01*
X126425000Y-92392500D02*
X123765000Y-92392500D01*
X126425000Y-93662500D02*
X126425000Y-94992500D01*
X126425000Y-74552500D02*
X123765000Y-74552500D01*
%TO.C,C4*%
X106652279Y-92263500D02*
X106326721Y-92263500D01*
X106652279Y-93283500D02*
X106326721Y-93283500D01*
%TO.C,C6*%
X122328721Y-103253000D02*
X122654279Y-103253000D01*
X122328721Y-102233000D02*
X122654279Y-102233000D01*
%TO.C,C7*%
X122328721Y-104904000D02*
X122654279Y-104904000D01*
X122328721Y-103884000D02*
X122654279Y-103884000D01*
%TO.C,C9*%
X122392221Y-99629500D02*
X122717779Y-99629500D01*
X122392221Y-100649500D02*
X122717779Y-100649500D01*
%TO.C,D3*%
X106754500Y-104159500D02*
X106754500Y-98274500D01*
X103684500Y-98274500D02*
X103684500Y-104159500D01*
X103684500Y-104159500D02*
X106754500Y-104159500D01*
%TO.C,J2*%
X117919500Y-96269500D02*
X117919500Y-98929500D01*
X120519500Y-96269500D02*
X120519500Y-97599500D01*
X117919500Y-98929500D02*
X107699500Y-98929500D01*
X107699500Y-96269500D02*
X107699500Y-98929500D01*
X119189500Y-96269500D02*
X120519500Y-96269500D01*
X117919500Y-96269500D02*
X107699500Y-96269500D01*
%TO.C,U3*%
X117341500Y-107209000D02*
X117341500Y-106939000D01*
X117341500Y-100309000D02*
X117341500Y-100579000D01*
X115841500Y-107209000D02*
X117341500Y-107209000D01*
X117341500Y-106939000D02*
X120171500Y-106939000D01*
X115841500Y-100309000D02*
X117341500Y-100309000D01*
X117341500Y-100579000D02*
X118441500Y-100579000D01*
%TO.C,C8*%
X122328721Y-105535000D02*
X122654279Y-105535000D01*
X122328721Y-106555000D02*
X122654279Y-106555000D01*
%TD*%
M02*
