%TF.GenerationSoftware,KiCad,Pcbnew,6.0.1-79c1e3a40b~116~ubuntu21.10.1*%
%TF.CreationDate,2022-03-03T18:49:24-07:00*%
%TF.ProjectId,MotorSpeedController,4d6f746f-7253-4706-9565-64436f6e7472,rev?*%
%TF.SameCoordinates,Original*%
%TF.FileFunction,Copper,L2,Bot*%
%TF.FilePolarity,Positive*%
%FSLAX46Y46*%
G04 Gerber Fmt 4.6, Leading zero omitted, Abs format (unit mm)*
G04 Created by KiCad (PCBNEW 6.0.1-79c1e3a40b~116~ubuntu21.10.1) date 2022-03-03 18:49:24*
%MOMM*%
%LPD*%
G01*
G04 APERTURE LIST*
G04 Aperture macros list*
%AMRoundRect*
0 Rectangle with rounded corners*
0 $1 Rounding radius*
0 $2 $3 $4 $5 $6 $7 $8 $9 X,Y pos of 4 corners*
0 Add a 4 corners polygon primitive as box body*
4,1,4,$2,$3,$4,$5,$6,$7,$8,$9,$2,$3,0*
0 Add four circle primitives for the rounded corners*
1,1,$1+$1,$2,$3*
1,1,$1+$1,$4,$5*
1,1,$1+$1,$6,$7*
1,1,$1+$1,$8,$9*
0 Add four rect primitives between the rounded corners*
20,1,$1+$1,$2,$3,$4,$5,0*
20,1,$1+$1,$4,$5,$6,$7,0*
20,1,$1+$1,$6,$7,$8,$9,0*
20,1,$1+$1,$8,$9,$2,$3,0*%
G04 Aperture macros list end*
%TA.AperFunction,ComponentPad*%
%ADD10C,0.800000*%
%TD*%
%TA.AperFunction,ComponentPad*%
%ADD11C,5.000000*%
%TD*%
%TA.AperFunction,ComponentPad*%
%ADD12R,1.700000X1.700000*%
%TD*%
%TA.AperFunction,ComponentPad*%
%ADD13O,1.700000X1.700000*%
%TD*%
%TA.AperFunction,SMDPad,CuDef*%
%ADD14RoundRect,0.218750X-0.218750X-0.256250X0.218750X-0.256250X0.218750X0.256250X-0.218750X0.256250X0*%
%TD*%
%TA.AperFunction,SMDPad,CuDef*%
%ADD15RoundRect,0.218750X0.218750X0.256250X-0.218750X0.256250X-0.218750X-0.256250X0.218750X-0.256250X0*%
%TD*%
%TA.AperFunction,SMDPad,CuDef*%
%ADD16R,0.460000X1.430000*%
%TD*%
%TA.AperFunction,ViaPad*%
%ADD17C,0.685800*%
%TD*%
%TA.AperFunction,Conductor*%
%ADD18C,0.254000*%
%TD*%
%TA.AperFunction,Conductor*%
%ADD19C,1.016000*%
%TD*%
G04 APERTURE END LIST*
D10*
%TO.P,H2,1*%
%TO.N,GND*%
X115890990Y-69309010D03*
X114300000Y-73150000D03*
X112709010Y-69309010D03*
D11*
X114300000Y-70900000D03*
D10*
X116550000Y-70900000D03*
X115890990Y-72490990D03*
X112709010Y-72490990D03*
X112050000Y-70900000D03*
X114300000Y-68650000D03*
%TD*%
%TO.P,H3,1*%
%TO.N,GND*%
X127635000Y-97900000D03*
X128294010Y-96309010D03*
X132135000Y-97900000D03*
X131475990Y-99490990D03*
X129885000Y-100150000D03*
X131475990Y-96309010D03*
X129885000Y-95650000D03*
X128294010Y-99490990D03*
D11*
X129885000Y-97900000D03*
%TD*%
D12*
%TO.P,J1,1*%
%TO.N,SS*%
X125095000Y-93662500D03*
D13*
%TO.P,J1,2*%
%TO.N,MOSI*%
X125095000Y-91122500D03*
%TO.P,J1,3*%
%TO.N,MISO*%
X125095000Y-88582500D03*
%TO.P,J1,4*%
%TO.N,SCK*%
X125095000Y-86042500D03*
%TO.P,J1,5*%
%TO.N,~{RST}*%
X125095000Y-83502500D03*
%TO.P,J1,6*%
%TO.N,GND*%
X125095000Y-80962500D03*
%TO.P,J1,7*%
X125095000Y-78422500D03*
%TO.P,J1,8*%
%TO.N,+12V*%
X125095000Y-75882500D03*
%TD*%
D10*
%TO.P,H1,1*%
%TO.N,GND*%
X98411000Y-100150000D03*
X96820010Y-96309010D03*
X96820010Y-99490990D03*
X100661000Y-97900000D03*
X98411000Y-95650000D03*
D11*
X98411000Y-97900000D03*
D10*
X96161000Y-97900000D03*
X100001990Y-96309010D03*
X100001990Y-99490990D03*
%TD*%
D12*
%TO.P,J2,1*%
%TO.N,+12V*%
X119189500Y-97599500D03*
D13*
%TO.P,J2,2*%
%TO.N,PWM*%
X116649500Y-97599500D03*
%TO.P,J2,3*%
%TO.N,DIR*%
X114109500Y-97599500D03*
%TO.P,J2,4*%
%TO.N,BRAKE*%
X111569500Y-97599500D03*
%TO.P,J2,5*%
%TO.N,GND*%
X109029500Y-97599500D03*
%TD*%
D14*
%TO.P,C3,1*%
%TO.N,+5V*%
X116624000Y-84010500D03*
%TO.P,C3,2*%
%TO.N,GND*%
X118199000Y-84010500D03*
%TD*%
D15*
%TO.P,C5,1*%
%TO.N,+5V*%
X115087500Y-84010500D03*
%TO.P,C5,2*%
%TO.N,GND*%
X113512500Y-84010500D03*
%TD*%
D16*
%TO.P,U2,1*%
%TO.N,N/C*%
X111375000Y-85820000D03*
%TO.P,U2,2*%
%TO.N,GND*%
X112025000Y-85820000D03*
%TO.P,U2,3*%
%TO.N,N/C*%
X112675000Y-85820000D03*
%TO.P,U2,4*%
X113325000Y-85820000D03*
%TO.P,U2,5*%
%TO.N,GND*%
X113975000Y-85820000D03*
%TO.P,U2,6*%
%TO.N,Net-(R3-Pad1)*%
X114625000Y-85820000D03*
%TO.P,U2,7*%
%TO.N,+5V*%
X115275000Y-85820000D03*
%TO.P,U2,8*%
%TO.N,N/C*%
X115925000Y-85820000D03*
%TO.P,U2,9*%
X116575000Y-85820000D03*
%TO.P,U2,10*%
X117225000Y-85820000D03*
%TO.P,U2,11*%
X117225000Y-91980000D03*
%TO.P,U2,12*%
X116575000Y-91980000D03*
%TO.P,U2,13*%
X115925000Y-91980000D03*
%TO.P,U2,14*%
%TO.N,INT0*%
X115275000Y-91980000D03*
%TO.P,U2,15*%
%TO.N,INT1*%
X114625000Y-91980000D03*
%TO.P,U2,16*%
%TO.N,N/C*%
X113975000Y-91980000D03*
%TO.P,U2,17*%
X113325000Y-91980000D03*
%TO.P,U2,18*%
X112675000Y-91980000D03*
%TO.P,U2,19*%
X112025000Y-91980000D03*
%TO.P,U2,20*%
X111375000Y-91980000D03*
%TD*%
D17*
%TO.N,GND*%
X111887000Y-82740500D03*
X112712500Y-82740500D03*
X121475500Y-84645500D03*
X120523000Y-83756500D03*
X111887000Y-81851500D03*
X121412000Y-83756500D03*
X121475500Y-88519000D03*
X122301000Y-84645500D03*
X122237500Y-83756500D03*
X121539000Y-90043000D03*
X111887000Y-81089500D03*
X118554500Y-82042000D03*
%TO.N,+5V*%
X117919500Y-99822000D03*
X116459000Y-90424000D03*
X113855500Y-79184500D03*
X111315500Y-89598500D03*
X119697500Y-99822000D03*
X120523000Y-99885500D03*
X111325268Y-87972914D03*
X118808500Y-99822000D03*
%TO.N,Net-(R3-Pad1)*%
X115252500Y-79438500D03*
%TO.N,INT0*%
X114300000Y-88201500D03*
%TO.N,INT1*%
X113093500Y-87947500D03*
%TD*%
D18*
%TO.N,GND*%
X113512500Y-84010500D02*
X113512500Y-84494128D01*
X112077500Y-83947000D02*
X113411000Y-83947000D01*
X113512500Y-84494128D02*
X114046000Y-85027628D01*
X118199000Y-84010500D02*
X118199000Y-82397500D01*
X118199000Y-82397500D02*
X118554500Y-82042000D01*
X112025000Y-83999500D02*
X112077500Y-83947000D01*
X114046000Y-85027628D02*
X114046000Y-85788500D01*
X112025000Y-85820000D02*
X112025000Y-83999500D01*
%TO.N,+5V*%
X115125500Y-84010500D02*
X115062000Y-84010500D01*
X115275000Y-85820000D02*
X115275000Y-84160000D01*
X115275000Y-84160000D02*
X115125500Y-84010500D01*
X115087500Y-84010500D02*
X116967000Y-84010500D01*
%TO.N,Net-(R3-Pad1)*%
X114363500Y-80327500D02*
X114363500Y-84806298D01*
X114363500Y-84806298D02*
X114617500Y-85060298D01*
X114617500Y-85060298D02*
X114617500Y-85852000D01*
X115252500Y-79438500D02*
X114363500Y-80327500D01*
%TO.N,INT0*%
X115275000Y-89176500D02*
X114300000Y-88201500D01*
X115275000Y-91980000D02*
X115275000Y-89176500D01*
%TO.N,INT1*%
X113093500Y-87947500D02*
X114617500Y-89471500D01*
X114617500Y-89471500D02*
X114617500Y-92011500D01*
D19*
%TO.N,+12V*%
X124001002Y-97599500D02*
X119189500Y-97599500D01*
X125095000Y-75882500D02*
X127254000Y-78041500D01*
X127254000Y-94346502D02*
X124001002Y-97599500D01*
X127254000Y-78041500D02*
X127254000Y-94346502D01*
%TD*%
%TA.AperFunction,Conductor*%
%TO.N,GND*%
G36*
X113670121Y-80601502D02*
G01*
X113716614Y-80655158D01*
X113728000Y-80707500D01*
X113728000Y-84138500D01*
X113707998Y-84206621D01*
X113654342Y-84253114D01*
X113602000Y-84264500D01*
X112585115Y-84264500D01*
X112569876Y-84268975D01*
X112568671Y-84270365D01*
X112567000Y-84278048D01*
X112567000Y-84311766D01*
X112567337Y-84318282D01*
X112576804Y-84409521D01*
X112579698Y-84422922D01*
X112582269Y-84430628D01*
X112584851Y-84501577D01*
X112548666Y-84562660D01*
X112485200Y-84594483D01*
X112462744Y-84596500D01*
X112396866Y-84596500D01*
X112361278Y-84600366D01*
X112334065Y-84600366D01*
X112306480Y-84597369D01*
X112299673Y-84597000D01*
X112273115Y-84597000D01*
X112257876Y-84601475D01*
X112236872Y-84625714D01*
X112203973Y-84652256D01*
X112198295Y-84654385D01*
X112100565Y-84727630D01*
X112034059Y-84752478D01*
X111964676Y-84737425D01*
X111949435Y-84727630D01*
X111876949Y-84673304D01*
X111851705Y-84654385D01*
X111843874Y-84651449D01*
X111804495Y-84611982D01*
X111789135Y-84598672D01*
X111781452Y-84597001D01*
X111750330Y-84597001D01*
X111743512Y-84597370D01*
X111715933Y-84600366D01*
X111688722Y-84600366D01*
X111653134Y-84596500D01*
X111251000Y-84596500D01*
X111182879Y-84576498D01*
X111136386Y-84522842D01*
X111125000Y-84470500D01*
X111125000Y-83738385D01*
X112567000Y-83738385D01*
X112571475Y-83753624D01*
X112572865Y-83754829D01*
X112580548Y-83756500D01*
X113240385Y-83756500D01*
X113255624Y-83752025D01*
X113256829Y-83750635D01*
X113258500Y-83742952D01*
X113258500Y-83045615D01*
X113254025Y-83030376D01*
X113252635Y-83029171D01*
X113245679Y-83027658D01*
X113242218Y-83027837D01*
X113150979Y-83037304D01*
X113137583Y-83040197D01*
X112990313Y-83089330D01*
X112977134Y-83095504D01*
X112845486Y-83176970D01*
X112834085Y-83186006D01*
X112724702Y-83295580D01*
X112715690Y-83306991D01*
X112634447Y-83438791D01*
X112628303Y-83451968D01*
X112579421Y-83599343D01*
X112576555Y-83612710D01*
X112567328Y-83702770D01*
X112567000Y-83709185D01*
X112567000Y-83738385D01*
X111125000Y-83738385D01*
X111125000Y-80707500D01*
X111145002Y-80639379D01*
X111198658Y-80592886D01*
X111251000Y-80581500D01*
X113602000Y-80581500D01*
X113670121Y-80601502D01*
G37*
%TD.AperFunction*%
%TD*%
%TA.AperFunction,Conductor*%
%TO.N,GND*%
G36*
X123449621Y-82125502D02*
G01*
X123496114Y-82179158D01*
X123507500Y-82231500D01*
X123507500Y-90615500D01*
X123487498Y-90683621D01*
X123433842Y-90730114D01*
X123381500Y-90741500D01*
X118708000Y-90741500D01*
X118639879Y-90721498D01*
X118593386Y-90667842D01*
X118582000Y-90615500D01*
X118582000Y-85068897D01*
X118602002Y-85000776D01*
X118655658Y-84954283D01*
X118668124Y-84949373D01*
X118721187Y-84931670D01*
X118734366Y-84925496D01*
X118866014Y-84844030D01*
X118877415Y-84834994D01*
X118986798Y-84725420D01*
X118995810Y-84714009D01*
X119077053Y-84582209D01*
X119083197Y-84569032D01*
X119132079Y-84421657D01*
X119134945Y-84408290D01*
X119144172Y-84318230D01*
X119144500Y-84311815D01*
X119144500Y-84282615D01*
X119140025Y-84267376D01*
X119138635Y-84266171D01*
X119130952Y-84264500D01*
X118582000Y-84264500D01*
X118582000Y-83756500D01*
X119126385Y-83756500D01*
X119141624Y-83752025D01*
X119142829Y-83750635D01*
X119144500Y-83742952D01*
X119144500Y-83709234D01*
X119144163Y-83702718D01*
X119134696Y-83611479D01*
X119131803Y-83598083D01*
X119082670Y-83450813D01*
X119076496Y-83437634D01*
X118995030Y-83305986D01*
X118985994Y-83294585D01*
X118876420Y-83185202D01*
X118865009Y-83176190D01*
X118733209Y-83094947D01*
X118720031Y-83088803D01*
X118668333Y-83071655D01*
X118609973Y-83031224D01*
X118582736Y-82965660D01*
X118582000Y-82952062D01*
X118582000Y-82231500D01*
X118602002Y-82163379D01*
X118655658Y-82116886D01*
X118708000Y-82105500D01*
X123381500Y-82105500D01*
X123449621Y-82125502D01*
G37*
%TD.AperFunction*%
%TD*%
%TA.AperFunction,Conductor*%
%TO.N,+5V*%
G36*
X116732200Y-68556749D02*
G01*
X116971995Y-68583011D01*
X116977446Y-68583728D01*
X117855693Y-68718904D01*
X117861106Y-68719859D01*
X118307316Y-68808615D01*
X118732603Y-68893209D01*
X118737931Y-68894391D01*
X119447315Y-69067976D01*
X119601055Y-69105596D01*
X119606364Y-69107019D01*
X120459421Y-69355662D01*
X120464664Y-69357315D01*
X121306083Y-69642938D01*
X121311219Y-69644808D01*
X122139401Y-69966870D01*
X122144460Y-69968966D01*
X122476430Y-70115036D01*
X122957774Y-70326833D01*
X122962756Y-70329156D01*
X123759672Y-70722151D01*
X123764549Y-70724689D01*
X124543604Y-71152093D01*
X124548364Y-71154842D01*
X125307992Y-71615795D01*
X125312629Y-71618749D01*
X126051459Y-72112420D01*
X126055928Y-72115549D01*
X126453143Y-72406799D01*
X126772532Y-72640985D01*
X126776893Y-72644332D01*
X127469842Y-73200482D01*
X127474054Y-73204015D01*
X127748236Y-73444466D01*
X128092038Y-73745972D01*
X128142129Y-73789901D01*
X128146182Y-73793615D01*
X128788046Y-74408067D01*
X128791933Y-74411954D01*
X129406385Y-75053818D01*
X129410099Y-75057871D01*
X129995985Y-75725946D01*
X129999518Y-75730158D01*
X130555668Y-76423107D01*
X130559015Y-76427468D01*
X131084451Y-77144072D01*
X131087580Y-77148541D01*
X131310144Y-77481631D01*
X131581251Y-77887371D01*
X131584205Y-77892008D01*
X132045158Y-78651636D01*
X132047907Y-78656396D01*
X132475311Y-79435451D01*
X132477849Y-79440328D01*
X132870844Y-80237244D01*
X132873167Y-80242226D01*
X132984945Y-80496260D01*
X133173183Y-80924062D01*
X133231030Y-81055530D01*
X133233130Y-81060599D01*
X133545560Y-81864009D01*
X133555187Y-81888766D01*
X133557062Y-81893917D01*
X133763596Y-82502348D01*
X133842685Y-82735336D01*
X133844338Y-82740579D01*
X134092981Y-83593636D01*
X134094404Y-83598945D01*
X134305609Y-84462069D01*
X134306791Y-84467397D01*
X134384545Y-84858295D01*
X134480141Y-85338894D01*
X134481096Y-85344307D01*
X134616272Y-86222554D01*
X134616989Y-86228003D01*
X134711029Y-87086671D01*
X134713723Y-87111274D01*
X134714202Y-87116746D01*
X134768222Y-87940935D01*
X134772316Y-88003404D01*
X134772556Y-88008896D01*
X134791940Y-88897251D01*
X134791940Y-88902749D01*
X134772842Y-89778016D01*
X134772556Y-89791104D01*
X134772316Y-89796591D01*
X134718423Y-90618849D01*
X134714202Y-90683250D01*
X134713723Y-90688722D01*
X134662920Y-91152599D01*
X134616989Y-91571995D01*
X134616272Y-91577446D01*
X134481096Y-92455693D01*
X134480141Y-92461106D01*
X134424722Y-92739717D01*
X134333190Y-93199887D01*
X134306794Y-93332588D01*
X134305609Y-93337931D01*
X134131764Y-94048377D01*
X134094404Y-94201055D01*
X134092981Y-94206364D01*
X133844338Y-95059421D01*
X133842685Y-95064664D01*
X133600614Y-95777784D01*
X133557067Y-95906068D01*
X133555192Y-95911219D01*
X133272102Y-96639184D01*
X133233134Y-96739391D01*
X133231034Y-96744460D01*
X133040504Y-97177473D01*
X132994761Y-97231769D01*
X132926924Y-97252715D01*
X132858532Y-97233660D01*
X132811299Y-97180655D01*
X132804364Y-97162513D01*
X132794379Y-97128805D01*
X132720437Y-96879180D01*
X132672920Y-96767777D01*
X132585740Y-96563386D01*
X132585738Y-96563383D01*
X132584316Y-96560048D01*
X132576358Y-96546095D01*
X132414214Y-96261826D01*
X132414212Y-96261822D01*
X132412417Y-96258676D01*
X132399690Y-96241351D01*
X132375927Y-96179928D01*
X132370222Y-96125645D01*
X132370222Y-96125643D01*
X132369532Y-96119082D01*
X132310517Y-95937454D01*
X132215030Y-95772066D01*
X132208725Y-95765063D01*
X132091665Y-95635055D01*
X132091664Y-95635054D01*
X132087243Y-95630144D01*
X131932742Y-95517892D01*
X131926714Y-95515208D01*
X131926712Y-95515207D01*
X131764309Y-95442901D01*
X131764308Y-95442901D01*
X131758278Y-95440216D01*
X131577936Y-95401883D01*
X131533857Y-95383218D01*
X131475659Y-95344111D01*
X131419047Y-95306069D01*
X131110741Y-95146940D01*
X130786189Y-95024302D01*
X130782668Y-95023418D01*
X130782663Y-95023416D01*
X130478542Y-94947027D01*
X130435176Y-94926759D01*
X130347094Y-94862763D01*
X130347093Y-94862762D01*
X130341752Y-94858882D01*
X130335724Y-94856198D01*
X130335722Y-94856197D01*
X130173319Y-94783891D01*
X130173318Y-94783891D01*
X130167288Y-94781206D01*
X130063782Y-94759205D01*
X129986944Y-94742872D01*
X129986939Y-94742872D01*
X129980487Y-94741500D01*
X129789513Y-94741500D01*
X129783061Y-94742872D01*
X129783056Y-94742872D01*
X129706218Y-94759205D01*
X129602712Y-94781206D01*
X129596682Y-94783891D01*
X129596681Y-94783891D01*
X129434278Y-94856197D01*
X129434276Y-94856198D01*
X129428248Y-94858882D01*
X129422907Y-94862762D01*
X129422906Y-94862763D01*
X129405016Y-94875761D01*
X129338520Y-94924074D01*
X129328852Y-94931098D01*
X129281634Y-94952270D01*
X129138784Y-94983416D01*
X129084146Y-94995329D01*
X129074583Y-94997414D01*
X129071156Y-94998587D01*
X129071150Y-94998589D01*
X128790556Y-95094658D01*
X128746339Y-95109797D01*
X128433188Y-95259163D01*
X128430109Y-95261094D01*
X128430108Y-95261095D01*
X128231567Y-95385640D01*
X128190809Y-95402150D01*
X128011722Y-95440216D01*
X127886729Y-95495866D01*
X127816363Y-95505300D01*
X127752066Y-95475194D01*
X127714252Y-95415105D01*
X127714928Y-95344111D01*
X127746386Y-95291664D01*
X127928733Y-95109317D01*
X127938876Y-95100215D01*
X127968649Y-95076277D01*
X128001187Y-95037500D01*
X128004352Y-95033872D01*
X128006046Y-95032004D01*
X128008240Y-95029810D01*
X128035736Y-94996336D01*
X128036488Y-94995429D01*
X128096786Y-94923569D01*
X128099375Y-94918860D01*
X128102782Y-94914712D01*
X128105690Y-94909288D01*
X128105693Y-94909284D01*
X128147050Y-94832153D01*
X128147679Y-94830994D01*
X128175805Y-94779834D01*
X128192821Y-94748881D01*
X128194444Y-94743765D01*
X128196984Y-94739028D01*
X128224384Y-94649406D01*
X128224767Y-94648176D01*
X128251236Y-94564736D01*
X128253098Y-94558867D01*
X128253697Y-94553529D01*
X128255267Y-94548393D01*
X128264746Y-94455071D01*
X128264866Y-94453951D01*
X128270500Y-94403718D01*
X128270500Y-94400213D01*
X128270562Y-94399105D01*
X128271010Y-94393410D01*
X128274790Y-94356197D01*
X128274790Y-94356190D01*
X128275412Y-94350067D01*
X128271059Y-94304016D01*
X128270500Y-94292159D01*
X128270500Y-78103776D01*
X128271237Y-78090168D01*
X128274697Y-78058321D01*
X128274697Y-78058317D01*
X128275362Y-78052196D01*
X128270954Y-78001810D01*
X128270625Y-77996982D01*
X128270500Y-77994427D01*
X128270500Y-77991343D01*
X128268992Y-77975969D01*
X128266278Y-77948281D01*
X128266156Y-77946968D01*
X128261347Y-77892008D01*
X128257988Y-77853608D01*
X128256489Y-77848448D01*
X128255965Y-77843106D01*
X128228883Y-77753404D01*
X128228527Y-77752204D01*
X128202372Y-77662178D01*
X128199900Y-77657410D01*
X128198348Y-77652268D01*
X128195453Y-77646823D01*
X128195450Y-77646816D01*
X128154367Y-77569550D01*
X128153753Y-77568382D01*
X128151813Y-77564638D01*
X128110634Y-77485196D01*
X128107282Y-77480997D01*
X128104761Y-77476256D01*
X128045506Y-77403603D01*
X128044719Y-77402626D01*
X128015436Y-77365944D01*
X128015430Y-77365937D01*
X128013232Y-77363184D01*
X128010736Y-77360688D01*
X128010026Y-77359894D01*
X128006307Y-77355540D01*
X127982663Y-77326549D01*
X127982660Y-77326546D01*
X127978768Y-77321774D01*
X127943127Y-77292289D01*
X127934348Y-77284300D01*
X126484185Y-75834137D01*
X126450159Y-75771825D01*
X126447704Y-75755366D01*
X126440276Y-75665022D01*
X126439852Y-75659861D01*
X126385431Y-75443202D01*
X126296354Y-75238340D01*
X126256906Y-75177362D01*
X126177822Y-75055117D01*
X126177820Y-75055114D01*
X126175014Y-75050777D01*
X126024670Y-74885551D01*
X126020619Y-74882352D01*
X126020615Y-74882348D01*
X125853414Y-74750300D01*
X125853410Y-74750298D01*
X125849359Y-74747098D01*
X125653789Y-74639138D01*
X125648920Y-74637414D01*
X125648916Y-74637412D01*
X125448087Y-74566295D01*
X125448083Y-74566294D01*
X125443212Y-74564569D01*
X125438119Y-74563662D01*
X125438116Y-74563661D01*
X125228373Y-74526300D01*
X125228367Y-74526299D01*
X125223284Y-74525394D01*
X125149452Y-74524492D01*
X125005081Y-74522728D01*
X125005079Y-74522728D01*
X124999911Y-74522665D01*
X124779091Y-74556455D01*
X124566756Y-74625857D01*
X124368607Y-74729007D01*
X124364474Y-74732110D01*
X124364471Y-74732112D01*
X124340247Y-74750300D01*
X124189965Y-74863135D01*
X124035629Y-75024638D01*
X123909743Y-75209180D01*
X123815688Y-75411805D01*
X123755989Y-75627070D01*
X123732251Y-75849195D01*
X123745110Y-76072215D01*
X123746247Y-76077261D01*
X123746248Y-76077267D01*
X123770304Y-76184008D01*
X123794222Y-76290139D01*
X123878266Y-76497116D01*
X123994987Y-76687588D01*
X124141250Y-76856438D01*
X124313126Y-76999132D01*
X124383595Y-77040311D01*
X124386445Y-77041976D01*
X124435169Y-77093614D01*
X124448240Y-77163397D01*
X124421509Y-77229169D01*
X124381055Y-77262527D01*
X124368607Y-77269007D01*
X124364474Y-77272110D01*
X124364471Y-77272112D01*
X124194100Y-77400030D01*
X124189965Y-77403135D01*
X124186393Y-77406873D01*
X124111419Y-77485329D01*
X124035629Y-77564638D01*
X123909743Y-77749180D01*
X123815688Y-77951805D01*
X123755989Y-78167070D01*
X123732251Y-78389195D01*
X123745110Y-78612215D01*
X123746247Y-78617261D01*
X123746248Y-78617267D01*
X123763636Y-78694419D01*
X123794222Y-78830139D01*
X123878266Y-79037116D01*
X123994987Y-79227588D01*
X124141250Y-79396438D01*
X124313126Y-79539132D01*
X124383595Y-79580311D01*
X124386445Y-79581976D01*
X124435169Y-79633614D01*
X124448240Y-79703397D01*
X124421509Y-79769169D01*
X124381055Y-79802527D01*
X124368607Y-79809007D01*
X124364474Y-79812110D01*
X124364471Y-79812112D01*
X124194100Y-79940030D01*
X124189965Y-79943135D01*
X124140240Y-79995169D01*
X124043411Y-80096495D01*
X124035629Y-80104638D01*
X123909743Y-80289180D01*
X123815688Y-80491805D01*
X123755989Y-80707070D01*
X123732251Y-80929195D01*
X123732548Y-80934348D01*
X123732548Y-80934351D01*
X123739535Y-81055530D01*
X123745110Y-81152215D01*
X123746247Y-81157261D01*
X123746248Y-81157267D01*
X123761837Y-81226438D01*
X123794222Y-81370139D01*
X123796164Y-81374921D01*
X123796165Y-81374925D01*
X123854399Y-81518338D01*
X123861495Y-81588979D01*
X123829273Y-81652243D01*
X123767963Y-81688043D01*
X123697031Y-81685013D01*
X123685314Y-81680356D01*
X123623755Y-81652243D01*
X123592740Y-81638079D01*
X123568986Y-81631104D01*
X123528942Y-81619346D01*
X123528938Y-81619345D01*
X123524619Y-81618077D01*
X123520171Y-81617437D01*
X123520164Y-81617436D01*
X123385948Y-81598139D01*
X123385941Y-81598138D01*
X123381500Y-81597500D01*
X119353084Y-81597500D01*
X119284963Y-81577498D01*
X119251150Y-81545564D01*
X119250392Y-81544521D01*
X119247091Y-81538803D01*
X119127336Y-81405801D01*
X119071311Y-81365096D01*
X118987887Y-81304485D01*
X118987886Y-81304484D01*
X118982545Y-81300604D01*
X118976517Y-81297920D01*
X118976515Y-81297919D01*
X118825077Y-81230495D01*
X118825076Y-81230495D01*
X118819046Y-81227810D01*
X118731516Y-81209205D01*
X118650443Y-81191972D01*
X118650439Y-81191972D01*
X118643986Y-81190600D01*
X118465014Y-81190600D01*
X118458561Y-81191972D01*
X118458557Y-81191972D01*
X118377484Y-81209205D01*
X118289954Y-81227810D01*
X118283924Y-81230495D01*
X118283923Y-81230495D01*
X118132485Y-81297919D01*
X118132483Y-81297920D01*
X118126455Y-81300604D01*
X118121114Y-81304484D01*
X118121113Y-81304485D01*
X118037690Y-81365096D01*
X117981664Y-81405801D01*
X117861909Y-81538803D01*
X117772423Y-81693797D01*
X117717118Y-81864009D01*
X117716428Y-81870572D01*
X117716428Y-81870573D01*
X117707294Y-81957476D01*
X117684382Y-82017161D01*
X117680783Y-82020994D01*
X117676965Y-82027938D01*
X117676964Y-82027940D01*
X117670978Y-82038829D01*
X117660127Y-82055347D01*
X117647650Y-82071433D01*
X117630024Y-82112166D01*
X117624807Y-82122814D01*
X117603431Y-82161697D01*
X117601460Y-82169372D01*
X117601458Y-82169378D01*
X117598369Y-82181411D01*
X117591966Y-82200113D01*
X117583883Y-82218792D01*
X117581843Y-82231674D01*
X117576940Y-82262627D01*
X117574535Y-82274240D01*
X117563500Y-82317218D01*
X117563500Y-82337565D01*
X117561949Y-82357276D01*
X117558765Y-82377379D01*
X117559511Y-82385271D01*
X117562941Y-82421556D01*
X117563500Y-82433414D01*
X117563500Y-83090438D01*
X117543498Y-83158559D01*
X117524523Y-83179509D01*
X117525445Y-83180429D01*
X117500259Y-83205659D01*
X117437977Y-83239738D01*
X117367157Y-83234735D01*
X117322068Y-83205814D01*
X117301420Y-83185202D01*
X117290009Y-83176190D01*
X117158209Y-83094947D01*
X117145032Y-83088803D01*
X116997657Y-83039921D01*
X116984290Y-83037055D01*
X116894800Y-83027886D01*
X116880876Y-83031975D01*
X116879671Y-83033365D01*
X116878000Y-83041048D01*
X116878000Y-84138500D01*
X116857998Y-84206621D01*
X116804342Y-84253114D01*
X116752000Y-84264500D01*
X115359615Y-84264500D01*
X115344376Y-84268975D01*
X115343171Y-84270365D01*
X115341500Y-84278048D01*
X115341500Y-84538885D01*
X115345887Y-84553826D01*
X115345887Y-84624823D01*
X115307503Y-84684549D01*
X115242922Y-84714042D01*
X115172648Y-84703937D01*
X115149425Y-84690149D01*
X115139993Y-84683080D01*
X115123991Y-84667342D01*
X115123634Y-84667699D01*
X115109247Y-84653312D01*
X115096406Y-84638278D01*
X115089102Y-84628225D01*
X115084442Y-84621811D01*
X115050250Y-84593525D01*
X115041471Y-84585536D01*
X115035905Y-84579970D01*
X115001879Y-84517658D01*
X114999000Y-84490875D01*
X114999000Y-83738385D01*
X115341500Y-83738385D01*
X115345975Y-83753624D01*
X115347365Y-83754829D01*
X115355048Y-83756500D01*
X116351885Y-83756500D01*
X116367124Y-83752025D01*
X116368329Y-83750635D01*
X116370000Y-83742952D01*
X116370000Y-83045615D01*
X116365525Y-83030376D01*
X116364135Y-83029171D01*
X116357179Y-83027658D01*
X116353718Y-83027837D01*
X116262479Y-83037304D01*
X116249083Y-83040197D01*
X116101813Y-83089330D01*
X116088634Y-83095504D01*
X115956986Y-83176970D01*
X115945588Y-83186004D01*
X115944835Y-83186758D01*
X115944193Y-83187109D01*
X115939848Y-83190553D01*
X115939259Y-83189810D01*
X115882554Y-83220841D01*
X115811734Y-83215841D01*
X115770791Y-83189581D01*
X115770666Y-83189740D01*
X115769054Y-83188467D01*
X115766639Y-83186918D01*
X115764920Y-83185202D01*
X115753509Y-83176190D01*
X115621709Y-83094947D01*
X115608532Y-83088803D01*
X115461157Y-83039921D01*
X115447790Y-83037055D01*
X115358300Y-83027886D01*
X115344376Y-83031975D01*
X115343171Y-83033365D01*
X115341500Y-83041048D01*
X115341500Y-83738385D01*
X114999000Y-83738385D01*
X114999000Y-80642923D01*
X115019002Y-80574802D01*
X115035905Y-80553827D01*
X115264108Y-80325625D01*
X115326420Y-80291600D01*
X115336994Y-80289900D01*
X115341986Y-80289900D01*
X115348440Y-80288528D01*
X115348442Y-80288528D01*
X115405964Y-80276301D01*
X115517046Y-80252690D01*
X115540549Y-80242226D01*
X115674515Y-80182581D01*
X115674517Y-80182580D01*
X115680545Y-80179896D01*
X115685887Y-80176015D01*
X115819992Y-80078582D01*
X115819994Y-80078580D01*
X115825336Y-80074699D01*
X115884185Y-80009340D01*
X115940672Y-79946605D01*
X115940673Y-79946604D01*
X115945091Y-79941697D01*
X116034577Y-79786703D01*
X116078397Y-79651838D01*
X116087842Y-79622770D01*
X116087842Y-79622769D01*
X116089882Y-79616491D01*
X116092310Y-79593396D01*
X116107900Y-79445065D01*
X116108590Y-79438500D01*
X116098918Y-79346476D01*
X116090572Y-79267073D01*
X116090572Y-79267072D01*
X116089882Y-79260509D01*
X116034577Y-79090297D01*
X115945091Y-78935303D01*
X115825336Y-78802301D01*
X115680545Y-78697104D01*
X115674517Y-78694420D01*
X115674515Y-78694419D01*
X115523077Y-78626995D01*
X115523076Y-78626995D01*
X115517046Y-78624310D01*
X115429516Y-78605705D01*
X115348443Y-78588472D01*
X115348439Y-78588472D01*
X115341986Y-78587100D01*
X115163014Y-78587100D01*
X115156561Y-78588472D01*
X115156557Y-78588472D01*
X115075484Y-78605705D01*
X114987954Y-78624310D01*
X114981924Y-78626995D01*
X114981923Y-78626995D01*
X114830485Y-78694419D01*
X114830483Y-78694420D01*
X114824455Y-78697104D01*
X114679664Y-78802301D01*
X114559909Y-78935303D01*
X114470423Y-79090297D01*
X114415118Y-79260509D01*
X114414428Y-79267072D01*
X114414428Y-79267073D01*
X114406082Y-79346476D01*
X114379068Y-79412133D01*
X114369867Y-79422400D01*
X113970017Y-79822250D01*
X113961691Y-79829826D01*
X113955197Y-79833947D01*
X113949774Y-79839722D01*
X113908415Y-79883765D01*
X113905660Y-79886607D01*
X113885861Y-79906406D01*
X113883437Y-79909531D01*
X113883429Y-79909540D01*
X113883363Y-79909626D01*
X113875655Y-79918651D01*
X113845283Y-79950994D01*
X113841465Y-79957938D01*
X113841464Y-79957940D01*
X113835478Y-79968829D01*
X113824627Y-79985347D01*
X113812150Y-80001433D01*
X113808728Y-80009341D01*
X113808383Y-80009756D01*
X113804967Y-80015532D01*
X113804035Y-80014981D01*
X113763318Y-80063915D01*
X113695611Y-80085276D01*
X113675159Y-80084018D01*
X113606459Y-80074140D01*
X113606444Y-80074139D01*
X113602000Y-80073500D01*
X111251000Y-80073500D01*
X111247652Y-80073860D01*
X111247651Y-80073860D01*
X111222470Y-80076567D01*
X111143020Y-80085109D01*
X111139736Y-80085823D01*
X111139732Y-80085824D01*
X111114661Y-80091278D01*
X111090678Y-80096495D01*
X110987628Y-80130793D01*
X110865990Y-80208965D01*
X110812334Y-80255458D01*
X110717645Y-80364734D01*
X110657579Y-80496260D01*
X110637577Y-80564381D01*
X110636937Y-80568829D01*
X110636936Y-80568836D01*
X110617639Y-80703052D01*
X110617638Y-80703059D01*
X110617000Y-80707500D01*
X110617000Y-84470500D01*
X110628609Y-84578480D01*
X110639995Y-84630822D01*
X110674293Y-84733872D01*
X110678553Y-84740500D01*
X110678553Y-84740501D01*
X110682273Y-84746289D01*
X110702274Y-84814410D01*
X110694256Y-84858637D01*
X110646029Y-84987282D01*
X110646027Y-84987288D01*
X110643255Y-84994684D01*
X110636500Y-85056866D01*
X110636500Y-86583134D01*
X110643255Y-86645316D01*
X110694385Y-86781705D01*
X110781739Y-86898261D01*
X110898295Y-86985615D01*
X111034684Y-87036745D01*
X111088867Y-87042631D01*
X111092457Y-87043021D01*
X111096866Y-87043500D01*
X111653134Y-87043500D01*
X111686394Y-87039887D01*
X111713606Y-87039887D01*
X111746866Y-87043500D01*
X112303134Y-87043500D01*
X112336394Y-87039887D01*
X112363606Y-87039887D01*
X112396866Y-87043500D01*
X112501472Y-87043500D01*
X112569593Y-87063502D01*
X112616086Y-87117158D01*
X112626190Y-87187432D01*
X112596696Y-87252012D01*
X112575533Y-87271436D01*
X112520664Y-87311301D01*
X112516243Y-87316211D01*
X112516242Y-87316212D01*
X112414682Y-87429007D01*
X112400909Y-87444303D01*
X112367306Y-87502505D01*
X112318541Y-87586969D01*
X112311423Y-87599297D01*
X112256118Y-87769509D01*
X112237410Y-87947500D01*
X112256118Y-88125491D01*
X112258158Y-88131769D01*
X112258158Y-88131770D01*
X112288489Y-88225120D01*
X112311423Y-88295703D01*
X112400909Y-88450697D01*
X112520664Y-88583699D01*
X112665455Y-88688896D01*
X112671483Y-88691580D01*
X112671485Y-88691581D01*
X112764425Y-88732960D01*
X112828954Y-88761690D01*
X113004014Y-88798900D01*
X113007153Y-88798900D01*
X113071622Y-88825421D01*
X113081894Y-88834626D01*
X113945095Y-89697827D01*
X113979121Y-89760139D01*
X113982000Y-89786922D01*
X113982000Y-90630500D01*
X113961998Y-90698621D01*
X113908342Y-90745114D01*
X113856000Y-90756500D01*
X113696866Y-90756500D01*
X113663606Y-90760113D01*
X113636394Y-90760113D01*
X113603134Y-90756500D01*
X113046866Y-90756500D01*
X113013606Y-90760113D01*
X112986394Y-90760113D01*
X112953134Y-90756500D01*
X112396866Y-90756500D01*
X112363606Y-90760113D01*
X112336394Y-90760113D01*
X112303134Y-90756500D01*
X111746866Y-90756500D01*
X111713606Y-90760113D01*
X111686394Y-90760113D01*
X111653134Y-90756500D01*
X111096866Y-90756500D01*
X111034684Y-90763255D01*
X110898295Y-90814385D01*
X110781739Y-90901739D01*
X110694385Y-91018295D01*
X110643255Y-91154684D01*
X110636500Y-91216866D01*
X110636500Y-92743134D01*
X110643255Y-92805316D01*
X110694385Y-92941705D01*
X110781739Y-93058261D01*
X110898295Y-93145615D01*
X111034684Y-93196745D01*
X111096866Y-93203500D01*
X111653134Y-93203500D01*
X111686394Y-93199887D01*
X111713606Y-93199887D01*
X111746866Y-93203500D01*
X112303134Y-93203500D01*
X112336394Y-93199887D01*
X112363606Y-93199887D01*
X112396866Y-93203500D01*
X112953134Y-93203500D01*
X112986394Y-93199887D01*
X113013606Y-93199887D01*
X113046866Y-93203500D01*
X113603134Y-93203500D01*
X113636394Y-93199887D01*
X113663606Y-93199887D01*
X113696866Y-93203500D01*
X114253134Y-93203500D01*
X114286394Y-93199887D01*
X114313606Y-93199887D01*
X114346866Y-93203500D01*
X114903134Y-93203500D01*
X114936394Y-93199887D01*
X114963606Y-93199887D01*
X114996866Y-93203500D01*
X115553134Y-93203500D01*
X115586394Y-93199887D01*
X115613606Y-93199887D01*
X115646866Y-93203500D01*
X116203134Y-93203500D01*
X116236394Y-93199887D01*
X116263606Y-93199887D01*
X116296866Y-93203500D01*
X116853134Y-93203500D01*
X116886394Y-93199887D01*
X116913606Y-93199887D01*
X116946866Y-93203500D01*
X117503134Y-93203500D01*
X117565316Y-93196745D01*
X117701705Y-93145615D01*
X117818261Y-93058261D01*
X117905615Y-92941705D01*
X117956745Y-92805316D01*
X117963500Y-92743134D01*
X117963500Y-91216866D01*
X117956745Y-91154684D01*
X117905615Y-91018295D01*
X117818261Y-90901739D01*
X117701705Y-90814385D01*
X117565316Y-90763255D01*
X117503134Y-90756500D01*
X116946866Y-90756500D01*
X116913606Y-90760113D01*
X116886394Y-90760113D01*
X116853134Y-90756500D01*
X116296866Y-90756500D01*
X116263606Y-90760113D01*
X116236394Y-90760113D01*
X116203134Y-90756500D01*
X116036500Y-90756500D01*
X115968379Y-90736498D01*
X115921886Y-90682842D01*
X115910500Y-90630500D01*
X115910500Y-89255520D01*
X115911030Y-89244286D01*
X115912708Y-89236781D01*
X115910562Y-89168488D01*
X115910500Y-89164531D01*
X115910500Y-89136517D01*
X115909992Y-89132496D01*
X115909058Y-89120644D01*
X115907914Y-89084218D01*
X115907914Y-89084217D01*
X115907665Y-89076295D01*
X115901987Y-89056751D01*
X115897977Y-89037388D01*
X115896420Y-89025060D01*
X115896420Y-89025058D01*
X115895427Y-89017201D01*
X115892511Y-89009837D01*
X115892510Y-89009832D01*
X115879093Y-88975944D01*
X115875248Y-88964715D01*
X115865080Y-88929719D01*
X115862869Y-88922107D01*
X115852510Y-88904591D01*
X115843813Y-88886841D01*
X115836319Y-88867912D01*
X115810240Y-88832017D01*
X115803722Y-88822095D01*
X115785170Y-88790724D01*
X115785166Y-88790719D01*
X115781134Y-88783901D01*
X115766747Y-88769514D01*
X115753906Y-88754480D01*
X115746602Y-88744427D01*
X115741942Y-88738013D01*
X115707750Y-88709727D01*
X115698971Y-88701738D01*
X115182633Y-88185400D01*
X115148607Y-88123088D01*
X115146418Y-88109476D01*
X115138072Y-88030073D01*
X115138072Y-88030072D01*
X115137382Y-88023509D01*
X115131743Y-88006152D01*
X115084119Y-87859582D01*
X115082077Y-87853297D01*
X114992591Y-87698303D01*
X114872836Y-87565301D01*
X114855405Y-87552636D01*
X114733387Y-87463985D01*
X114733386Y-87463984D01*
X114728045Y-87460104D01*
X114722017Y-87457420D01*
X114722015Y-87457419D01*
X114570577Y-87389995D01*
X114570576Y-87389995D01*
X114564546Y-87387310D01*
X114477016Y-87368705D01*
X114395943Y-87351472D01*
X114395939Y-87351472D01*
X114389486Y-87350100D01*
X114210514Y-87350100D01*
X114204061Y-87351472D01*
X114204057Y-87351472D01*
X114122984Y-87368705D01*
X114035454Y-87387310D01*
X114029427Y-87389993D01*
X114029419Y-87389996D01*
X113904447Y-87445637D01*
X113834080Y-87455071D01*
X113769783Y-87424964D01*
X113759563Y-87414840D01*
X113670758Y-87316212D01*
X113670757Y-87316211D01*
X113666336Y-87311301D01*
X113610553Y-87270772D01*
X113567199Y-87214549D01*
X113561124Y-87143813D01*
X113594256Y-87081022D01*
X113656076Y-87046110D01*
X113691433Y-87043021D01*
X113693476Y-87043132D01*
X113696866Y-87043500D01*
X114253134Y-87043500D01*
X114286394Y-87039887D01*
X114313606Y-87039887D01*
X114346866Y-87043500D01*
X114903134Y-87043500D01*
X114938722Y-87039634D01*
X114965935Y-87039634D01*
X114993520Y-87042631D01*
X115000327Y-87043000D01*
X115026885Y-87043000D01*
X115042124Y-87038525D01*
X115063128Y-87014286D01*
X115096027Y-86987744D01*
X115101705Y-86985615D01*
X115199436Y-86912370D01*
X115265941Y-86887522D01*
X115335324Y-86902575D01*
X115350562Y-86912368D01*
X115448295Y-86985615D01*
X115456126Y-86988551D01*
X115495505Y-87028018D01*
X115510865Y-87041328D01*
X115518548Y-87042999D01*
X115549670Y-87042999D01*
X115556488Y-87042630D01*
X115584067Y-87039634D01*
X115611278Y-87039634D01*
X115646866Y-87043500D01*
X116203134Y-87043500D01*
X116236394Y-87039887D01*
X116263606Y-87039887D01*
X116296866Y-87043500D01*
X116853134Y-87043500D01*
X116886394Y-87039887D01*
X116913606Y-87039887D01*
X116946866Y-87043500D01*
X117503134Y-87043500D01*
X117507544Y-87043021D01*
X117511133Y-87042631D01*
X117565316Y-87036745D01*
X117701705Y-86985615D01*
X117818261Y-86898261D01*
X117847175Y-86859681D01*
X117904034Y-86817168D01*
X117974852Y-86812143D01*
X118037146Y-86846203D01*
X118071136Y-86908534D01*
X118074000Y-86935248D01*
X118074000Y-90615500D01*
X118085609Y-90723480D01*
X118096995Y-90775822D01*
X118131293Y-90878872D01*
X118209465Y-91000510D01*
X118212407Y-91003905D01*
X118212409Y-91003908D01*
X118232161Y-91026703D01*
X118255958Y-91054166D01*
X118365234Y-91148855D01*
X118496760Y-91208921D01*
X118503139Y-91210794D01*
X118560558Y-91227654D01*
X118560562Y-91227655D01*
X118564881Y-91228923D01*
X118569329Y-91229563D01*
X118569336Y-91229564D01*
X118703552Y-91248861D01*
X118703559Y-91248862D01*
X118708000Y-91249500D01*
X123381500Y-91249500D01*
X123489480Y-91237891D01*
X123492764Y-91237177D01*
X123492768Y-91237176D01*
X123517839Y-91231722D01*
X123541822Y-91226505D01*
X123581416Y-91213327D01*
X123652366Y-91210794D01*
X123713424Y-91247022D01*
X123744548Y-91312342D01*
X123745110Y-91312215D01*
X123794222Y-91530139D01*
X123878266Y-91737116D01*
X123994987Y-91927588D01*
X124141250Y-92096438D01*
X124145230Y-92099742D01*
X124149981Y-92103687D01*
X124189616Y-92162590D01*
X124191113Y-92233571D01*
X124153997Y-92294093D01*
X124113724Y-92318612D01*
X123998295Y-92361885D01*
X123881739Y-92449239D01*
X123794385Y-92565795D01*
X123743255Y-92702184D01*
X123736500Y-92764366D01*
X123736500Y-94560634D01*
X123743255Y-94622816D01*
X123794385Y-94759205D01*
X123881739Y-94875761D01*
X123998295Y-94963115D01*
X124134684Y-95014245D01*
X124196866Y-95021000D01*
X124837764Y-95021000D01*
X124905885Y-95041002D01*
X124952378Y-95094658D01*
X124962482Y-95164932D01*
X124932988Y-95229512D01*
X124926859Y-95236095D01*
X123616859Y-96546095D01*
X123554547Y-96580121D01*
X123527764Y-96583000D01*
X120607240Y-96583000D01*
X120539119Y-96562998D01*
X120496720Y-96517509D01*
X120493266Y-96511200D01*
X120490115Y-96502795D01*
X120484730Y-96495609D01*
X120408142Y-96393419D01*
X120402761Y-96386239D01*
X120286205Y-96298885D01*
X120149816Y-96247755D01*
X120087634Y-96241000D01*
X118291366Y-96241000D01*
X118229184Y-96247755D01*
X118092795Y-96298885D01*
X117976239Y-96386239D01*
X117888885Y-96502795D01*
X117885733Y-96511203D01*
X117844419Y-96621407D01*
X117801777Y-96678171D01*
X117735216Y-96702871D01*
X117665867Y-96687663D01*
X117633243Y-96661976D01*
X117582651Y-96606375D01*
X117582642Y-96606366D01*
X117579170Y-96602551D01*
X117575119Y-96599352D01*
X117575115Y-96599348D01*
X117407914Y-96467300D01*
X117407910Y-96467298D01*
X117403859Y-96464098D01*
X117208289Y-96356138D01*
X117203420Y-96354414D01*
X117203416Y-96354412D01*
X117002587Y-96283295D01*
X117002583Y-96283294D01*
X116997712Y-96281569D01*
X116992619Y-96280662D01*
X116992616Y-96280661D01*
X116782873Y-96243300D01*
X116782867Y-96243299D01*
X116777784Y-96242394D01*
X116703952Y-96241492D01*
X116559581Y-96239728D01*
X116559579Y-96239728D01*
X116554411Y-96239665D01*
X116333591Y-96273455D01*
X116121256Y-96342857D01*
X115923107Y-96446007D01*
X115918974Y-96449110D01*
X115918971Y-96449112D01*
X115748600Y-96577030D01*
X115744465Y-96580135D01*
X115705025Y-96621407D01*
X115650780Y-96678171D01*
X115590129Y-96741638D01*
X115482701Y-96899121D01*
X115427793Y-96944121D01*
X115357268Y-96952292D01*
X115293521Y-96921038D01*
X115272824Y-96896554D01*
X115192322Y-96772117D01*
X115192320Y-96772114D01*
X115189514Y-96767777D01*
X115039170Y-96602551D01*
X115035119Y-96599352D01*
X115035115Y-96599348D01*
X114867914Y-96467300D01*
X114867910Y-96467298D01*
X114863859Y-96464098D01*
X114668289Y-96356138D01*
X114663420Y-96354414D01*
X114663416Y-96354412D01*
X114462587Y-96283295D01*
X114462583Y-96283294D01*
X114457712Y-96281569D01*
X114452619Y-96280662D01*
X114452616Y-96280661D01*
X114242873Y-96243300D01*
X114242867Y-96243299D01*
X114237784Y-96242394D01*
X114163952Y-96241492D01*
X114019581Y-96239728D01*
X114019579Y-96239728D01*
X114014411Y-96239665D01*
X113793591Y-96273455D01*
X113581256Y-96342857D01*
X113383107Y-96446007D01*
X113378974Y-96449110D01*
X113378971Y-96449112D01*
X113208600Y-96577030D01*
X113204465Y-96580135D01*
X113165025Y-96621407D01*
X113110780Y-96678171D01*
X113050129Y-96741638D01*
X112942701Y-96899121D01*
X112887793Y-96944121D01*
X112817268Y-96952292D01*
X112753521Y-96921038D01*
X112732824Y-96896554D01*
X112652322Y-96772117D01*
X112652320Y-96772114D01*
X112649514Y-96767777D01*
X112499170Y-96602551D01*
X112495119Y-96599352D01*
X112495115Y-96599348D01*
X112327914Y-96467300D01*
X112327910Y-96467298D01*
X112323859Y-96464098D01*
X112128289Y-96356138D01*
X112123420Y-96354414D01*
X112123416Y-96354412D01*
X111922587Y-96283295D01*
X111922583Y-96283294D01*
X111917712Y-96281569D01*
X111912619Y-96280662D01*
X111912616Y-96280661D01*
X111702873Y-96243300D01*
X111702867Y-96243299D01*
X111697784Y-96242394D01*
X111623952Y-96241492D01*
X111479581Y-96239728D01*
X111479579Y-96239728D01*
X111474411Y-96239665D01*
X111253591Y-96273455D01*
X111041256Y-96342857D01*
X110843107Y-96446007D01*
X110838974Y-96449110D01*
X110838971Y-96449112D01*
X110668600Y-96577030D01*
X110664465Y-96580135D01*
X110625025Y-96621407D01*
X110570780Y-96678171D01*
X110510129Y-96741638D01*
X110402701Y-96899121D01*
X110347793Y-96944121D01*
X110277268Y-96952292D01*
X110213521Y-96921038D01*
X110192824Y-96896554D01*
X110112322Y-96772117D01*
X110112320Y-96772114D01*
X110109514Y-96767777D01*
X109959170Y-96602551D01*
X109955119Y-96599352D01*
X109955115Y-96599348D01*
X109787914Y-96467300D01*
X109787910Y-96467298D01*
X109783859Y-96464098D01*
X109588289Y-96356138D01*
X109583420Y-96354414D01*
X109583416Y-96354412D01*
X109382587Y-96283295D01*
X109382583Y-96283294D01*
X109377712Y-96281569D01*
X109372619Y-96280662D01*
X109372616Y-96280661D01*
X109162873Y-96243300D01*
X109162867Y-96243299D01*
X109157784Y-96242394D01*
X109083952Y-96241492D01*
X108939581Y-96239728D01*
X108939579Y-96239728D01*
X108934411Y-96239665D01*
X108713591Y-96273455D01*
X108501256Y-96342857D01*
X108303107Y-96446007D01*
X108298974Y-96449110D01*
X108298971Y-96449112D01*
X108128600Y-96577030D01*
X108124465Y-96580135D01*
X108085025Y-96621407D01*
X108030780Y-96678171D01*
X107970129Y-96741638D01*
X107844243Y-96926180D01*
X107797215Y-97027493D01*
X107755864Y-97116578D01*
X107750188Y-97128805D01*
X107690489Y-97344070D01*
X107666751Y-97566195D01*
X107679610Y-97789215D01*
X107680747Y-97794261D01*
X107680748Y-97794267D01*
X107703097Y-97893435D01*
X107728722Y-98007139D01*
X107812766Y-98214116D01*
X107855623Y-98284053D01*
X107926791Y-98400188D01*
X107929487Y-98404588D01*
X108075750Y-98573438D01*
X108247626Y-98716132D01*
X108440500Y-98828838D01*
X108649192Y-98908530D01*
X108654260Y-98909561D01*
X108654263Y-98909562D01*
X108761517Y-98931383D01*
X108868097Y-98953067D01*
X108873272Y-98953257D01*
X108873274Y-98953257D01*
X109086173Y-98961064D01*
X109086177Y-98961064D01*
X109091337Y-98961253D01*
X109096457Y-98960597D01*
X109096459Y-98960597D01*
X109307788Y-98933525D01*
X109307789Y-98933525D01*
X109312916Y-98932868D01*
X109317866Y-98931383D01*
X109521929Y-98870161D01*
X109521934Y-98870159D01*
X109526884Y-98868674D01*
X109727494Y-98770396D01*
X109909360Y-98640673D01*
X109929241Y-98620862D01*
X110004792Y-98545574D01*
X110067596Y-98482989D01*
X110089066Y-98453111D01*
X110197953Y-98301577D01*
X110199276Y-98302528D01*
X110246145Y-98259357D01*
X110316080Y-98247125D01*
X110381526Y-98274644D01*
X110409375Y-98306494D01*
X110469487Y-98404588D01*
X110615750Y-98573438D01*
X110787626Y-98716132D01*
X110980500Y-98828838D01*
X111189192Y-98908530D01*
X111194260Y-98909561D01*
X111194263Y-98909562D01*
X111301517Y-98931383D01*
X111408097Y-98953067D01*
X111413272Y-98953257D01*
X111413274Y-98953257D01*
X111626173Y-98961064D01*
X111626177Y-98961064D01*
X111631337Y-98961253D01*
X111636457Y-98960597D01*
X111636459Y-98960597D01*
X111847788Y-98933525D01*
X111847789Y-98933525D01*
X111852916Y-98932868D01*
X111857866Y-98931383D01*
X112061929Y-98870161D01*
X112061934Y-98870159D01*
X112066884Y-98868674D01*
X112267494Y-98770396D01*
X112449360Y-98640673D01*
X112469241Y-98620862D01*
X112544792Y-98545574D01*
X112607596Y-98482989D01*
X112629066Y-98453111D01*
X112737953Y-98301577D01*
X112739276Y-98302528D01*
X112786145Y-98259357D01*
X112856080Y-98247125D01*
X112921526Y-98274644D01*
X112949375Y-98306494D01*
X113009487Y-98404588D01*
X113155750Y-98573438D01*
X113327626Y-98716132D01*
X113520500Y-98828838D01*
X113729192Y-98908530D01*
X113734260Y-98909561D01*
X113734263Y-98909562D01*
X113841517Y-98931383D01*
X113948097Y-98953067D01*
X113953272Y-98953257D01*
X113953274Y-98953257D01*
X114166173Y-98961064D01*
X114166177Y-98961064D01*
X114171337Y-98961253D01*
X114176457Y-98960597D01*
X114176459Y-98960597D01*
X114387788Y-98933525D01*
X114387789Y-98933525D01*
X114392916Y-98932868D01*
X114397866Y-98931383D01*
X114601929Y-98870161D01*
X114601934Y-98870159D01*
X114606884Y-98868674D01*
X114807494Y-98770396D01*
X114989360Y-98640673D01*
X115009241Y-98620862D01*
X115084792Y-98545574D01*
X115147596Y-98482989D01*
X115169066Y-98453111D01*
X115277953Y-98301577D01*
X115279276Y-98302528D01*
X115326145Y-98259357D01*
X115396080Y-98247125D01*
X115461526Y-98274644D01*
X115489375Y-98306494D01*
X115549487Y-98404588D01*
X115695750Y-98573438D01*
X115867626Y-98716132D01*
X116060500Y-98828838D01*
X116269192Y-98908530D01*
X116274260Y-98909561D01*
X116274263Y-98909562D01*
X116381517Y-98931383D01*
X116488097Y-98953067D01*
X116493272Y-98953257D01*
X116493274Y-98953257D01*
X116706173Y-98961064D01*
X116706177Y-98961064D01*
X116711337Y-98961253D01*
X116716457Y-98960597D01*
X116716459Y-98960597D01*
X116927788Y-98933525D01*
X116927789Y-98933525D01*
X116932916Y-98932868D01*
X116937866Y-98931383D01*
X117141929Y-98870161D01*
X117141934Y-98870159D01*
X117146884Y-98868674D01*
X117347494Y-98770396D01*
X117529360Y-98640673D01*
X117637591Y-98532819D01*
X117699962Y-98498904D01*
X117770768Y-98504092D01*
X117827530Y-98546738D01*
X117844512Y-98577841D01*
X117859094Y-98616737D01*
X117888885Y-98696205D01*
X117976239Y-98812761D01*
X118092795Y-98900115D01*
X118229184Y-98951245D01*
X118291366Y-98958000D01*
X120087634Y-98958000D01*
X120149816Y-98951245D01*
X120286205Y-98900115D01*
X120402761Y-98812761D01*
X120446787Y-98754017D01*
X120484731Y-98703389D01*
X120484731Y-98703388D01*
X120490115Y-98696205D01*
X120493266Y-98687800D01*
X120496720Y-98681491D01*
X120546979Y-98631345D01*
X120607240Y-98616000D01*
X123938726Y-98616000D01*
X123952334Y-98616737D01*
X123984181Y-98620197D01*
X123984185Y-98620197D01*
X123990306Y-98620862D01*
X124027174Y-98617637D01*
X124040692Y-98616454D01*
X124045520Y-98616125D01*
X124048075Y-98616000D01*
X124051159Y-98616000D01*
X124066533Y-98614492D01*
X124094221Y-98611778D01*
X124095534Y-98611656D01*
X124135631Y-98608148D01*
X124188894Y-98603488D01*
X124194054Y-98601989D01*
X124199396Y-98601465D01*
X124289098Y-98574383D01*
X124290238Y-98574045D01*
X124380324Y-98547872D01*
X124385092Y-98545400D01*
X124390234Y-98543848D01*
X124395679Y-98540953D01*
X124395686Y-98540950D01*
X124472952Y-98499867D01*
X124474056Y-98499287D01*
X124557306Y-98456134D01*
X124561505Y-98452782D01*
X124566246Y-98450261D01*
X124617462Y-98408490D01*
X124638831Y-98391062D01*
X124639857Y-98390234D01*
X124676566Y-98360929D01*
X124676567Y-98360928D01*
X124679318Y-98358732D01*
X124681813Y-98356237D01*
X124682607Y-98355527D01*
X124686962Y-98351807D01*
X124715953Y-98328163D01*
X124715956Y-98328160D01*
X124720728Y-98324268D01*
X124750213Y-98288627D01*
X124758202Y-98279848D01*
X127272987Y-95765063D01*
X127335299Y-95731037D01*
X127406114Y-95736102D01*
X127462950Y-95778649D01*
X127487761Y-95845169D01*
X127471201Y-95917158D01*
X127459483Y-95937454D01*
X127400468Y-96119082D01*
X127399778Y-96125645D01*
X127399778Y-96125646D01*
X127393654Y-96183910D01*
X127375777Y-96236574D01*
X127311632Y-96341250D01*
X127229105Y-96475921D01*
X127227580Y-96479206D01*
X127227578Y-96479210D01*
X127179401Y-96583000D01*
X127083027Y-96790620D01*
X126974087Y-97120023D01*
X126973351Y-97123578D01*
X126973350Y-97123581D01*
X126938978Y-97289556D01*
X126909232Y-97348316D01*
X126895960Y-97363056D01*
X126800473Y-97528444D01*
X126741458Y-97710072D01*
X126721496Y-97900000D01*
X126722186Y-97906565D01*
X126732227Y-98002096D01*
X126741458Y-98089928D01*
X126800473Y-98271556D01*
X126803776Y-98277278D01*
X126803777Y-98277279D01*
X126869221Y-98390630D01*
X126895960Y-98436944D01*
X126900379Y-98441852D01*
X126900380Y-98441853D01*
X126902987Y-98444748D01*
X126931231Y-98497089D01*
X127018897Y-98831253D01*
X127144927Y-99154503D01*
X127146624Y-99157708D01*
X127280113Y-99409825D01*
X127307275Y-99461126D01*
X127309325Y-99464109D01*
X127309327Y-99464112D01*
X127371896Y-99555150D01*
X127393366Y-99613347D01*
X127400468Y-99680918D01*
X127459483Y-99862546D01*
X127554970Y-100027934D01*
X127682757Y-100169856D01*
X127837258Y-100282108D01*
X127843286Y-100284792D01*
X127843288Y-100284793D01*
X128005691Y-100357099D01*
X128011722Y-100359784D01*
X128152305Y-100389666D01*
X128185613Y-100396746D01*
X128232942Y-100417670D01*
X128267282Y-100442346D01*
X128267288Y-100442350D01*
X128270233Y-100444466D01*
X128573388Y-100613200D01*
X128893928Y-100745972D01*
X128897422Y-100746967D01*
X128897424Y-100746968D01*
X129224103Y-100840025D01*
X129224108Y-100840026D01*
X129227604Y-100841022D01*
X129231190Y-100841609D01*
X129231189Y-100841609D01*
X129279266Y-100849482D01*
X129332964Y-100871890D01*
X129428248Y-100941118D01*
X129434276Y-100943802D01*
X129434278Y-100943803D01*
X129596681Y-101016109D01*
X129602712Y-101018794D01*
X129683321Y-101035928D01*
X129783056Y-101057128D01*
X129783061Y-101057128D01*
X129789513Y-101058500D01*
X129980487Y-101058500D01*
X129986939Y-101057128D01*
X129986944Y-101057128D01*
X130086679Y-101035928D01*
X130167288Y-101018794D01*
X130173319Y-101016109D01*
X130335722Y-100943803D01*
X130335724Y-100943802D01*
X130341752Y-100941118D01*
X130440514Y-100869363D01*
X130491610Y-100847411D01*
X130564150Y-100833966D01*
X130600279Y-100827270D01*
X130600283Y-100827269D01*
X130603844Y-100826609D01*
X130699225Y-100797266D01*
X130770214Y-100796354D01*
X130830429Y-100833966D01*
X130860750Y-100898163D01*
X130851550Y-100968561D01*
X130837885Y-100992201D01*
X130559015Y-101372532D01*
X130555668Y-101376893D01*
X129999518Y-102069842D01*
X129995985Y-102074054D01*
X129410099Y-102742129D01*
X129406385Y-102746182D01*
X128791933Y-103388046D01*
X128788046Y-103391933D01*
X128146182Y-104006385D01*
X128142129Y-104010099D01*
X127474054Y-104595985D01*
X127469842Y-104599518D01*
X126776893Y-105155668D01*
X126772532Y-105159015D01*
X126055928Y-105684451D01*
X126051459Y-105687580D01*
X125530414Y-106035732D01*
X125312629Y-106181251D01*
X125307992Y-106184205D01*
X124548364Y-106645158D01*
X124543604Y-106647907D01*
X123764549Y-107075311D01*
X123759672Y-107077849D01*
X122962756Y-107470844D01*
X122957774Y-107473167D01*
X122826823Y-107530787D01*
X122144460Y-107831034D01*
X122139401Y-107833130D01*
X121311219Y-108155192D01*
X121306083Y-108157062D01*
X120691967Y-108365526D01*
X120464664Y-108442685D01*
X120459421Y-108444338D01*
X119606364Y-108692981D01*
X119601055Y-108694404D01*
X119448377Y-108731764D01*
X118737931Y-108905609D01*
X118732603Y-108906791D01*
X118307316Y-108991385D01*
X117861106Y-109080141D01*
X117855693Y-109081096D01*
X116977446Y-109216272D01*
X116971997Y-109216989D01*
X116088722Y-109313723D01*
X116083254Y-109314202D01*
X115196591Y-109372316D01*
X115191110Y-109372556D01*
X114403931Y-109389732D01*
X114302749Y-109391940D01*
X114297251Y-109391940D01*
X114196069Y-109389732D01*
X113408890Y-109372556D01*
X113403409Y-109372316D01*
X112516746Y-109314202D01*
X112511278Y-109313723D01*
X111628003Y-109216989D01*
X111622554Y-109216272D01*
X110744307Y-109081096D01*
X110738894Y-109080141D01*
X110292684Y-108991385D01*
X109867397Y-108906791D01*
X109862069Y-108905609D01*
X109151623Y-108731764D01*
X108998945Y-108694404D01*
X108993636Y-108692981D01*
X108140579Y-108444338D01*
X108135336Y-108442685D01*
X107908033Y-108365526D01*
X107293917Y-108157062D01*
X107288781Y-108155192D01*
X106460599Y-107833130D01*
X106455540Y-107831034D01*
X105773177Y-107530787D01*
X105642226Y-107473167D01*
X105637244Y-107470844D01*
X104840328Y-107077849D01*
X104835451Y-107075311D01*
X104056396Y-106647907D01*
X104051636Y-106645158D01*
X103292008Y-106184205D01*
X103287371Y-106181251D01*
X103069586Y-106035732D01*
X102548541Y-105687580D01*
X102544072Y-105684451D01*
X101827468Y-105159015D01*
X101823107Y-105155668D01*
X101130158Y-104599518D01*
X101125946Y-104595985D01*
X100457871Y-104010099D01*
X100453818Y-104006385D01*
X99811954Y-103391933D01*
X99808067Y-103388046D01*
X99193615Y-102746182D01*
X99189901Y-102742129D01*
X98604015Y-102074054D01*
X98600482Y-102069842D01*
X98044332Y-101376893D01*
X98040985Y-101372532D01*
X97893884Y-101171912D01*
X97869734Y-101105149D01*
X97885513Y-101035928D01*
X97936210Y-100986226D01*
X98005730Y-100971823D01*
X98046744Y-100982300D01*
X98128712Y-101018794D01*
X98209321Y-101035928D01*
X98309056Y-101057128D01*
X98309061Y-101057128D01*
X98315513Y-101058500D01*
X98506487Y-101058500D01*
X98512939Y-101057128D01*
X98512944Y-101057128D01*
X98612679Y-101035928D01*
X98693288Y-101018794D01*
X98699319Y-101016109D01*
X98861722Y-100943803D01*
X98861724Y-100943802D01*
X98867752Y-100941118D01*
X98966514Y-100869363D01*
X99017610Y-100847411D01*
X99090150Y-100833966D01*
X99126279Y-100827270D01*
X99126283Y-100827269D01*
X99129844Y-100826609D01*
X99461456Y-100724592D01*
X99779145Y-100585136D01*
X100078700Y-100410091D01*
X100079246Y-100411025D01*
X100116283Y-100395493D01*
X100185185Y-100380847D01*
X100284278Y-100359784D01*
X100290309Y-100357099D01*
X100452712Y-100284793D01*
X100452714Y-100284792D01*
X100458742Y-100282108D01*
X100613243Y-100169856D01*
X100741030Y-100027934D01*
X100836517Y-99862546D01*
X100895532Y-99680918D01*
X100902761Y-99612140D01*
X100922759Y-99556134D01*
X100979260Y-99470118D01*
X101020853Y-99406799D01*
X101149446Y-99151121D01*
X101175117Y-99100080D01*
X101175120Y-99100072D01*
X101176744Y-99096844D01*
X101177989Y-99093442D01*
X101294729Y-98774437D01*
X101294730Y-98774433D01*
X101295977Y-98771026D01*
X101296822Y-98767504D01*
X101296825Y-98767496D01*
X101360039Y-98504189D01*
X101388921Y-98449293D01*
X101395621Y-98441852D01*
X101395622Y-98441851D01*
X101400040Y-98436944D01*
X101465094Y-98324268D01*
X101492223Y-98277279D01*
X101492224Y-98277278D01*
X101495527Y-98271556D01*
X101554542Y-98089928D01*
X101563774Y-98002096D01*
X101573814Y-97906565D01*
X101574504Y-97900000D01*
X101554542Y-97710072D01*
X101495527Y-97528444D01*
X101400040Y-97363056D01*
X101388729Y-97350494D01*
X101358241Y-97287846D01*
X101345600Y-97215415D01*
X101345598Y-97215408D01*
X101344976Y-97211842D01*
X101334796Y-97177473D01*
X101304482Y-97075137D01*
X101246437Y-96879180D01*
X101198920Y-96767777D01*
X101111740Y-96563386D01*
X101111738Y-96563383D01*
X101110316Y-96560048D01*
X101102358Y-96546095D01*
X100940214Y-96261826D01*
X100940212Y-96261822D01*
X100938417Y-96258676D01*
X100925690Y-96241351D01*
X100901927Y-96179928D01*
X100896222Y-96125645D01*
X100896222Y-96125643D01*
X100895532Y-96119082D01*
X100836517Y-95937454D01*
X100741030Y-95772066D01*
X100734725Y-95765063D01*
X100617665Y-95635055D01*
X100617664Y-95635054D01*
X100613243Y-95630144D01*
X100458742Y-95517892D01*
X100452714Y-95515208D01*
X100452712Y-95515207D01*
X100290309Y-95442901D01*
X100290308Y-95442901D01*
X100284278Y-95440216D01*
X100103936Y-95401883D01*
X100059857Y-95383218D01*
X100001659Y-95344111D01*
X99945047Y-95306069D01*
X99636741Y-95146940D01*
X99312189Y-95024302D01*
X99308668Y-95023418D01*
X99308663Y-95023416D01*
X99004542Y-94947027D01*
X98961176Y-94926759D01*
X98873094Y-94862763D01*
X98873093Y-94862762D01*
X98867752Y-94858882D01*
X98861724Y-94856198D01*
X98861722Y-94856197D01*
X98699319Y-94783891D01*
X98699318Y-94783891D01*
X98693288Y-94781206D01*
X98589782Y-94759205D01*
X98512944Y-94742872D01*
X98512939Y-94742872D01*
X98506487Y-94741500D01*
X98315513Y-94741500D01*
X98309061Y-94742872D01*
X98309056Y-94742872D01*
X98232218Y-94759205D01*
X98128712Y-94781206D01*
X98122682Y-94783891D01*
X98122681Y-94783891D01*
X97960278Y-94856197D01*
X97960276Y-94856198D01*
X97954248Y-94858882D01*
X97948907Y-94862762D01*
X97948906Y-94862763D01*
X97931016Y-94875761D01*
X97864520Y-94924074D01*
X97854852Y-94931098D01*
X97807634Y-94952270D01*
X97664784Y-94983416D01*
X97610146Y-94995329D01*
X97600583Y-94997414D01*
X97597156Y-94998587D01*
X97597150Y-94998589D01*
X97316556Y-95094658D01*
X97272339Y-95109797D01*
X96959188Y-95259163D01*
X96956109Y-95261094D01*
X96956108Y-95261095D01*
X96757567Y-95385640D01*
X96716809Y-95402150D01*
X96537722Y-95440216D01*
X96531692Y-95442901D01*
X96531691Y-95442901D01*
X96369288Y-95515207D01*
X96369286Y-95515208D01*
X96363258Y-95517892D01*
X96208757Y-95630144D01*
X96204336Y-95635054D01*
X96204335Y-95635055D01*
X96087276Y-95765063D01*
X96080970Y-95772066D01*
X95985483Y-95937454D01*
X95926468Y-96119082D01*
X95925778Y-96125645D01*
X95925778Y-96125646D01*
X95919654Y-96183910D01*
X95901777Y-96236574D01*
X95837632Y-96341250D01*
X95755105Y-96475921D01*
X95753580Y-96479206D01*
X95753578Y-96479210D01*
X95613572Y-96780829D01*
X95566748Y-96834196D01*
X95498505Y-96853777D01*
X95430509Y-96833353D01*
X95383955Y-96778526D01*
X95381135Y-96772117D01*
X95368959Y-96744444D01*
X95366866Y-96739391D01*
X95327898Y-96639184D01*
X95044808Y-95911219D01*
X95042933Y-95906068D01*
X94999387Y-95777784D01*
X94757315Y-95064664D01*
X94755662Y-95059421D01*
X94507019Y-94206364D01*
X94505596Y-94201055D01*
X94468236Y-94048377D01*
X94294391Y-93337931D01*
X94293206Y-93332588D01*
X94266811Y-93199887D01*
X94175278Y-92739717D01*
X94119859Y-92461106D01*
X94118904Y-92455693D01*
X93983728Y-91577446D01*
X93983011Y-91571995D01*
X93937080Y-91152599D01*
X93886277Y-90688722D01*
X93885798Y-90683250D01*
X93881577Y-90618849D01*
X93827684Y-89796591D01*
X93827444Y-89791104D01*
X93827159Y-89778016D01*
X93808060Y-88902749D01*
X93808060Y-88897251D01*
X93827444Y-88008896D01*
X93827684Y-88003404D01*
X93831779Y-87940935D01*
X93885798Y-87116746D01*
X93886277Y-87111274D01*
X93888972Y-87086671D01*
X93983011Y-86228003D01*
X93983728Y-86222554D01*
X94118904Y-85344307D01*
X94119859Y-85338894D01*
X94215455Y-84858295D01*
X94293209Y-84467397D01*
X94294391Y-84462069D01*
X94505596Y-83598945D01*
X94507019Y-83593636D01*
X94755662Y-82740579D01*
X94757315Y-82735336D01*
X94836404Y-82502348D01*
X95042938Y-81893917D01*
X95044813Y-81888766D01*
X95054441Y-81864009D01*
X95366870Y-81060599D01*
X95368970Y-81055530D01*
X95426818Y-80924062D01*
X95615055Y-80496260D01*
X95726833Y-80242226D01*
X95729156Y-80237244D01*
X96122151Y-79440328D01*
X96124689Y-79435451D01*
X96552093Y-78656396D01*
X96554842Y-78651636D01*
X97015795Y-77892008D01*
X97018749Y-77887371D01*
X97289856Y-77481631D01*
X97512420Y-77148541D01*
X97515549Y-77144072D01*
X98040985Y-76427468D01*
X98044332Y-76423107D01*
X98600482Y-75730158D01*
X98604015Y-75725946D01*
X99189901Y-75057871D01*
X99193615Y-75053818D01*
X99808067Y-74411954D01*
X99811954Y-74408067D01*
X100453818Y-73793615D01*
X100457871Y-73789901D01*
X100507963Y-73745972D01*
X100851764Y-73444466D01*
X101125946Y-73204015D01*
X101130158Y-73200482D01*
X101823107Y-72644332D01*
X101827468Y-72640985D01*
X102146857Y-72406799D01*
X102544072Y-72115549D01*
X102548541Y-72112420D01*
X103287371Y-71618749D01*
X103292008Y-71615795D01*
X104051636Y-71154842D01*
X104056396Y-71152093D01*
X104835451Y-70724689D01*
X104840328Y-70722151D01*
X105637244Y-70329156D01*
X105642226Y-70326833D01*
X106123570Y-70115036D01*
X106455540Y-69968966D01*
X106460599Y-69966870D01*
X107288781Y-69644808D01*
X107293917Y-69642938D01*
X108135336Y-69357315D01*
X108140579Y-69355662D01*
X108993636Y-69107019D01*
X108998945Y-69105596D01*
X109152685Y-69067976D01*
X109862069Y-68894391D01*
X109867397Y-68893209D01*
X110292684Y-68808615D01*
X110738894Y-68719859D01*
X110744307Y-68718904D01*
X111622554Y-68583728D01*
X111628005Y-68583011D01*
X111867800Y-68556749D01*
X111937693Y-68569216D01*
X111989751Y-68617491D01*
X112007445Y-68686247D01*
X111985158Y-68753655D01*
X111975158Y-68766304D01*
X111969970Y-68772066D01*
X111874483Y-68937454D01*
X111872441Y-68943739D01*
X111819388Y-69107019D01*
X111815468Y-69119082D01*
X111814778Y-69125645D01*
X111814778Y-69125646D01*
X111808654Y-69183910D01*
X111790777Y-69236574D01*
X111779023Y-69255755D01*
X111644105Y-69475921D01*
X111642580Y-69479206D01*
X111642578Y-69479210D01*
X111565708Y-69644813D01*
X111498027Y-69790620D01*
X111389087Y-70120023D01*
X111388351Y-70123578D01*
X111388350Y-70123581D01*
X111353978Y-70289556D01*
X111324232Y-70348316D01*
X111310960Y-70363056D01*
X111215473Y-70528444D01*
X111156458Y-70710072D01*
X111136496Y-70900000D01*
X111156458Y-71089928D01*
X111215473Y-71271556D01*
X111310960Y-71436944D01*
X111315379Y-71441852D01*
X111315380Y-71441853D01*
X111317987Y-71444748D01*
X111346231Y-71497089D01*
X111433897Y-71831253D01*
X111559927Y-72154503D01*
X111561624Y-72157708D01*
X111695113Y-72409825D01*
X111722275Y-72461126D01*
X111724325Y-72464109D01*
X111724327Y-72464112D01*
X111786896Y-72555150D01*
X111808366Y-72613347D01*
X111815468Y-72680918D01*
X111874483Y-72862546D01*
X111969970Y-73027934D01*
X112097757Y-73169856D01*
X112252258Y-73282108D01*
X112258286Y-73284792D01*
X112258288Y-73284793D01*
X112420691Y-73357099D01*
X112426722Y-73359784D01*
X112567305Y-73389666D01*
X112600613Y-73396746D01*
X112647942Y-73417670D01*
X112682282Y-73442346D01*
X112682288Y-73442350D01*
X112685233Y-73444466D01*
X112988388Y-73613200D01*
X113308928Y-73745972D01*
X113312422Y-73746967D01*
X113312424Y-73746968D01*
X113639103Y-73840025D01*
X113639108Y-73840026D01*
X113642604Y-73841022D01*
X113646190Y-73841609D01*
X113646189Y-73841609D01*
X113694266Y-73849482D01*
X113747964Y-73871890D01*
X113843248Y-73941118D01*
X113849276Y-73943802D01*
X113849278Y-73943803D01*
X114011681Y-74016109D01*
X114017712Y-74018794D01*
X114111112Y-74038647D01*
X114198056Y-74057128D01*
X114198061Y-74057128D01*
X114204513Y-74058500D01*
X114395487Y-74058500D01*
X114401939Y-74057128D01*
X114401944Y-74057128D01*
X114488888Y-74038647D01*
X114582288Y-74018794D01*
X114588319Y-74016109D01*
X114750722Y-73943803D01*
X114750724Y-73943802D01*
X114756752Y-73941118D01*
X114855514Y-73869363D01*
X114906610Y-73847411D01*
X114968454Y-73835948D01*
X115015279Y-73827270D01*
X115015283Y-73827269D01*
X115018844Y-73826609D01*
X115350456Y-73724592D01*
X115668145Y-73585136D01*
X115967700Y-73410091D01*
X115968246Y-73411025D01*
X116005283Y-73395493D01*
X116074185Y-73380847D01*
X116173278Y-73359784D01*
X116179309Y-73357099D01*
X116341712Y-73284793D01*
X116341714Y-73284792D01*
X116347742Y-73282108D01*
X116502243Y-73169856D01*
X116630030Y-73027934D01*
X116725517Y-72862546D01*
X116784532Y-72680918D01*
X116785222Y-72674353D01*
X116791761Y-72612140D01*
X116811759Y-72556134D01*
X116868260Y-72470118D01*
X116909853Y-72406799D01*
X117038446Y-72151121D01*
X117064117Y-72100080D01*
X117064120Y-72100072D01*
X117065744Y-72096844D01*
X117184977Y-71771026D01*
X117185822Y-71767504D01*
X117185825Y-71767496D01*
X117249039Y-71504189D01*
X117277921Y-71449293D01*
X117284621Y-71441852D01*
X117284622Y-71441851D01*
X117289040Y-71436944D01*
X117384527Y-71271556D01*
X117443542Y-71089928D01*
X117463504Y-70900000D01*
X117443542Y-70710072D01*
X117384527Y-70528444D01*
X117289040Y-70363056D01*
X117277729Y-70350494D01*
X117247241Y-70287846D01*
X117234600Y-70215415D01*
X117234598Y-70215408D01*
X117233976Y-70211842D01*
X117135437Y-69879180D01*
X117035047Y-69643819D01*
X117000740Y-69563386D01*
X117000738Y-69563383D01*
X116999316Y-69560048D01*
X116949569Y-69472831D01*
X116829214Y-69261826D01*
X116829212Y-69261822D01*
X116827417Y-69258676D01*
X116814690Y-69241351D01*
X116790927Y-69179928D01*
X116785222Y-69125645D01*
X116785222Y-69125643D01*
X116784532Y-69119082D01*
X116725517Y-68937454D01*
X116630030Y-68772066D01*
X116624848Y-68766311D01*
X116624561Y-68765713D01*
X116621731Y-68761818D01*
X116622443Y-68761300D01*
X116594130Y-68702306D01*
X116602892Y-68631852D01*
X116648354Y-68577320D01*
X116716081Y-68556023D01*
X116732200Y-68556749D01*
G37*
%TD.AperFunction*%
%TD*%
M02*
